<?xml version="1.0" encoding="utf-8"?>
<!-- Generator: Adobe Illustrator 16.0.0, SVG Export Plug-In . SVG Version: 6.00 Build 0)  -->
<!DOCTYPE svg PUBLIC "-//W3C//DTD SVG 1.1//EN" "http://www.w3.org/Graphics/SVG/1.1/DTD/svg11.dtd">
<svg version="1.1" id="Layer_1" xmlns="http://www.w3.org/2000/svg" xmlns:xlink="http://www.w3.org/1999/xlink" x="0px" y="0px"
	 width="128px" height="128px" viewBox="0 0 128 128" enable-background="new 0 0 128 128" xml:space="preserve">
<g>
	<path fill="#FFFFFF" d="M86.027,52.509c-1.977,0-3.605,0.814-4.88,2.427c-1.283,1.62-1.924,4.091-1.924,7.407
		c0,3.484,0.641,6.032,1.924,7.652c1.274,1.611,2.858,2.425,4.733,2.425c2.011,0,3.706-0.828,5.092-2.486
		c1.386-1.664,2.08-4.118,2.08-7.373c0-3.393-0.663-5.932-1.989-7.573C89.733,53.333,88.052,52.509,86.027,52.509z"/>
	<path fill="#FFFFFF" d="M96.41,8.574h-64L0.41,64l32,55.426h64l32-55.426L96.41,8.574z M64.329,79.437h-8.674V59.622H38.66v19.815
		h-8.67V34.12h8.67v17.833h16.995V34.12h8.674V79.437z M101.143,76.063c0,3.878-0.307,6.772-0.909,8.686
		c-0.604,1.922-1.454,3.423-2.546,4.511c-1.096,1.1-2.556,1.949-4.381,2.565c-1.829,0.623-4.141,0.932-6.931,0.932
		c-5.277,0-9.018-0.952-11.222-2.86c-2.206-1.901-3.309-4.325-3.309-7.244c0-0.289,0.01-0.64,0.025-1.051l9.408,1.199
		c0.157,1.16,0.511,1.948,1.08,2.384c0.782,0.617,2.011,0.93,3.692,0.93c2.148,0,3.761-0.34,4.839-1.026
		c0.718-0.449,1.264-1.185,1.639-2.19c0.25-0.725,0.378-2.052,0.378-3.991v-4.79c-2.458,3.544-5.561,5.321-9.312,5.321
		c-4.182,0-7.497-1.865-9.934-5.6c-1.917-2.941-2.872-6.611-2.872-10.998c0-5.504,1.255-9.713,3.767-12.615
		c2.503-2.905,5.635-4.356,9.358-4.356c3.851,0,7.021,1.779,9.522,5.346v-4.607h7.705V76.063z"/>
</g>
</svg>
