<?xml version="1.0" encoding="utf-8"?>
<!-- Generator: Adobe Illustrator 16.0.0, SVG Export Plug-In . SVG Version: 6.00 Build 0)  -->
<!DOCTYPE svg PUBLIC "-//W3C//DTD SVG 1.1//EN" "http://www.w3.org/Graphics/SVG/1.1/DTD/svg11.dtd">
<svg version="1.1" id="Layer_1" xmlns="http://www.w3.org/2000/svg" xmlns:xlink="http://www.w3.org/1999/xlink" x="0px" y="0px"
	 width="500px" height="171.708px" viewBox="0 0 500 171.708" enable-background="new 0 0 500 171.708" xml:space="preserve">
<g>
	<polyline fill="none" stroke="#808080" stroke-width="4" stroke-miterlimit="10" points="209.979,45.208 230.5,45.208 
		230.5,128.731 214.671,128.731 	"/>
	<polygon fill="#808080" stroke="#808080" stroke-width="2" stroke-miterlimit="10" points="220.212,123.293 220.566,134.159 
		210.979,129.032 	"/>
</g>
<g>
	<line fill="none" stroke="#808080" stroke-width="4" stroke-miterlimit="10" x1="82.411" y1="134.164" x2="64.411" y2="134.164"/>
	<polygon fill="#808080" stroke="#808080" stroke-width="2" stroke-miterlimit="10" points="69.952,128.726 70.305,139.592 
		60.718,134.465 	"/>
</g>
<rect x="92.583" y="3.545" fill="#AFAFAF" width="109" height="77"/>
<rect x="92.782" y="31.814" fill="none" width="109.256" height="49.11"/>
<text transform="matrix(1 0 0 1 102.8838 55.3145)" fill="#0071BC" font-family="'Raleway'" font-size="19.8649">Deposit A</text>
<rect x="97.748" y="8.086" fill="none" width="103.739" height="12.14"/>
<text transform="matrix(1 0 0 1 119.749 18.1279)" enable-background="new    "><tspan x="0" y="0" fill="#FFFFFF" font-family="'Raleway'" font-size="11">BITCOIN</tspan><tspan x="0" y="13.2" fill="#FFFFFF" font-family="'Raleway'" font-size="11">TRANSACTION</tspan></text>
<g>
	<path fill-rule="evenodd" clip-rule="evenodd" fill="#F6921A" d="M117.282,21.568c-0.598,4.548-4.451,8.17-9.124,8.7
		c-5.457,0.618-10.423-3.284-11.284-8.37c0.085-0.152,0.05-0.316,0.054-0.477c-0.028,0,0.113-0.102-0.037-0.052
		c-0.085,0.028,0.036,0.005-0.059,0.063c-0.174-0.269-0.151-0.566-0.128-0.865c0.095-0.383,0.098-0.767-0.001-1.149
		c0.244-5.554,4.655-9.434,9.465-9.796c0.604,0.099,1.209,0.093,1.814,0.002c2.055,0.223,3.854,0.92,5.513,2.259
		c2.098,1.692,3.318,3.774,3.781,6.372c-0.096,0.346-0.07,0.688-0.035,0.957c-0.063-0.07-0.04-0.205,0.082-0.338
		c0.203,0.693,0.203,1.387,0.006,2.081c-0.07-0.048-0.1-0.118-0.107-0.2c-0.016,0.034-0.006,0.07-0.002,0.104
		C117.244,21.095,117.161,21.34,117.282,21.568z"/>
	<path fill-rule="evenodd" clip-rule="evenodd" fill="#F68C0E" d="M107.982,9.625c-0.605,0.22-1.209,0.224-1.814-0.002
		C106.773,9.624,107.377,9.625,107.982,9.625z"/>
	<path fill-rule="evenodd" clip-rule="evenodd" fill="#F68E10" d="M117.323,18.875c-0.014,0.109-0.027,0.217-0.041,0.324
		c-0.119-0.314-0.248-0.629-0.006-0.943C117.292,18.462,117.308,18.669,117.323,18.875z"/>
	<path fill-rule="evenodd" clip-rule="evenodd" fill="#F68C0E" d="M96.703,19.418c0.217,0.383,0.216,0.766,0.001,1.149
		C96.704,20.185,96.704,19.801,96.703,19.418z"/>
	<path fill-rule="evenodd" clip-rule="evenodd" fill="#F68D0F" d="M117.282,21.568c-0.229-0.215-0.131-0.492-0.132-0.744
		c0-0.115,0.085-0.092,0.134-0.019c0.027,0.042,0.031,0.1,0.045,0.149C117.313,21.16,117.298,21.364,117.282,21.568z"/>
	<path fill-rule="evenodd" clip-rule="evenodd" fill="#F68D0F" d="M96.833,21.433c0.013-0.049,0.012-0.109,0.04-0.146
		c0.062-0.082,0.125-0.057,0.129,0.036c0.009,0.201,0.058,0.415-0.127,0.575C96.861,21.743,96.847,21.587,96.833,21.433z"/>
	<path fill-rule="evenodd" clip-rule="evenodd" fill="#FEFEFE" d="M111.454,22.185c-0.652,2.086-1.296,2.578-3.429,2.361
		c-0.76-0.076-0.928,0.219-1.074,0.836c-0.072,0.306,0.094,0.889-0.492,0.875c-0.52-0.014-1.031-0.15-0.697-0.903
		c0.11-0.249,0.137-0.535,0.208-0.802c0.075-0.283-0.061-0.411-0.319-0.465c-0.25-0.053-0.505-0.123-0.598,0.229
		c-0.071,0.267-0.165,0.532-0.199,0.805c-0.063,0.508-0.244,0.72-0.814,0.58c-0.621-0.15-0.407-0.516-0.331-0.873
		c0.034-0.162,0.062-0.33,0.128-0.48c0.244-0.543,0.054-0.807-0.514-0.879c-0.245-0.031-0.502-0.08-0.72-0.189
		c-0.27-0.133-0.895,0.104-0.746-0.466c0.112-0.426,0.109-1.189,1.018-0.925c0.424,0.123,0.753-0.134,0.871-0.635
		c0.334-1.429,0.697-2.85,1.066-4.27c0.162-0.623,0.016-1.051-0.669-1.146c-0.553-0.077-0.543-0.379-0.448-0.819
		c0.104-0.481,0.351-0.557,0.759-0.406c0.104,0.039,0.211,0.067,0.318,0.095c1.328,0.335,1.347,0.341,1.699-0.973
		c0.11-0.409,0.257-0.556,0.685-0.453c0.427,0.103,0.632,0.28,0.475,0.741c-0.088,0.262-0.114,0.545-0.212,0.802
		c-0.135,0.353-0.022,0.511,0.331,0.579c0.322,0.062,0.539,0.023,0.587-0.361c0.031-0.246,0.135-0.482,0.168-0.727
		c0.068-0.508,0.314-0.607,0.803-0.498c0.532,0.119,0.482,0.4,0.352,0.772c-0.035,0.104-0.033,0.224-0.08,0.321
		c-0.297,0.644-0.162,1.012,0.562,1.283c0.829,0.31,1.491,0.884,1.511,1.889c0.019,0.95-0.391,1.652-1.369,2.068
		c0.642,0.406,1.043,0.928,1.182,1.623C111.599,21.916,111.612,22.052,111.454,22.185z"/>
	<path fill-rule="evenodd" clip-rule="evenodd" fill="#F69116" d="M109.114,24.871c-0.365,0-0.732,0-1.098,0
		c0-0.028-0.001-0.056-0.001-0.084c0.371,0,0.741,0,1.111,0C109.122,24.815,109.118,24.842,109.114,24.871z"/>
	<path fill-rule="evenodd" clip-rule="evenodd" fill="#F68D0D" d="M111.454,22.185c0.004-0.137,0.008-0.273,0.012-0.41
		c0.158-0.041,0.25,0.234,0.177,0.544c-0.028,0.124-0.093,0.089-0.141,0.018C111.474,22.294,111.469,22.236,111.454,22.185z"/>
	<path fill-rule="evenodd" clip-rule="evenodd" fill="#F6931B" d="M107.422,22.939c-1.874-0.063-1.898-0.162-1.539-1.938
		c0.18-0.889,0.553-0.99,1.266-0.691c0.47,0.197,0.945,0.313,1.363,0.694c0.427,0.39,0.65,0.731,0.451,1.26
		c-0.206,0.543-0.684,0.671-1.211,0.675C107.643,22.941,107.532,22.94,107.422,22.939z"/>
	<path fill-rule="evenodd" clip-rule="evenodd" fill="#F6931B" d="M107.165,19.058c-0.615,0.03-0.808-0.231-0.57-0.809
		c0.052-0.126,0.028-0.291,0.098-0.399c0.233-0.361-0.082-1.04,0.565-1.13c0.694-0.098,1.966,0.662,2.106,1.208
		c0.131,0.509-0.012,0.927-0.549,1.133C108.265,19.108,107.715,19.036,107.165,19.058z"/>
	<path fill-rule="evenodd" clip-rule="evenodd" fill="#F68E0F" d="M107.165,19.058c0.551-0.233,1.102-0.238,1.651,0.003
		C108.265,19.357,107.715,19.226,107.165,19.058z"/>
</g>
<rect x="92.782" y="89.292" fill="#AFAFAF" width="109" height="77"/>
<rect x="92.981" y="117.562" fill="none" width="109.256" height="49.109"/>
<text transform="matrix(1 0 0 1 107.083 141.0615)" fill="#A52020" font-family="'Raleway'" font-size="19.8649">Refund A</text>
<rect x="97.947" y="93.833" fill="none" width="103.739" height="12.141"/>
<text transform="matrix(1 0 0 1 119.9482 103.875)" enable-background="new    "><tspan x="0" y="0" fill="#FFFFFF" font-family="'Raleway'" font-size="11">BITCOIN</tspan><tspan x="0" y="13.2" fill="#FFFFFF" font-family="'Raleway'" font-size="11">TRANSACTION</tspan></text>
<g>
	<g>
		<path fill="#666666" d="M48.769,152.327c0,7.194,0,12.897,0,12.897H5.972c0,0,0-5.702,0-12.897v-17.365
			c0-7.192,6.107-14.063,13.3-14.063h17.366c7.195,0,12.131,6.87,12.131,14.063V152.327L48.769,152.327z"/>
		<circle fill="#666666" cx="27.775" cy="103.306" r="15.014"/>
	</g>
	<rect x="7.532" y="137.208" fill="none" width="40.483" height="28.254"/>
	<text transform="matrix(1 0 0 1 10.5107 148.2891)" fill="#FFFFFF" font-family="'Raleway'" font-size="15.1811">Alice</text>
</g>
<g>
	<g>
		<polyline fill="none" stroke="#808080" stroke-width="4" stroke-miterlimit="10" points="286.732,45.645 266.211,45.645 
			266.211,129.168 282.039,129.168 		"/>
		<polygon fill="#808080" stroke="#808080" stroke-width="2" stroke-miterlimit="10" points="276.498,123.73 276.145,134.596 
			285.732,129.469 		"/>
	</g>
</g>
<g>
	<line fill="none" stroke="#808080" stroke-width="4" stroke-miterlimit="10" x1="420.45" y1="124.723" x2="438.45" y2="124.723"/>
	<polygon fill="#808080" stroke="#808080" stroke-width="2" stroke-miterlimit="10" points="432.909,130.162 432.556,119.295 
		442.142,124.422 	"/>
</g>
<rect x="304.314" y="3.545" fill="#AFAFAF" width="109" height="77"/>
<rect x="304.514" y="31.814" fill="none" width="109.256" height="49.11"/>
<text transform="matrix(1 0 0 1 314.6152 55.3149)" fill="#0071BC" font-family="'Raleway'" font-size="19.8649">Deposit B</text>
<rect x="309.479" y="8.086" fill="none" width="103.738" height="12.14"/>
<text transform="matrix(1 0 0 1 331.4805 18.1284)" enable-background="new    "><tspan x="0" y="0" fill="#FFFFFF" font-family="'Raleway'" font-size="11">LITECOIN</tspan><tspan x="0" y="13.2" fill="#FFFFFF" font-family="'Raleway'" font-size="11">TRANSACTION</tspan></text>
<g>
	<path fill-rule="evenodd" clip-rule="evenodd" fill="#3D3E3C" d="M318.132,9.603c0.662,0,1.324,0,1.987,0
		c0.334,0.064,0.675,0.053,1.013,0.086c1.272,0.127,2.417,0.621,3.496,1.266c2.516,1.504,4.162,3.682,4.937,6.512
		c0.146,0.536,0.149,1.094,0.171,1.646c0.019,0.142-0.039,0.289,0.036,0.427c0,0.474,0,0.946,0,1.419
		c-0.072,0.117-0.02,0.247-0.036,0.37c0.011,1.662-0.563,3.14-1.416,4.533c-1.031,1.685-2.434,2.979-4.176,3.888
		c-1.211,0.631-2.484,1.064-3.885,1.088c-1.017,0.017-2.03,0.035-3.041-0.056c-1.1-0.099-2.107-0.521-3.078-1.014
		c-1.038-0.526-1.973-1.214-2.777-2.06c-1.311-1.379-2.243-2.976-2.698-4.832c-0.124-0.504-0.133-1.027-0.149-1.545
		c-0.017-0.124,0.037-0.254-0.035-0.373c0-0.496,0-0.993,0-1.49c0.072-0.115,0.019-0.244,0.035-0.365
		c-0.013-1.65,0.554-3.121,1.398-4.505c1.041-1.706,2.46-3.018,4.225-3.938c1.193-0.623,2.452-1.054,3.826-1.021
		C318.022,9.64,318.083,9.648,318.132,9.603z"/>
	<path fill-rule="evenodd" clip-rule="evenodd" fill="#9C9D9C" d="M329.71,19.105c0.021-0.005,0.042-0.002,0.062,0.008
		c0,0.142,0,0.284,0,0.426C329.668,19.406,329.694,19.255,329.71,19.105z"/>
	<path fill-rule="evenodd" clip-rule="evenodd" fill="#9C9D9C" d="M308.479,19.113c0.02-0.01,0.04-0.013,0.061-0.008
		c0.019,0.128,0.043,0.256-0.061,0.362C308.479,19.35,308.479,19.231,308.479,19.113z"/>
	<path fill-rule="evenodd" clip-rule="evenodd" fill="#9C9D9C" d="M308.54,21.321l-0.031,0.002l-0.029-0.01c0-0.119,0-0.236,0-0.355
		C308.583,21.065,308.559,21.194,308.54,21.321z"/>
	<path fill-rule="evenodd" clip-rule="evenodd" fill="#9C9D9C" d="M329.771,21.313l-0.03,0.009l-0.031-0.001
		c-0.019-0.127-0.043-0.256,0.062-0.363C329.771,21.077,329.771,21.194,329.771,21.313z"/>
	<path fill-rule="evenodd" clip-rule="evenodd" fill="#F5F6F7" d="M319.13,29.483c-5.064,0.127-9.332-4.215-9.334-9.266
		c-0.002-5.059,4.269-9.299,9.324-9.302c5.064-0.003,9.351,4.247,9.334,9.328C328.438,25.278,324.182,29.606,319.13,29.483z"/>
	<path fill-rule="evenodd" clip-rule="evenodd" fill="#F5F6F7" d="M319.175,11.164c5.039,0.022,9.17,4.048,9.101,9.246
		c-0.064,4.879-4.021,9.028-9.329,8.92c-4.865-0.1-8.949-4.023-8.896-9.194C310.103,15.188,314.067,11.187,319.175,11.164z"/>
	<path fill-rule="evenodd" clip-rule="evenodd" fill="#F7F8F8" d="M321.396,28.766c-0.296,0.241-0.669,0.229-1.01,0.271
		c-2.536,0.314-4.827-0.295-6.829-1.898c-1.826-1.463-2.893-3.381-3.218-5.684c-0.307-2.162,0.144-4.195,1.341-6.021
		c1.409-2.147,3.402-3.461,5.944-3.921c1.396-0.252,2.78-0.18,4.127,0.242c1.89,0.592,3.451,1.67,4.621,3.288
		c0.545,0.753,0.948,1.577,1.262,2.448c0.057,0.158,0.09,0.318,0.078,0.486c-0.062,0.09-0.101,0.209-0.247,0.184
		c-0.284-0.204-0.212-0.561-0.352-0.826c-0.011-0.135-0.05-0.259-0.146-0.359c-0.075-0.109-0.098-0.24-0.145-0.361
		c-0.027-0.141-0.092-0.264-0.191-0.368c-0.184-0.265-0.36-0.534-0.512-0.819c-0.025-0.104-0.072-0.196-0.151-0.271
		c-0.021-0.021-0.04-0.044-0.057-0.069c-0.044-0.098-0.115-0.169-0.205-0.225c-0.106-0.092-0.209-0.188-0.286-0.307
		c-0.042-0.098-0.095-0.188-0.192-0.243c-0.038-0.026-0.07-0.06-0.098-0.097c-0.055-0.096-0.142-0.151-0.241-0.191
		c-0.119-0.076-0.214-0.179-0.305-0.285c-0.058-0.086-0.123-0.164-0.223-0.205c-0.025-0.016-0.049-0.033-0.07-0.055
		c-0.071-0.078-0.16-0.127-0.263-0.153c-0.098-0.021-0.164-0.085-0.227-0.155c-0.086-0.121-0.211-0.172-0.35-0.201
		c-0.311-0.199-0.66-0.316-0.983-0.488c-0.101-0.098-0.224-0.141-0.36-0.151c-0.517-0.165-1.043-0.298-1.569-0.426
		c-0.122-0.044-0.247-0.069-0.378-0.065c-0.058-0.001-0.115-0.003-0.171-0.02c-0.555-0.083-1.109-0.084-1.663,0.001
		c-0.057,0.016-0.114,0.018-0.172,0.019c-0.132-0.006-0.258,0.022-0.383,0.062c-0.547,0.045-1.049,0.259-1.565,0.416
		c-0.132,0.028-0.261,0.067-0.374,0.146c-0.315,0.18-0.669,0.281-0.969,0.49c-0.131,0.049-0.263,0.099-0.363,0.203
		c-0.077,0.053-0.143,0.123-0.228,0.164c-0.123,0.043-0.21,0.136-0.306,0.217c-1.087,0.846-1.932,1.89-2.505,3.14
		c-0.326,0.712-0.633,1.438-0.687,2.237c-0.045,0.119-0.066,0.242-0.063,0.369c-0.001,0.076,0,0.152-0.018,0.228
		c-0.084,0.493-0.084,0.985,0,1.478c0.018,0.076,0.017,0.153,0.018,0.23c-0.005,0.131,0.024,0.258,0.065,0.381
		c0.028,0.551,0.215,1.061,0.401,1.57c0.041,0.129,0.075,0.26,0.151,0.373c0.037,0.125,0.107,0.235,0.16,0.354
		c0.032,0.141,0.105,0.26,0.196,0.37c0.128,0.292,0.306,0.553,0.483,0.814c0.051,0.093,0.095,0.19,0.179,0.261
		c0.021,0.021,0.04,0.045,0.057,0.07c0.041,0.098,0.115,0.172,0.19,0.244c0.081,0.113,0.187,0.201,0.286,0.297
		c0.053,0.092,0.105,0.184,0.2,0.24c0.037,0.027,0.069,0.061,0.098,0.097c0.057,0.095,0.146,0.149,0.24,0.2
		c0.094,0.099,0.182,0.203,0.293,0.284c0.073,0.072,0.141,0.15,0.24,0.19c0.026,0.014,0.05,0.031,0.071,0.053
		c0.068,0.08,0.154,0.134,0.25,0.174c0.076,0.05,0.154,0.098,0.226,0.154c0.099,0.103,0.229,0.152,0.354,0.209
		c0.313,0.181,0.634,0.342,0.966,0.482c0.116,0.073,0.245,0.116,0.377,0.152c0.508,0.192,1.02,0.371,1.568,0.408
		c0.126,0.036,0.252,0.068,0.385,0.063c0.058,0,0.116,0.002,0.173,0.018c0.555,0.086,1.11,0.084,1.665,0.001
		c0.056-0.017,0.113-0.019,0.171-0.019c0.132,0.004,0.259-0.021,0.383-0.063c0.168-0.025,0.326-0.105,0.502-0.078
		C321.226,28.514,321.367,28.561,321.396,28.766z"/>
	<path fill-rule="evenodd" clip-rule="evenodd" fill="#F8F9F9" d="M321.396,28.766c-0.109-0.069-0.212-0.158-0.355-0.142
		c-0.068-0.068-0.136-0.137-0.079-0.244c0.099-0.115,0.239-0.141,0.374-0.184c3.134-0.965,5.116-3.027,5.901-6.217
		c0.129-0.524,0.202-1.064,0.188-1.61c-0.006-0.222-0.03-0.449,0.058-0.665c0.226-0.303,0.008-0.613,0.017-0.919
		c0.005-0.222-0.212-0.444,0-0.665c0.071-0.048,0.142-0.096,0.213-0.143c0.177,0.818,0.319,1.643,0.282,2.484
		c-0.093,2.107-0.779,3.973-2.189,5.575C324.604,27.401,323.134,28.289,321.396,28.766z"/>
	<path fill-rule="evenodd" clip-rule="evenodd" fill="#F9F9FA" d="M327.5,18.12c0.062,0.388,0.123,0.775,0.187,1.164
		c0.028,0.173,0.072,0.348-0.115,0.468c-0.189-0.114-0.193-0.31-0.218-0.497c-0.213-1.637-0.857-3.1-1.92-4.348
		c-1.251-1.473-2.865-2.4-4.764-2.734c-3.076-0.543-5.682,0.424-7.757,2.717c-1.117,1.232-1.745,2.74-1.947,4.406
		c-0.288,2.379,0.415,4.481,1.923,6.285c1.371,1.641,3.186,2.555,5.315,2.833c0.793,0.104,1.576,0.069,2.361-0.06
		c0.138-0.021,0.283-0.055,0.405,0.057c0.023,0.07,0.047,0.142,0.07,0.213c-0.165,0.023-0.331,0.047-0.496,0.07
		c-0.106,0.086-0.249-0.016-0.355,0.071c-0.047,0-0.095,0-0.142,0c-0.592,0.059-1.183,0.059-1.774,0c-0.047,0-0.095,0-0.142,0
		c-0.106-0.087-0.249,0.015-0.355-0.071c-0.574-0.023-1.114-0.184-1.632-0.426c-0.112-0.063-0.243-0.08-0.355-0.142
		c-0.353-0.122-0.686-0.284-0.993-0.497c-0.107-0.089-0.247-0.124-0.354-0.213c-0.071-0.047-0.143-0.095-0.214-0.143
		c-0.099-0.064-0.184-0.148-0.283-0.213s-0.186-0.146-0.284-0.213c-0.119-0.069-0.214-0.164-0.284-0.283
		c-0.099-0.064-0.185-0.148-0.283-0.213c-0.024-0.023-0.048-0.047-0.071-0.071c-0.065-0.099-0.147-0.185-0.213-0.284
		c-0.119-0.069-0.214-0.164-0.284-0.283c-0.065-0.1-0.147-0.186-0.213-0.284c-0.064-0.1-0.148-0.185-0.213-0.284
		c-0.204-0.262-0.395-0.53-0.497-0.852c-0.089-0.107-0.123-0.248-0.213-0.354c-0.047-0.118-0.095-0.237-0.142-0.354
		c-0.063-0.113-0.079-0.243-0.142-0.355c-0.242-0.518-0.402-1.058-0.426-1.633c-0.087-0.105,0.015-0.248-0.071-0.354
		c0-0.071,0-0.142,0-0.213c-0.058-0.521-0.058-1.041,0-1.562c0-0.07,0-0.142,0-0.213c0.086-0.105-0.016-0.249,0.071-0.354
		c0.059-0.991,0.459-1.874,0.913-2.727c0.576-1.082,1.357-2.007,2.352-2.739c0.099-0.064,0.186-0.146,0.283-0.213
		c0.071-0.047,0.143-0.094,0.214-0.141c0.106-0.09,0.247-0.124,0.354-0.213c0.305-0.219,0.665-0.327,0.993-0.498
		c0.112-0.063,0.243-0.078,0.355-0.142c0.536-0.173,1.058-0.401,1.632-0.426c0.106-0.086,0.249,0.016,0.355-0.071
		c0.047,0,0.095,0,0.142,0c0.592-0.059,1.183-0.059,1.774,0c0.047,0,0.095,0,0.142,0c0.106,0.087,0.249-0.015,0.355,0.071
		c0.544,0.142,1.088,0.284,1.632,0.426c0.112,0.063,0.243,0.08,0.355,0.142c0.331,0.166,0.662,0.332,0.993,0.498
		c0.107,0.088,0.247,0.124,0.354,0.213c0.045,0.086,0.116,0.133,0.214,0.141c0.099,0.066,0.185,0.148,0.283,0.213
		c0.1,0.065,0.185,0.149,0.284,0.214c0.07,0.119,0.164,0.214,0.284,0.284c0.099,0.064,0.185,0.147,0.283,0.213
		c0.024,0.023,0.048,0.047,0.071,0.07c0.064,0.1,0.147,0.186,0.213,0.284c0.07,0.119,0.165,0.214,0.284,0.284
		c0.064,0.1,0.148,0.184,0.213,0.283s0.147,0.186,0.213,0.284c0.12,0.31,0.335,0.565,0.497,0.852
		c0.089,0.107,0.123,0.248,0.213,0.354c0.028,0.126,0.053,0.254,0.142,0.355c0.062,0.112,0.079,0.242,0.142,0.354
		C327.319,17.549,327.334,17.859,327.5,18.12z"/>
	<path fill-rule="evenodd" clip-rule="evenodd" fill="#F8F9F9" d="M320.048,11.731c-0.592,0-1.183,0-1.774,0
		C318.865,11.617,319.456,11.617,320.048,11.731z"/>
	<path fill-rule="evenodd" clip-rule="evenodd" fill="#F8F9F9" d="M318.273,28.766c0.592,0,1.183,0,1.774,0
		C319.456,28.88,318.865,28.88,318.273,28.766z"/>
	<path fill-rule="evenodd" clip-rule="evenodd" fill="#F8F9F9" d="M310.608,19.468c0,0.521,0,1.041,0,1.562
		C310.492,20.509,310.492,19.988,310.608,19.468z"/>
	<path fill-rule="evenodd" clip-rule="evenodd" fill="#F8F9F9" d="M311.389,23.939c0.137,0.079,0.187,0.21,0.213,0.354
		C311.466,24.215,311.415,24.085,311.389,23.939z"/>
	<path fill-rule="evenodd" clip-rule="evenodd" fill="#F8F9F9" d="M326.933,16.558c-0.137-0.078-0.187-0.209-0.213-0.354
		C326.855,16.282,326.906,16.413,326.933,16.558z"/>
	<path fill-rule="evenodd" clip-rule="evenodd" fill="#F8F9F9" d="M314.441,27.417c0.145,0.026,0.275,0.076,0.354,0.213
		C314.65,27.604,314.521,27.554,314.441,27.417z"/>
	<path fill-rule="evenodd" clip-rule="evenodd" fill="#F8F9F9" d="M323.88,13.081c-0.145-0.027-0.275-0.078-0.354-0.213
		C323.671,12.894,323.801,12.944,323.88,13.081z"/>
	<path fill-rule="evenodd" clip-rule="evenodd" fill="#F8F9F9" d="M314.796,12.868c-0.079,0.135-0.21,0.186-0.354,0.213
		C314.521,12.944,314.65,12.894,314.796,12.868z"/>
	<path fill-rule="evenodd" clip-rule="evenodd" fill="#F8F9F9" d="M325.513,14.5c-0.112-0.063-0.198-0.147-0.213-0.284
		C325.412,14.279,325.499,14.362,325.513,14.5z"/>
	<path fill-rule="evenodd" clip-rule="evenodd" fill="#F8F9F9" d="M327.216,17.268c-0.105-0.095-0.143-0.218-0.142-0.354
		C327.18,17.008,327.217,17.13,327.216,17.268z"/>
	<path fill-rule="evenodd" clip-rule="evenodd" fill="#F8F9F9" d="M322.532,12.37c-0.138,0.001-0.261-0.035-0.355-0.142
		C322.314,12.228,322.437,12.265,322.532,12.37z"/>
	<path fill-rule="evenodd" clip-rule="evenodd" fill="#F8F9F9" d="M316.145,12.229c-0.095,0.106-0.218,0.143-0.355,0.142
		C315.885,12.265,316.007,12.228,316.145,12.229z"/>
	<path fill-rule="evenodd" clip-rule="evenodd" fill="#F8F9F9" d="M314.228,13.222c-0.063,0.113-0.146,0.199-0.283,0.213
		C314.008,13.323,314.091,13.236,314.228,13.222z"/>
	<path fill-rule="evenodd" clip-rule="evenodd" fill="#F8F9F9" d="M312.099,25.146c0.112,0.064,0.199,0.146,0.213,0.284
		C312.199,25.366,312.113,25.283,312.099,25.146z"/>
	<path fill-rule="evenodd" clip-rule="evenodd" fill="#F8F9F9" d="M312.312,25.43c0.112,0.063,0.199,0.146,0.213,0.284
		C312.412,25.649,312.326,25.567,312.312,25.43z"/>
	<path fill-rule="evenodd" clip-rule="evenodd" fill="#F8F9F9" d="M324.377,13.435c-0.137-0.014-0.22-0.1-0.283-0.213
		C324.23,13.236,324.313,13.323,324.377,13.435z"/>
	<path fill-rule="evenodd" clip-rule="evenodd" fill="#F8F9F9" d="M312.809,25.997c0.112,0.064,0.198,0.146,0.213,0.284
		C312.909,26.218,312.823,26.135,312.809,25.997z"/>
	<path fill-rule="evenodd" clip-rule="evenodd" fill="#F8F9F9" d="M311.105,23.229c0.105,0.095,0.143,0.218,0.142,0.355
		C311.142,23.489,311.104,23.367,311.105,23.229z"/>
	<path fill-rule="evenodd" clip-rule="evenodd" fill="#F8F9F9" d="M313.66,26.849c0.138,0.015,0.221,0.102,0.284,0.213
		C313.807,27.048,313.724,26.962,313.66,26.849z"/>
	<path fill-rule="evenodd" clip-rule="evenodd" fill="#F8F9F9" d="M313.944,27.062c0.137,0.015,0.22,0.102,0.283,0.213
		C314.091,27.261,314.008,27.175,313.944,27.062z"/>
	<path fill-rule="evenodd" clip-rule="evenodd" fill="#F8F9F9" d="M324.661,13.648c-0.138-0.015-0.221-0.101-0.284-0.214
		C324.515,13.45,324.598,13.536,324.661,13.648z"/>
	<path fill-rule="evenodd" clip-rule="evenodd" fill="#F8F9F9" d="M325.229,14.146c-0.137-0.015-0.22-0.102-0.283-0.213
		C325.082,13.946,325.165,14.032,325.229,14.146z"/>
	<path fill-rule="evenodd" clip-rule="evenodd" fill="#F8F9F9" d="M315.789,28.127c0.138-0.001,0.261,0.036,0.355,0.142
		C316.007,28.269,315.885,28.232,315.789,28.127z"/>
	<path fill-rule="evenodd" clip-rule="evenodd" fill="#F8F9F9" d="M326.01,15.067c-0.112-0.063-0.199-0.146-0.213-0.283
		C325.909,14.847,325.995,14.931,326.01,15.067z"/>
	<path fill-rule="evenodd" clip-rule="evenodd" fill="#F8F9F9" d="M326.223,15.352c-0.112-0.063-0.199-0.146-0.213-0.284
		C326.122,15.132,326.208,15.214,326.223,15.352z"/>
	<path fill-rule="evenodd" clip-rule="evenodd" fill="#F8F9F9" d="M313.093,26.353c0.137,0.014,0.22,0.101,0.283,0.213
		C313.239,26.552,313.156,26.465,313.093,26.353z"/>
	<path fill-rule="evenodd" clip-rule="evenodd" fill="#F8F9F9" d="M320.545,11.803c-0.122-0.007-0.252,0.026-0.355-0.071
		C320.312,11.739,320.441,11.706,320.545,11.803z"/>
	<path fill-rule="evenodd" clip-rule="evenodd" fill="#F8F9F9" d="M318.132,11.731c-0.104,0.098-0.233,0.064-0.355,0.071
		C317.88,11.706,318.01,11.739,318.132,11.731z"/>
	<path fill-rule="evenodd" clip-rule="evenodd" fill="#F8F9F9" d="M310.68,18.9c-0.008,0.122,0.025,0.251-0.071,0.354
		C310.615,19.134,310.582,19.004,310.68,18.9z"/>
	<path fill-rule="evenodd" clip-rule="evenodd" fill="#F8F9F9" d="M317.776,28.694c0.122,0.008,0.252-0.025,0.355,0.071
		C318.01,28.759,317.88,28.792,317.776,28.694z"/>
	<path fill-rule="evenodd" clip-rule="evenodd" fill="#F8F9F9" d="M320.189,28.766c0.104-0.097,0.233-0.063,0.355-0.071
		C320.441,28.792,320.312,28.759,320.189,28.766z"/>
	<path fill-rule="evenodd" clip-rule="evenodd" fill="#F8F9F9" d="M310.608,21.242c0.097,0.104,0.063,0.233,0.071,0.354
		C310.582,21.493,310.615,21.364,310.608,21.242z"/>
	<path fill-rule="evenodd" clip-rule="evenodd" fill="#FBFBFB" d="M320.971,28.411c-0.889,0.236-1.788,0.253-2.7,0.164
		c-1.323-0.131-2.533-0.579-3.642-1.285c-2.053-1.307-3.269-3.197-3.735-5.572c-0.425-2.16,0.055-4.156,1.206-5.994
		c1.149-1.834,2.823-3.002,4.898-3.559c2.819-0.757,5.38-0.116,7.603,1.705c1.681,1.377,2.624,3.224,2.901,5.393
		c0.021,0.163,0.046,0.326,0.069,0.489c0.066,1.567-0.218,3.063-0.983,4.44c-1.19,2.137-2.958,3.555-5.338,4.182
		C321.16,28.398,321.063,28.399,320.971,28.411z"/>
	<path fill-rule="evenodd" clip-rule="evenodd" fill="#FDFDFD" d="M323.384,13.648c0.047,0.023,0.095,0.047,0.142,0.071
		c0.156,0.101,0.324,0.188,0.426,0.354c0.106,0.056,0.225,0.095,0.284,0.213c0.602,0.448,1.092,0.999,1.49,1.632
		c0.023,0.048,0.048,0.096,0.071,0.143c0.155,0.151,0.237,0.35,0.342,0.533c0.498,0.988,0.808,2.021,0.874,3.137
		c0.077,1.285-0.129,2.502-0.643,3.678c-0.67,1.534-1.74,2.715-3.16,3.576c-1.042,0.631-2.178,0.965-3.398,1.085
		c-1.129,0.11-2.196-0.077-3.257-0.413c-0.135-0.041-0.267-0.093-0.41-0.098c-0.211-0.171-0.485-0.213-0.71-0.355l0,0
		c-0.728-0.416-1.396-0.905-1.981-1.512c-0.503-0.521-0.915-1.099-1.256-1.732c-0.496-0.975-0.814-1.992-0.891-3.096
		c-0.074-1.082,0.053-2.125,0.383-3.15c0.285-0.886,0.748-1.674,1.325-2.398c0.085-0.07,0.158-0.166,0.291-0.125
		c0.123,0.158,0.004,0.274-0.067,0.402c-0.134,0.24-0.396,0.389-0.468,0.671c-0.363,0.691-0.698,1.394-0.901,2.153
		c-0.128,0.465-0.193,0.94-0.203,1.424c-0.026,0.148-0.099,0.295-0.035,0.452c0.016,0.033,0.026,0.067,0.036,0.102
		c0.015,0.513,0.031,1.024,0.22,1.511c0.038,0.602,0.32,1.127,0.524,1.677c0.253,0.542,0.629,1.005,0.971,1.491
		c0.476,0.447,0.917,0.932,1.473,1.288c0.501,0.38,1.059,0.654,1.642,0.884c0.173,0.068,0.353-0.002,0.522,0.055
		c0.137,0.143,0.327,0.122,0.495,0.157c1.972,0.407,3.825,0.104,5.547-0.944c0.732-0.445,1.364-1.012,1.892-1.688
		c0.167-0.214,0.358-0.407,0.529-0.616c0.48-0.655,0.826-1.367,0.91-2.188c0.024-0.498,0.168-0.981,0.19-1.48
		c0.015-0.149,0.107-0.285,0.079-0.443c-0.026-0.551-0.089-1.096-0.242-1.628c-0.196-0.521-0.406-1.038-0.584-1.567
		c-0.194-0.57-0.579-1.02-0.953-1.475c-0.477-0.442-0.935-0.904-1.44-1.313c-0.639-0.52-1.369-0.842-2.168-1.019
		c-0.568-0.157-1.151-0.231-1.734-0.305c-0.279-0.099-0.559-0.097-0.838,0.002c-0.375-0.015-0.743,0.183-1.124,0.045
		c-0.112-0.128-0.04-0.214,0.068-0.291c0.033-0.017,0.069-0.028,0.106-0.03c0.126,0,0.252-0.008,0.368-0.065
		c0.035-0.005,0.07-0.008,0.105-0.009c0.193-0.002,0.388,0.013,0.574-0.057c0.036-0.008,0.071-0.013,0.107-0.014
		c0.184-0.002,0.367-0.002,0.552,0c0.037,0,0.073,0.004,0.11,0.01c0.176,0.089,0.365,0.051,0.549,0.061
		c1.028,0.154,2.012,0.446,2.918,0.967C323.158,13.479,323.29,13.536,323.384,13.648z"/>
	<path fill-rule="evenodd" clip-rule="evenodd" fill="#FCFCFD" d="M316.145,27.56c0.325-0.109,0.596,0.098,0.882,0.174
		c2.657,0.701,5.066,0.188,7.175-1.547c1.568-1.289,2.489-2.998,2.712-5.021c0.163-1.475-0.038-2.923-0.703-4.279
		c-0.051-0.105-0.087-0.219-0.129-0.328c0.023-0.025,0.047-0.025,0.07,0c0.246,0.185,0.283,0.486,0.391,0.74
		c0.39,0.922,0.606,1.902,0.589,2.895c-0.035,2.092-0.721,3.946-2.184,5.488c-1.285,1.354-2.857,2.146-4.689,2.425
		C318.84,28.321,317.464,28.134,316.145,27.56z"/>
	<path fill-rule="evenodd" clip-rule="evenodd" fill="#FCFCFD" d="M313.093,15.352c-0.724,0.819-1.189,1.774-1.486,2.819
		c-0.198,0.697-0.264,1.42-0.269,2.131c-0.006,0.99,0.166,1.97,0.565,2.893c0.116,0.271,0.226,0.544,0.338,0.816
		c-0.024,0.031-0.048,0.031-0.071,0c-0.507-0.883-0.791-1.84-0.917-2.841c-0.159-1.261,0.009-2.487,0.451-3.677
		c0.655-1.758,1.811-3.097,3.404-4.068c0.099-0.061,0.217-0.088,0.326-0.131c0.007,0.015,0.014,0.03,0.021,0.046
		c-0.012,0.188-0.18,0.244-0.302,0.316c-0.583,0.342-1.115,0.746-1.568,1.247C313.435,15.07,313.206,15.147,313.093,15.352z"/>
	<path fill-rule="evenodd" clip-rule="evenodd" fill="#FCFCFD" d="M323.384,13.648c-0.336-0.163-0.672-0.327-1.009-0.49
		c-0.715-0.345-1.481-0.509-2.256-0.646c-0.181-0.096-0.388,0.025-0.568-0.071c-0.023,0-0.047,0-0.07,0
		c-0.213-0.056-0.427-0.056-0.64,0c-0.205,0.095-0.434-0.023-0.639,0.071c-0.023,0-0.047,0-0.07,0
		c-0.106,0.086-0.249-0.016-0.355,0.07c-0.023,0-0.047,0-0.07,0c-0.645,0.298-1.355,0.42-1.985,0.754
		c-0.1,0.053-0.204,0.055-0.286-0.043l0,0c0.185-0.247,0.485-0.288,0.74-0.391c0.994-0.4,2.035-0.628,3.108-0.596
		c1.39,0.041,2.703,0.396,3.911,1.104C323.291,13.468,323.372,13.528,323.384,13.648z"/>
	<path fill-rule="evenodd" clip-rule="evenodd" fill="#FCFCFD" d="M312.17,24.011c0.023,0,0.047,0,0.071,0
		c0.429,0.605,0.815,1.239,1.36,1.76c0.464,0.443,0.952,0.845,1.505,1.171c0.119,0.07,0.255,0.131,0.328,0.263
		c-0.562-0.183-1.01-0.556-1.441-0.929C313.251,25.635,312.605,24.903,312.17,24.011z"/>
	<path fill-rule="evenodd" clip-rule="evenodd" fill="#FCFCFD" d="M325.726,15.919c-0.497-0.544-0.993-1.088-1.49-1.632
		c0.035,0.003,0.081-0.008,0.104,0.011C324.907,14.747,325.468,15.204,325.726,15.919z"/>
	<path fill-rule="evenodd" clip-rule="evenodd" fill="#FCFCFD" d="M315.435,27.204c0.27,0.053,0.532,0.119,0.71,0.355
		C315.9,27.456,315.614,27.437,315.435,27.204z"/>
	<path fill-rule="evenodd" clip-rule="evenodd" fill="#FCFCFD" d="M326.151,16.558c-0.023,0-0.047,0-0.07,0
		c-0.13-0.146-0.252-0.295-0.284-0.496C326.058,16.124,326.081,16.358,326.151,16.558z"/>
	<path fill-rule="evenodd" clip-rule="evenodd" fill="#FCFCFD" d="M323.951,14.074c-0.176-0.077-0.328-0.184-0.426-0.354
		C323.746,13.743,323.929,13.813,323.951,14.074z"/>
	<path fill-rule="evenodd" clip-rule="evenodd" fill="#FEFEFE" d="M326.495,18.399c0.265,0.364,0.212,0.806,0.29,1.213
		c0.03,0.16,0.005,0.33,0.005,0.494c-0.055,0.055-0.083,0.131-0.151,0.172c-0.447,0.299-0.97,0.419-1.461,0.607
		c-0.868,0.333-1.755,0.619-2.612,0.978c-0.912,0.382-1.859,0.36-2.813,0.329c-0.06-0.002-0.114-0.025-0.16-0.066
		c-0.161-0.213-0.055-0.425,0.002-0.637c0.057-0.215,0.083-0.439,0.212-0.629c0.271-0.271,0.646-0.33,0.981-0.463
		c1.742-0.695,3.502-1.342,5.266-1.979C326.199,18.366,326.344,18.306,326.495,18.399z"/>
	<path fill-rule="evenodd" clip-rule="evenodd" fill="#B5B6B9" d="M325.558,24.29c-0.713,1.021-1.566,1.892-2.662,2.502
		c-1.796,1-3.696,1.232-5.687,0.746c-0.076-0.02-0.279,0.026-0.201-0.188c0.062-0.182,0.227-0.23,0.38-0.287
		c1.239-0.462,2.485-0.908,3.721-1.38c0.111-0.042,0.229-0.05,0.283-0.063c-0.308,0.062-0.682,0.029-1.053,0.03
		c-0.875,0.004-1.75,0.007-2.625-0.002c-0.17-0.002-0.366,0.032-0.45-0.188c0.075-0.178,0.235-0.182,0.389-0.182
		c1.454-0.01,2.908-0.032,4.361,0.012c0.47,0.014,0.942,0.037,1.413,0.057c0.343,0.014,0.575-0.083,0.643-0.447
		c0.017-0.094,0.063-0.179,0.124-0.253c0.306-0.255,0.688-0.347,1.052-0.47C325.345,24.144,325.526,24.054,325.558,24.29z"/>
	<path fill-rule="evenodd" clip-rule="evenodd" fill="#B5B6B9" d="M317.564,12.788c0.38-0.049,0.76-0.098,1.141-0.146
		c0.28-0.038,0.561-0.038,0.841,0.001c0.602,0.086,1.218,0.1,1.782,0.366c-0.008,0.249-0.224,0.271-0.385,0.343
		c-0.438,0.193-0.93,0.244-1.349,0.494c-0.633,0.055-1.268,0.025-1.901,0.021c-0.314-0.002-0.48,0.115-0.537,0.422
		c-0.033,0.183-0.063,0.373-0.203,0.516c-1.265,0.51-2.555,0.951-3.83,1.432c-0.147,0.056-0.318,0.129-0.444-0.057
		c0.133-0.378,0.484-0.61,0.646-0.969c0.253-0.467,0.676-0.77,1.076-1.085c0.82-0.647,1.75-1.085,2.762-1.345
		C317.293,12.749,317.433,12.669,317.564,12.788z"/>
	<path fill-rule="evenodd" clip-rule="evenodd" fill="#B5B6B9" d="M326.495,18.399c-1.79,0.667-3.582,1.33-5.371,2.002
		c-0.407,0.152-0.834,0.261-1.211,0.49c-0.164-0.283,0.044-0.416,0.237-0.521c0.248-0.134,0.518-0.231,0.788-0.308
		c0.287-0.079,0.432-0.256,0.495-0.532c0.077-0.332,0.165-0.662,0.25-0.992c0.038-0.148,0.081-0.297,0.21-0.398
		c1.14-0.455,2.299-0.858,3.448-1.289c0.19-0.071,0.396-0.195,0.594-0.002C326.158,17.354,326.387,17.854,326.495,18.399z"/>
	<path fill-rule="evenodd" clip-rule="evenodd" fill="#B5B6B9" d="M311.519,19.899c0.031-0.521,0.026-1.048,0.23-1.543
		c0.281-0.295,0.673-0.369,1.031-0.502c1.013-0.379,2.024-0.762,3.043-1.126c0.179-0.064,0.368-0.188,0.566-0.034
		c0.068,0.093,0.066,0.198,0.044,0.303c-0.12,0.549-0.276,1.088-0.431,1.627c-0.023,0.08-0.072,0.146-0.139,0.198
		c-1.293,0.565-2.632,1.011-3.956,1.496c-0.12,0.044-0.25,0.08-0.37-0.013v0.014C311.463,20.183,311.49,20.041,311.519,19.899z"/>
	<path fill-rule="evenodd" clip-rule="evenodd" fill="#FEFEFE" d="M316.349,16.695c-1.396,0.519-2.793,1.036-4.19,1.552
		c-0.132,0.049-0.272,0.073-0.409,0.109c0.186-0.778,0.504-1.5,0.929-2.176c0.611-0.096,1.156-0.387,1.733-0.584
		c0.714-0.244,1.415-0.525,2.124-0.782c0.099-0.035,0.206-0.144,0.323-0.026c0.098,0.076,0.106,0.184,0.081,0.289
		c-0.114,0.47-0.214,0.943-0.378,1.4C316.523,16.581,316.465,16.667,316.349,16.695z"/>
	<path fill-rule="evenodd" clip-rule="evenodd" fill="#FEFEFE" d="M317.271,25.489c1.109,0.008,2.219,0.018,3.329,0.024
		c0.421,0.003,0.842,0,1.276,0.06c-0.624,0.232-1.246,0.469-1.872,0.695c-0.998,0.363-1.998,0.722-2.996,1.082
		c-0.205,0.154-0.406,0.098-0.623,0.012c-0.461-0.183-0.897-0.408-1.318-0.667c-0.118-0.071-0.253-0.136-0.278-0.298
		c0.028-0.225,0.224-0.255,0.382-0.317c0.622-0.247,1.265-0.438,1.894-0.673C317.144,25.405,317.217,25.423,317.271,25.489z"/>
	<path fill-rule="evenodd" clip-rule="evenodd" fill="#FEFEFE" d="M325.936,16.85c-0.698,0.131-1.328,0.461-1.995,0.685
		c-0.557,0.187-1.104,0.406-1.656,0.605c-0.104,0.038-0.207,0.128-0.329,0.042c-0.211-0.275,0.029-0.538,0.026-0.831
		c-0.294,0.068-0.552,0.214-0.828,0.3c-0.378,0.118-0.523-0.015-0.431-0.4c0.048-0.204,0.084-0.421,0.272-0.562
		c0.911-0.438,1.885-0.717,2.822-1.086c0.219-0.086,0.437-0.174,0.66-0.246c0.149-0.047,0.297-0.072,0.447-0.011
		C325.415,15.744,325.748,16.248,325.936,16.85z"/>
	<path fill-rule="evenodd" clip-rule="evenodd" fill="#FEFEFE" d="M311.538,20.306c1.419-0.516,2.819-1.083,4.257-1.547
		c0.176,0.368,0.021,0.83-0.341,1.008c-0.158,0.078-0.326,0.144-0.495,0.182c-0.402,0.092-0.574,0.359-0.649,0.735
		c-0.043,0.217-0.075,0.443-0.249,0.609c-0.556,0.304-1.165,0.474-1.754,0.694c-0.163,0.063-0.334,0.135-0.484-0.032
		c-0.313-0.251-0.21-0.633-0.28-0.955C311.493,20.778,311.536,20.538,311.538,20.306z"/>
	<path fill-rule="evenodd" clip-rule="evenodd" fill="#B5B6B9" d="M319.616,22.094c0.507,0.001,1.014-0.005,1.52,0.007
		c0.318,0.008,0.598-0.113,0.884-0.221c1.545-0.573,3.09-1.146,4.635-1.72c0.188,0.089,0.082,0.238,0.077,0.367
		c-0.041,0.523-0.114,1.042-0.244,1.553c-0.029,0.114-0.119,0.172-0.218,0.213c-0.392,0.161-0.785,0.316-1.188,0.446
		c-0.122,0.04-0.254,0.087-0.346-0.063c-0.021-0.315-0.228-0.358-0.492-0.357c-1.381,0.005-2.762,0.005-4.143,0
		c-0.151-0.001-0.311,0.022-0.449-0.062C319.598,22.223,319.496,22.177,319.616,22.094z"/>
	<path fill-rule="evenodd" clip-rule="evenodd" fill="#B5B6B9" d="M324.925,15.346c-1.294,0.481-2.578,0.991-3.893,1.419
		c-0.085-0.063-0.119-0.157-0.099-0.25c0.134-0.604,0.229-1.221,0.518-1.779c0.535-0.35,1.149-0.506,1.741-0.718
		c0.11-0.04,0.23-0.038,0.332,0.046C324.067,14.407,324.521,14.849,324.925,15.346z"/>
	<path fill-rule="evenodd" clip-rule="evenodd" fill="#B5B6B9" d="M311.822,21.955c0.576-0.093,1.087-0.382,1.638-0.55
		c0.18-0.055,0.357-0.113,0.536-0.171c0.16,0.12,0.088,0.272,0.055,0.417c-0.074,0.328-0.175,0.652-0.241,1.022
		c0.271-0.031,0.478-0.154,0.702-0.202c0.118-0.025,0.244-0.047,0.32,0.074c0.081,0.129,0.047,0.247-0.077,0.338
		c-0.619,0.283-1.266,0.497-1.9,0.738c-0.174,0.066-0.357,0.136-0.538,0.009c-0.262-0.413-0.363-0.892-0.539-1.339
		C311.73,22.173,311.756,22.061,311.822,21.955z"/>
	<path fill-rule="evenodd" clip-rule="evenodd" fill="#FEFEFE" d="M312.316,23.631c0.658-0.235,1.316-0.473,1.975-0.707
		c0.142-0.051,0.276-0.128,0.435-0.12c0.085,0.063,0.116,0.157,0.093,0.248c-0.155,0.593-0.227,1.211-0.51,1.767
		c-0.304,0.195-0.613,0.381-0.999,0.327C312.899,24.692,312.522,24.218,312.316,23.631z"/>
	<path fill-rule="evenodd" clip-rule="evenodd" fill="#FEFEFE" d="M324.811,22.737c0.526-0.301,1.107-0.465,1.677-0.657
		c0.127,0.188,0,0.363-0.047,0.532c-0.149,0.533-0.413,1.019-0.669,1.506c-0.045,0.085-0.119,0.144-0.214,0.172
		c-0.306-0.051-0.536,0.168-0.812,0.227c-0.146,0.032-0.288,0.085-0.432,0.128c-0.128-0.099-0.102-0.237-0.073-0.358
		c0.101-0.436,0.226-0.865,0.349-1.296C324.623,22.872,324.681,22.772,324.811,22.737z"/>
	<path fill-rule="evenodd" clip-rule="evenodd" fill="#FEFEFE" d="M323.524,14.063c-0.659,0.238-1.318,0.477-1.978,0.716
		c-0.195-0.169-0.082-0.368-0.046-0.555c0.061-0.315,0.049-0.343-0.279-0.351c-0.398-0.008-0.797,0.004-1.195-0.006
		c-0.15-0.004-0.312,0.01-0.399-0.157c0.416-0.239,0.884-0.348,1.323-0.527c0.129-0.052,0.252-0.116,0.378-0.174
		C322.184,13.103,322.915,13.456,323.524,14.063z"/>
	<path fill-rule="evenodd" clip-rule="evenodd" fill="#B5B6B9" d="M313.31,25.146c0.27-0.195,0.598-0.249,0.9-0.363
		c0.04,0.028,0.067,0.065,0.077,0.113c0.095,0.447,0.095,0.448,0.545,0.449c0.6,0.003,1.198-0.004,1.798,0.005
		c0.16,0.003,0.337-0.022,0.439,0.154c-0.62,0.307-1.286,0.493-1.926,0.747c-0.119,0.047-0.236,0.098-0.354,0.146
		c-0.31,0-0.463-0.266-0.666-0.424C313.82,25.737,313.544,25.458,313.31,25.146z"/>
	<path fill-rule="evenodd" clip-rule="evenodd" fill="#FCFCFD" d="M317.564,12.788c-1.684,0.336-3.072,1.186-4.239,2.424
		c-0.077,0.047-0.155,0.093-0.232,0.14c0.334-0.548,0.835-0.929,1.316-1.333c0.323-0.271,0.733-0.414,1.025-0.725
		c0.563-0.127,1.048-0.469,1.618-0.578c0.218-0.041,0.426-0.135,0.653-0.133C317.658,12.651,317.611,12.72,317.564,12.788z"/>
	<path fill-rule="evenodd" clip-rule="evenodd" fill="#FCFCFD" d="M319.546,12.644c-0.28,0-0.561,0-0.841-0.001
		C318.985,12.55,319.266,12.55,319.546,12.644z"/>
	<path fill-rule="evenodd" clip-rule="evenodd" fill="#FCFCFD" d="M318.202,12.513c0.201-0.133,0.427-0.045,0.639-0.071
		C318.641,12.575,318.415,12.487,318.202,12.513z"/>
	<path fill-rule="evenodd" clip-rule="evenodd" fill="#FCFCFD" d="M318.841,12.441c0.213-0.108,0.427-0.108,0.64,0
		C319.268,12.441,319.054,12.441,318.841,12.441z"/>
	<path fill-rule="evenodd" clip-rule="evenodd" fill="#FCFCFD" d="M319.551,12.441c0.189,0.022,0.392-0.056,0.568,0.071
		C319.93,12.491,319.728,12.568,319.551,12.441z"/>
	<path fill-rule="evenodd" clip-rule="evenodd" fill="#FCFCFD" d="M326.731,20.527c-0.027-0.122,0.028-0.261-0.077-0.367
		c0.046-0.018,0.091-0.036,0.136-0.054C326.779,20.248,326.824,20.397,326.731,20.527z"/>
	<path fill-rule="evenodd" clip-rule="evenodd" fill="#FCFCFD" d="M311.519,19.899c0.007,0.14,0.014,0.279,0.02,0.42
		C311.426,20.185,311.438,20.043,311.519,19.899z"/>
	<path fill-rule="evenodd" clip-rule="evenodd" fill="#FCFCFD" d="M317.776,12.583c0.104-0.097,0.233-0.063,0.355-0.07
		C318.028,12.61,317.898,12.576,317.776,12.583z"/>
	<path fill-rule="evenodd" clip-rule="evenodd" fill="#3E3F3D" d="M317.069,25.504c-0.851-0.007-1.701-0.017-2.552-0.022
		c-0.476-0.003-0.476-0.001-0.362-0.457c0.02-0.08,0.036-0.162,0.055-0.242c0.172-0.659,0.344-1.318,0.516-1.979
		c0.056-0.068,0.092-0.164,0.049-0.228c-0.061-0.089-0.15,0.001-0.219,0.024c-0.31,0.107-0.614,0.227-0.993,0.367
		c0.153-0.614,0.294-1.174,0.434-1.733c0.097-0.337,0.205-0.672,0.285-1.013c0.037-0.16,0.112-0.242,0.264-0.284
		c0.146-0.042,0.281-0.132,0.429-0.151c0.607-0.084,0.78-0.5,0.821-1.027c0.185-0.688,0.369-1.375,0.554-2.063
		c0.17-0.636,0.34-1.271,0.51-1.907c0.07-0.259,0.157-0.516,0.208-0.778c0.044-0.224,0.14-0.302,0.376-0.297
		c0.728,0.015,1.456,0.001,2.185-0.002c0.705,0,1.41,0,2.158,0c-0.084,0.376-0.161,0.722-0.238,1.068
		c-0.204,0.653-0.392,1.311-0.515,1.985c-0.123,0.253-0.17,0.527-0.235,0.852c0.479-0.178,0.921-0.34,1.394-0.514
		c-0.017,0.396-0.191,0.725-0.235,1.079c-0.141,0.521-0.291,1.04-0.417,1.563c-0.053,0.22-0.158,0.342-0.375,0.407
		c-0.305,0.091-0.596,0.225-0.897,0.321c-0.216,0.068-0.346,0.186-0.353,0.418c-0.099,0.4-0.198,0.801-0.297,1.202
		c0.086,0.144,0.225,0.069,0.335,0.069c1.519,0.001,3.037-0.008,4.556-0.014c0.469-0.001,0.469,0.001,0.335,0.453
		c-0.013,0.043-0.021,0.09-0.031,0.135c-0.166,0.635-0.331,1.271-0.496,1.907c-0.005,0.011-0.011,0.021-0.015,0.032
		c-0.251,0.805-0.251,0.807-1.088,0.804c-1.841-0.008-3.682-0.02-5.522-0.027c-0.141-0.001-0.284-0.025-0.419,0.036
		C317.203,25.495,317.136,25.499,317.069,25.504z"/>
	<path fill-rule="evenodd" clip-rule="evenodd" fill="#FEFEFE" d="M314.876,24.858c0.188-0.984,0.5-1.938,0.736-2.908
		c0.033-0.135,0.065-0.268,0.109-0.448c-0.427,0.155-0.81,0.295-1.254,0.457c0.133-0.494,0.25-0.945,0.375-1.394
		c0.038-0.137,0.182-0.154,0.288-0.172c0.803-0.133,1.121-0.631,1.289-1.406c0.316-1.461,0.755-2.895,1.124-4.346
		c0.06-0.23,0.146-0.3,0.377-0.297c0.874,0.012,1.749,0.003,2.623,0.002c0.454,0,0.453,0,0.333,0.451
		c-0.311,1.174-0.62,2.348-0.93,3.521c-0.022,0.088-0.033,0.178-0.057,0.307c0.485-0.18,0.931-0.344,1.43-0.527
		c-0.126,0.482-0.241,0.909-0.349,1.339c-0.026,0.106-0.084,0.161-0.186,0.187c-0.046,0.01-0.088,0.034-0.132,0.052
		c-0.391,0.16-0.902,0.181-1.151,0.489c-0.237,0.294-0.25,0.771-0.358,1.168c-0.097,0.354-0.165,0.715-0.287,1.058
		c-0.121,0.338-0.001,0.38,0.308,0.376c1.524-0.014,3.049-0.006,4.573-0.006c0.415,0,0.415,0,0.303,0.42
		c-0.149,0.559-0.298,1.116-0.446,1.674c-0.083,0.069-0.182,0.041-0.272,0.041c-2.725,0.002-5.448,0.002-8.173,0.001
		C315.058,24.896,314.96,24.922,314.876,24.858z"/>
	<path fill-rule="evenodd" clip-rule="evenodd" fill="#3B3D3D" d="M314.876,24.858c2.906-0.002,5.813-0.002,8.719-0.004
		c-0.107,0.105-0.243,0.078-0.37,0.078c-2.693,0-5.387,0.001-8.08-0.004C315.058,24.929,314.932,25.004,314.876,24.858z"/>
</g>
<rect x="304.514" y="89.292" fill="#AFAFAF" width="109" height="77"/>
<rect x="304.713" y="117.562" fill="none" width="109.256" height="49.109"/>
<text transform="matrix(1 0 0 1 318.8145 141.0615)" fill="#A52020" font-family="'Raleway'" font-size="19.8649">Refund B</text>
<rect x="309.679" y="93.833" fill="none" width="103.739" height="12.141"/>
<text transform="matrix(1 0 0 1 331.6797 103.876)" enable-background="new    "><tspan x="0" y="0" fill="#FFFFFF" font-family="'Raleway'" font-size="11">LITECOIN</tspan><tspan x="0" y="13.199" fill="#FFFFFF" font-family="'Raleway'" font-size="11">TRANSACTION</tspan></text>
<g>
	<path fill-rule="evenodd" clip-rule="evenodd" fill="#3D3E3C" d="M318.501,95.519c0.662,0,1.324,0,1.988,0
		c0.334,0.064,0.674,0.053,1.012,0.086c1.273,0.127,2.418,0.621,3.496,1.266c2.516,1.504,4.162,3.682,4.938,6.512
		c0.146,0.535,0.148,1.094,0.17,1.646c0.02,0.141-0.039,0.289,0.037,0.426c0,0.475,0,0.947,0,1.42
		c-0.072,0.117-0.02,0.246-0.037,0.369c0.012,1.662-0.563,3.141-1.416,4.533c-1.031,1.686-2.434,2.98-4.176,3.889
		c-1.211,0.631-2.484,1.064-3.885,1.088c-1.016,0.016-2.029,0.035-3.041-0.057c-1.1-0.098-2.107-0.521-3.078-1.014
		c-1.037-0.525-1.973-1.213-2.777-2.059c-1.311-1.379-2.242-2.977-2.697-4.832c-0.125-0.504-0.133-1.027-0.15-1.545
		c-0.016-0.125,0.037-0.254-0.035-0.373c0-0.496,0-0.994,0-1.49c0.072-0.115,0.02-0.244,0.035-0.365
		c-0.012-1.65,0.555-3.121,1.398-4.506c1.041-1.705,2.461-3.018,4.225-3.938c1.193-0.623,2.453-1.055,3.826-1.021
		C318.392,95.556,318.452,95.563,318.501,95.519z"/>
	<path fill-rule="evenodd" clip-rule="evenodd" fill="#9C9D9C" d="M330.079,105.021c0.021-0.004,0.043-0.002,0.063,0.008
		c0,0.143,0,0.285,0,0.426C330.038,105.321,330.063,105.171,330.079,105.021z"/>
	<path fill-rule="evenodd" clip-rule="evenodd" fill="#9C9D9C" d="M308.849,105.028c0.02-0.01,0.041-0.012,0.061-0.008
		c0.02,0.129,0.043,0.256-0.061,0.363C308.849,105.265,308.849,105.147,308.849,105.028z"/>
	<path fill-rule="evenodd" clip-rule="evenodd" fill="#9C9D9C" d="M308.909,107.237l-0.031,0.002l-0.029-0.01
		c0-0.119,0-0.236,0-0.355C308.952,106.981,308.929,107.11,308.909,107.237z"/>
	<path fill-rule="evenodd" clip-rule="evenodd" fill="#9C9D9C" d="M330.142,107.229l-0.031,0.008h-0.031
		c-0.018-0.127-0.043-0.256,0.063-0.363C330.142,106.993,330.142,107.11,330.142,107.229z"/>
	<path fill-rule="evenodd" clip-rule="evenodd" fill="#F5F6F7" d="M319.499,115.399c-5.064,0.127-9.332-4.215-9.334-9.266
		c-0.002-5.059,4.27-9.299,9.324-9.303c5.064-0.002,9.352,4.248,9.334,9.328C328.808,111.194,324.552,115.522,319.499,115.399z"/>
	<path fill-rule="evenodd" clip-rule="evenodd" fill="#F5F6F7" d="M319.544,97.079c5.039,0.023,9.17,4.049,9.102,9.246
		c-0.064,4.879-4.021,9.029-9.33,8.92c-4.865-0.1-8.949-4.023-8.895-9.193C310.472,101.104,314.437,97.103,319.544,97.079z"/>
	<path fill-rule="evenodd" clip-rule="evenodd" fill="#F7F8F8" d="M321.767,114.681c-0.297,0.242-0.67,0.229-1.01,0.271
		c-2.537,0.314-4.828-0.295-6.83-1.898c-1.826-1.463-2.893-3.381-3.217-5.684c-0.307-2.162,0.143-4.195,1.34-6.021
		c1.41-2.146,3.402-3.461,5.945-3.92c1.396-0.252,2.779-0.18,4.127,0.242c1.889,0.592,3.451,1.67,4.621,3.287
		c0.545,0.754,0.947,1.578,1.262,2.449c0.057,0.158,0.09,0.318,0.078,0.486c-0.063,0.09-0.102,0.209-0.248,0.184
		c-0.283-0.205-0.211-0.561-0.352-0.826c-0.01-0.135-0.049-0.26-0.146-0.359c-0.074-0.109-0.098-0.24-0.145-0.361
		c-0.027-0.141-0.092-0.264-0.191-0.369c-0.184-0.264-0.359-0.533-0.512-0.818c-0.025-0.105-0.072-0.197-0.15-0.271
		c-0.021-0.02-0.041-0.043-0.057-0.068c-0.045-0.098-0.115-0.17-0.205-0.225c-0.107-0.092-0.209-0.188-0.287-0.307
		c-0.041-0.098-0.094-0.189-0.191-0.244c-0.039-0.025-0.07-0.059-0.098-0.096c-0.055-0.096-0.143-0.152-0.242-0.191
		c-0.119-0.076-0.213-0.18-0.305-0.285c-0.057-0.086-0.123-0.164-0.223-0.205c-0.025-0.016-0.049-0.033-0.07-0.055
		c-0.07-0.078-0.16-0.127-0.262-0.154c-0.098-0.02-0.164-0.084-0.227-0.154c-0.086-0.121-0.211-0.172-0.35-0.201
		c-0.311-0.199-0.66-0.316-0.984-0.488c-0.1-0.098-0.223-0.141-0.359-0.152c-0.518-0.164-1.043-0.297-1.57-0.426
		c-0.121-0.043-0.246-0.068-0.377-0.064c-0.059-0.002-0.115-0.004-0.172-0.02c-0.555-0.084-1.109-0.084-1.662,0
		c-0.057,0.016-0.115,0.018-0.172,0.02c-0.133-0.006-0.258,0.021-0.383,0.061c-0.547,0.045-1.049,0.26-1.566,0.416
		c-0.131,0.029-0.26,0.068-0.373,0.146c-0.316,0.18-0.67,0.281-0.969,0.49c-0.131,0.049-0.264,0.098-0.363,0.203
		c-0.078,0.053-0.143,0.123-0.229,0.164c-0.123,0.043-0.209,0.135-0.305,0.217c-1.088,0.846-1.932,1.889-2.506,3.139
		c-0.326,0.713-0.633,1.438-0.686,2.238c-0.045,0.119-0.066,0.242-0.063,0.369c-0.002,0.076,0,0.152-0.018,0.227
		c-0.084,0.494-0.084,0.986,0,1.479c0.018,0.076,0.016,0.152,0.018,0.23c-0.006,0.131,0.023,0.258,0.064,0.381
		c0.029,0.551,0.215,1.061,0.402,1.57c0.041,0.129,0.074,0.26,0.15,0.373c0.037,0.125,0.107,0.234,0.16,0.354
		c0.033,0.141,0.105,0.26,0.197,0.369c0.127,0.293,0.305,0.553,0.482,0.814c0.051,0.094,0.096,0.191,0.18,0.262
		c0.021,0.02,0.039,0.045,0.057,0.07c0.041,0.098,0.115,0.172,0.189,0.244c0.082,0.113,0.188,0.201,0.287,0.297
		c0.053,0.092,0.105,0.184,0.199,0.24c0.037,0.027,0.07,0.061,0.098,0.096c0.057,0.096,0.146,0.15,0.24,0.201
		c0.094,0.098,0.182,0.203,0.293,0.283c0.074,0.072,0.141,0.15,0.24,0.191c0.027,0.014,0.051,0.031,0.072,0.053
		c0.068,0.08,0.154,0.133,0.25,0.174c0.076,0.049,0.154,0.098,0.225,0.154c0.1,0.102,0.229,0.152,0.355,0.209
		c0.313,0.18,0.633,0.342,0.965,0.482c0.117,0.072,0.246,0.115,0.377,0.152c0.508,0.191,1.02,0.371,1.568,0.408
		c0.127,0.035,0.252,0.068,0.385,0.063c0.059,0,0.117,0.002,0.174,0.018c0.555,0.086,1.109,0.084,1.664,0
		c0.057-0.016,0.113-0.018,0.172-0.018c0.131,0.004,0.258-0.021,0.383-0.063c0.168-0.025,0.326-0.105,0.502-0.078
		C321.595,114.429,321.737,114.476,321.767,114.681z"/>
	<path fill-rule="evenodd" clip-rule="evenodd" fill="#F8F9F9" d="M321.767,114.681c-0.109-0.068-0.213-0.158-0.355-0.141
		c-0.068-0.068-0.137-0.137-0.08-0.244c0.1-0.115,0.24-0.141,0.375-0.184c3.133-0.965,5.115-3.027,5.9-6.217
		c0.129-0.525,0.203-1.064,0.189-1.611c-0.006-0.221-0.031-0.449,0.057-0.664c0.227-0.303,0.008-0.613,0.018-0.92
		c0.004-0.221-0.213-0.443,0-0.664c0.07-0.049,0.141-0.096,0.213-0.143c0.176,0.818,0.318,1.643,0.281,2.484
		c-0.092,2.107-0.779,3.973-2.189,5.574C324.974,113.317,323.503,114.204,321.767,114.681z"/>
	<path fill-rule="evenodd" clip-rule="evenodd" fill="#F9F9FA" d="M327.87,104.036c0.061,0.387,0.123,0.775,0.186,1.164
		c0.029,0.172,0.072,0.348-0.115,0.467c-0.189-0.113-0.193-0.309-0.217-0.496c-0.213-1.637-0.857-3.1-1.92-4.348
		c-1.252-1.473-2.865-2.4-4.764-2.734c-3.076-0.543-5.682,0.424-7.758,2.717c-1.117,1.232-1.744,2.74-1.947,4.406
		c-0.287,2.379,0.416,4.48,1.924,6.285c1.371,1.641,3.186,2.555,5.314,2.832c0.793,0.105,1.576,0.07,2.361-0.059
		c0.139-0.021,0.283-0.055,0.406,0.057c0.023,0.07,0.047,0.141,0.07,0.213c-0.166,0.023-0.332,0.047-0.496,0.07
		c-0.107,0.086-0.25-0.016-0.355,0.07c-0.047,0-0.096,0-0.143,0c-0.592,0.059-1.182,0.059-1.773,0c-0.047,0-0.096,0-0.143,0
		c-0.105-0.086-0.248,0.016-0.355-0.07c-0.574-0.023-1.113-0.184-1.631-0.426c-0.113-0.063-0.244-0.08-0.355-0.143
		c-0.354-0.121-0.686-0.283-0.994-0.496c-0.107-0.09-0.246-0.125-0.354-0.213c-0.072-0.047-0.143-0.096-0.215-0.143
		c-0.098-0.064-0.184-0.148-0.283-0.213s-0.186-0.146-0.283-0.213c-0.119-0.07-0.215-0.164-0.285-0.283
		c-0.098-0.064-0.184-0.148-0.283-0.213c-0.023-0.023-0.047-0.047-0.07-0.072c-0.066-0.098-0.148-0.184-0.213-0.283
		c-0.119-0.07-0.215-0.164-0.285-0.283c-0.064-0.1-0.146-0.186-0.213-0.285c-0.064-0.1-0.148-0.184-0.213-0.283
		c-0.203-0.262-0.395-0.531-0.496-0.852c-0.09-0.107-0.123-0.248-0.213-0.355c-0.047-0.117-0.096-0.236-0.143-0.354
		c-0.063-0.113-0.078-0.244-0.141-0.355c-0.242-0.518-0.402-1.059-0.426-1.633c-0.088-0.105,0.014-0.248-0.072-0.355
		c0-0.07,0-0.141,0-0.213c-0.057-0.52-0.057-1.041,0-1.561c0-0.07,0-0.143,0-0.213c0.086-0.105-0.016-0.25,0.072-0.355
		c0.059-0.99,0.459-1.873,0.912-2.727c0.576-1.082,1.357-2.006,2.352-2.738c0.1-0.064,0.186-0.146,0.283-0.213
		c0.072-0.047,0.143-0.094,0.215-0.141c0.105-0.09,0.246-0.125,0.354-0.213c0.305-0.219,0.666-0.328,0.994-0.498
		c0.111-0.063,0.242-0.078,0.355-0.143c0.535-0.172,1.057-0.4,1.631-0.426c0.107-0.086,0.25,0.016,0.355-0.07
		c0.047,0,0.096,0,0.143,0c0.592-0.059,1.182-0.059,1.773,0c0.047,0,0.096,0,0.143,0c0.105,0.086,0.248-0.016,0.355,0.07
		c0.543,0.143,1.088,0.285,1.631,0.426c0.113,0.064,0.244,0.08,0.355,0.143c0.332,0.166,0.662,0.332,0.994,0.498
		c0.107,0.088,0.246,0.123,0.354,0.213c0.045,0.086,0.117,0.133,0.215,0.141c0.098,0.066,0.184,0.148,0.283,0.213
		s0.184,0.148,0.283,0.213c0.07,0.119,0.164,0.215,0.285,0.285c0.098,0.064,0.184,0.146,0.283,0.213
		c0.023,0.023,0.047,0.047,0.07,0.07c0.064,0.1,0.148,0.186,0.213,0.283c0.07,0.119,0.166,0.215,0.285,0.285
		c0.064,0.1,0.148,0.184,0.213,0.283s0.146,0.186,0.213,0.283c0.119,0.311,0.334,0.566,0.496,0.852
		c0.09,0.107,0.123,0.248,0.213,0.355c0.029,0.125,0.053,0.254,0.143,0.355c0.061,0.111,0.078,0.242,0.141,0.354
		C327.688,103.464,327.704,103.774,327.87,104.036z"/>
	<path fill-rule="evenodd" clip-rule="evenodd" fill="#F8F9F9" d="M320.417,97.647c-0.592,0-1.182,0-1.773,0
		C319.235,97.532,319.825,97.532,320.417,97.647z"/>
	<path fill-rule="evenodd" clip-rule="evenodd" fill="#F8F9F9" d="M318.644,114.681c0.592,0,1.182,0,1.773,0
		C319.825,114.796,319.235,114.796,318.644,114.681z"/>
	<path fill-rule="evenodd" clip-rule="evenodd" fill="#F8F9F9" d="M310.978,105.384c0,0.52,0,1.041,0,1.561
		C310.862,106.425,310.862,105.903,310.978,105.384z"/>
	<path fill-rule="evenodd" clip-rule="evenodd" fill="#F8F9F9" d="M311.759,109.854c0.137,0.08,0.186,0.211,0.213,0.355
		C311.835,110.13,311.784,110.001,311.759,109.854z"/>
	<path fill-rule="evenodd" clip-rule="evenodd" fill="#F8F9F9" d="M327.302,102.474c-0.137-0.078-0.186-0.209-0.213-0.355
		C327.226,102.198,327.276,102.329,327.302,102.474z"/>
	<path fill-rule="evenodd" clip-rule="evenodd" fill="#F8F9F9" d="M314.812,113.333c0.145,0.025,0.275,0.076,0.354,0.213
		C315.021,113.519,314.89,113.47,314.812,113.333z"/>
	<path fill-rule="evenodd" clip-rule="evenodd" fill="#F8F9F9" d="M324.249,98.997c-0.145-0.027-0.275-0.078-0.354-0.213
		C324.04,98.81,324.171,98.86,324.249,98.997z"/>
	<path fill-rule="evenodd" clip-rule="evenodd" fill="#F8F9F9" d="M315.165,98.784c-0.078,0.135-0.209,0.186-0.354,0.213
		C314.89,98.86,315.021,98.81,315.165,98.784z"/>
	<path fill-rule="evenodd" clip-rule="evenodd" fill="#F8F9F9" d="M325.882,100.415c-0.111-0.063-0.197-0.146-0.213-0.283
		C325.782,100.194,325.868,100.278,325.882,100.415z"/>
	<path fill-rule="evenodd" clip-rule="evenodd" fill="#F8F9F9" d="M327.585,103.183c-0.105-0.094-0.143-0.217-0.141-0.354
		C327.55,102.923,327.587,103.046,327.585,103.183z"/>
	<path fill-rule="evenodd" clip-rule="evenodd" fill="#F8F9F9" d="M322.901,98.286c-0.137,0-0.26-0.035-0.355-0.143
		C322.685,98.144,322.806,98.181,322.901,98.286z"/>
	<path fill-rule="evenodd" clip-rule="evenodd" fill="#F8F9F9" d="M316.515,98.144c-0.096,0.107-0.219,0.143-0.355,0.143
		C316.255,98.181,316.376,98.144,316.515,98.144z"/>
	<path fill-rule="evenodd" clip-rule="evenodd" fill="#F8F9F9" d="M314.597,99.138c-0.063,0.113-0.146,0.199-0.283,0.213
		C314.378,99.239,314.46,99.151,314.597,99.138z"/>
	<path fill-rule="evenodd" clip-rule="evenodd" fill="#F8F9F9" d="M312.468,111.062c0.113,0.064,0.199,0.146,0.213,0.283
		C312.569,111.282,312.483,111.198,312.468,111.062z"/>
	<path fill-rule="evenodd" clip-rule="evenodd" fill="#F8F9F9" d="M312.681,111.345c0.113,0.064,0.199,0.146,0.213,0.285
		C312.782,111.565,312.696,111.483,312.681,111.345z"/>
	<path fill-rule="evenodd" clip-rule="evenodd" fill="#F8F9F9" d="M324.747,99.351c-0.137-0.014-0.221-0.1-0.283-0.213
		C324.601,99.151,324.683,99.239,324.747,99.351z"/>
	<path fill-rule="evenodd" clip-rule="evenodd" fill="#F8F9F9" d="M313.179,111.913c0.111,0.064,0.197,0.146,0.213,0.283
		C313.278,112.134,313.192,112.05,313.179,111.913z"/>
	<path fill-rule="evenodd" clip-rule="evenodd" fill="#F8F9F9" d="M311.476,109.146c0.105,0.094,0.143,0.217,0.141,0.355
		C311.511,109.405,311.474,109.282,311.476,109.146z"/>
	<path fill-rule="evenodd" clip-rule="evenodd" fill="#F8F9F9" d="M314.03,112.765c0.137,0.014,0.221,0.102,0.283,0.213
		C314.177,112.964,314.093,112.878,314.03,112.765z"/>
	<path fill-rule="evenodd" clip-rule="evenodd" fill="#F8F9F9" d="M314.313,112.978c0.137,0.014,0.221,0.102,0.283,0.213
		C314.46,113.177,314.378,113.091,314.313,112.978z"/>
	<path fill-rule="evenodd" clip-rule="evenodd" fill="#F8F9F9" d="M325.03,99.563c-0.137-0.014-0.221-0.1-0.283-0.213
		C324.884,99.366,324.968,99.452,325.03,99.563z"/>
	<path fill-rule="evenodd" clip-rule="evenodd" fill="#F8F9F9" d="M325.599,100.062c-0.137-0.016-0.221-0.102-0.283-0.213
		C325.452,99.862,325.534,99.948,325.599,100.062z"/>
	<path fill-rule="evenodd" clip-rule="evenodd" fill="#F8F9F9" d="M316.159,114.042c0.137,0,0.26,0.037,0.355,0.143
		C316.376,114.185,316.255,114.147,316.159,114.042z"/>
	<path fill-rule="evenodd" clip-rule="evenodd" fill="#F8F9F9" d="M326.38,100.983c-0.113-0.064-0.199-0.146-0.213-0.283
		C326.278,100.763,326.364,100.847,326.38,100.983z"/>
	<path fill-rule="evenodd" clip-rule="evenodd" fill="#F8F9F9" d="M326.593,101.267c-0.113-0.063-0.199-0.146-0.213-0.283
		C326.491,101.048,326.577,101.13,326.593,101.267z"/>
	<path fill-rule="evenodd" clip-rule="evenodd" fill="#F8F9F9" d="M313.462,112.269c0.137,0.014,0.221,0.1,0.283,0.213
		C313.608,112.468,313.526,112.38,313.462,112.269z"/>
	<path fill-rule="evenodd" clip-rule="evenodd" fill="#F8F9F9" d="M320.915,97.718c-0.123-0.006-0.252,0.027-0.355-0.07
		C320.681,97.655,320.812,97.622,320.915,97.718z"/>
	<path fill-rule="evenodd" clip-rule="evenodd" fill="#F8F9F9" d="M318.501,97.647c-0.104,0.098-0.232,0.064-0.355,0.07
		C318.249,97.622,318.38,97.655,318.501,97.647z"/>
	<path fill-rule="evenodd" clip-rule="evenodd" fill="#F8F9F9" d="M311.05,104.815c-0.008,0.123,0.025,0.252-0.072,0.355
		C310.985,105.05,310.952,104.919,311.05,104.815z"/>
	<path fill-rule="evenodd" clip-rule="evenodd" fill="#F8F9F9" d="M318.146,114.61c0.123,0.008,0.252-0.025,0.355,0.07
		C318.38,114.675,318.249,114.708,318.146,114.61z"/>
	<path fill-rule="evenodd" clip-rule="evenodd" fill="#F8F9F9" d="M320.56,114.681c0.104-0.096,0.232-0.063,0.355-0.07
		C320.812,114.708,320.681,114.675,320.56,114.681z"/>
	<path fill-rule="evenodd" clip-rule="evenodd" fill="#F8F9F9" d="M310.978,107.157c0.098,0.104,0.064,0.234,0.072,0.355
		C310.952,107.409,310.985,107.28,310.978,107.157z"/>
	<path fill-rule="evenodd" clip-rule="evenodd" fill="#FBFBFB" d="M321.341,114.327c-0.889,0.236-1.789,0.252-2.701,0.164
		c-1.322-0.131-2.533-0.58-3.641-1.285c-2.053-1.307-3.27-3.197-3.736-5.572c-0.424-2.16,0.055-4.156,1.207-5.994
		c1.148-1.834,2.822-3.002,4.898-3.559c2.818-0.758,5.379-0.117,7.602,1.705c1.682,1.377,2.625,3.223,2.902,5.393
		c0.02,0.162,0.045,0.326,0.068,0.488c0.066,1.568-0.217,3.064-0.982,4.441c-1.191,2.137-2.959,3.555-5.338,4.182
		C321.53,114.313,321.433,114.315,321.341,114.327z"/>
	<path fill-rule="evenodd" clip-rule="evenodd" fill="#FDFDFD" d="M323.753,99.563c0.047,0.023,0.096,0.047,0.143,0.072
		c0.156,0.1,0.324,0.188,0.426,0.354c0.105,0.057,0.225,0.096,0.283,0.213c0.602,0.449,1.092,1,1.49,1.633
		c0.023,0.047,0.049,0.096,0.072,0.143c0.154,0.15,0.236,0.35,0.342,0.533c0.498,0.988,0.807,2.02,0.873,3.137
		c0.078,1.285-0.129,2.502-0.643,3.678c-0.67,1.533-1.74,2.715-3.16,3.576c-1.041,0.631-2.178,0.965-3.398,1.084
		c-1.129,0.111-2.195-0.076-3.256-0.412c-0.135-0.041-0.268-0.094-0.41-0.098c-0.211-0.172-0.486-0.213-0.711-0.355l0,0
		c-0.727-0.416-1.395-0.906-1.98-1.512c-0.504-0.521-0.916-1.1-1.256-1.732c-0.496-0.975-0.814-1.992-0.891-3.096
		c-0.074-1.082,0.053-2.125,0.383-3.15c0.285-0.887,0.748-1.674,1.324-2.398c0.086-0.07,0.158-0.166,0.291-0.125
		c0.123,0.158,0.004,0.273-0.066,0.402c-0.135,0.24-0.396,0.389-0.469,0.67c-0.363,0.691-0.697,1.395-0.9,2.154
		c-0.129,0.465-0.193,0.939-0.203,1.424c-0.027,0.148-0.1,0.295-0.035,0.451c0.016,0.033,0.025,0.068,0.035,0.102
		c0.016,0.514,0.031,1.025,0.221,1.512c0.037,0.602,0.32,1.127,0.523,1.676c0.254,0.543,0.629,1.006,0.971,1.492
		c0.477,0.447,0.918,0.932,1.473,1.287c0.502,0.381,1.059,0.654,1.643,0.885c0.172,0.068,0.352-0.002,0.521,0.055
		c0.137,0.143,0.328,0.121,0.496,0.156c1.971,0.408,3.824,0.104,5.547-0.943c0.732-0.445,1.363-1.012,1.891-1.689
		c0.168-0.213,0.359-0.406,0.529-0.615c0.48-0.656,0.826-1.367,0.91-2.188c0.025-0.498,0.168-0.982,0.191-1.48
		c0.014-0.15,0.107-0.285,0.078-0.443c-0.025-0.551-0.088-1.096-0.242-1.629c-0.195-0.521-0.406-1.037-0.584-1.566
		c-0.193-0.57-0.578-1.02-0.953-1.475c-0.477-0.443-0.934-0.904-1.439-1.313c-0.639-0.52-1.369-0.842-2.168-1.02
		c-0.568-0.156-1.152-0.23-1.734-0.305c-0.279-0.098-0.559-0.096-0.838,0.002c-0.375-0.014-0.744,0.184-1.125,0.045
		c-0.111-0.127-0.039-0.213,0.068-0.291c0.033-0.016,0.07-0.027,0.107-0.029c0.125,0,0.252-0.008,0.367-0.066
		c0.035-0.004,0.07-0.008,0.105-0.008c0.193-0.002,0.389,0.012,0.574-0.057c0.037-0.008,0.072-0.014,0.107-0.014
		c0.184-0.002,0.367-0.002,0.553,0c0.037,0,0.072,0.004,0.109,0.01c0.176,0.088,0.365,0.051,0.549,0.061
		c1.029,0.154,2.012,0.445,2.918,0.967C323.528,99.396,323.659,99.452,323.753,99.563z"/>
	<path fill-rule="evenodd" clip-rule="evenodd" fill="#FCFCFD" d="M316.515,113.476c0.324-0.109,0.596,0.098,0.881,0.174
		c2.658,0.701,5.066,0.188,7.176-1.547c1.568-1.289,2.488-2.998,2.711-5.021c0.164-1.475-0.037-2.924-0.703-4.279
		c-0.051-0.105-0.086-0.219-0.129-0.328c0.023-0.025,0.047-0.025,0.07,0c0.246,0.184,0.283,0.486,0.391,0.74
		c0.391,0.922,0.607,1.902,0.59,2.895c-0.035,2.092-0.721,3.945-2.184,5.488c-1.285,1.354-2.857,2.146-4.689,2.424
		C319.21,114.237,317.833,114.05,316.515,113.476z"/>
	<path fill-rule="evenodd" clip-rule="evenodd" fill="#FCFCFD" d="M313.462,101.267c-0.723,0.82-1.189,1.775-1.486,2.82
		c-0.197,0.697-0.264,1.42-0.268,2.131c-0.006,0.99,0.166,1.969,0.564,2.893c0.117,0.27,0.227,0.543,0.338,0.816
		c-0.023,0.031-0.047,0.031-0.07,0c-0.508-0.883-0.791-1.84-0.918-2.842c-0.158-1.26,0.01-2.486,0.451-3.676
		c0.656-1.758,1.811-3.098,3.404-4.068c0.1-0.061,0.217-0.088,0.326-0.131c0.008,0.014,0.014,0.029,0.021,0.045
		c-0.012,0.189-0.18,0.244-0.303,0.316c-0.582,0.342-1.115,0.746-1.568,1.248C313.804,100.985,313.575,101.063,313.462,101.267z"/>
	<path fill-rule="evenodd" clip-rule="evenodd" fill="#FCFCFD" d="M323.753,99.563c-0.336-0.162-0.672-0.326-1.008-0.49
		c-0.715-0.344-1.482-0.508-2.256-0.645c-0.182-0.096-0.389,0.025-0.568-0.072c-0.023,0-0.047,0-0.07,0
		c-0.213-0.055-0.428-0.055-0.641,0c-0.205,0.096-0.434-0.023-0.639,0.072c-0.023,0-0.047,0-0.07,0
		c-0.105,0.086-0.248-0.016-0.355,0.07c-0.023,0-0.047,0-0.07,0c-0.645,0.297-1.355,0.42-1.984,0.754
		c-0.1,0.053-0.205,0.055-0.287-0.043l0,0c0.186-0.248,0.486-0.289,0.74-0.391c0.994-0.4,2.035-0.629,3.109-0.596
		c1.389,0.041,2.703,0.396,3.91,1.104C323.661,99.384,323.741,99.444,323.753,99.563z"/>
	<path fill-rule="evenodd" clip-rule="evenodd" fill="#FCFCFD" d="M312.54,109.927c0.023,0,0.047,0,0.07,0
		c0.43,0.605,0.816,1.238,1.361,1.76c0.463,0.443,0.951,0.844,1.504,1.17c0.119,0.07,0.256,0.131,0.328,0.264
		c-0.561-0.184-1.01-0.557-1.441-0.93C313.62,111.55,312.976,110.819,312.54,109.927z"/>
	<path fill-rule="evenodd" clip-rule="evenodd" fill="#FCFCFD" d="M326.095,101.835c-0.496-0.545-0.992-1.088-1.49-1.633
		c0.035,0.004,0.082-0.008,0.104,0.012C325.276,100.663,325.837,101.12,326.095,101.835z"/>
	<path fill-rule="evenodd" clip-rule="evenodd" fill="#FCFCFD" d="M315.804,113.12c0.27,0.053,0.533,0.119,0.711,0.355
		C316.271,113.372,315.983,113.353,315.804,113.12z"/>
	<path fill-rule="evenodd" clip-rule="evenodd" fill="#FCFCFD" d="M326.521,102.474c-0.023,0-0.047,0-0.07,0
		c-0.129-0.146-0.252-0.295-0.283-0.496C326.427,102.04,326.45,102.274,326.521,102.474z"/>
	<path fill-rule="evenodd" clip-rule="evenodd" fill="#FCFCFD" d="M324.321,99.989c-0.176-0.076-0.328-0.184-0.426-0.354
		C324.116,99.659,324.298,99.728,324.321,99.989z"/>
	<path fill-rule="evenodd" clip-rule="evenodd" fill="#FEFEFE" d="M326.864,104.315c0.266,0.363,0.213,0.805,0.291,1.213
		c0.029,0.16,0.004,0.33,0.004,0.494c-0.055,0.055-0.082,0.131-0.15,0.172c-0.447,0.299-0.971,0.418-1.461,0.607
		c-0.869,0.332-1.756,0.619-2.613,0.977c-0.912,0.383-1.859,0.361-2.813,0.33c-0.059-0.002-0.113-0.025-0.16-0.066
		c-0.16-0.213-0.055-0.426,0.002-0.637c0.057-0.215,0.084-0.439,0.213-0.629c0.271-0.271,0.646-0.33,0.98-0.463
		c1.742-0.695,3.502-1.342,5.266-1.979C326.569,104.282,326.714,104.222,326.864,104.315z"/>
	<path fill-rule="evenodd" clip-rule="evenodd" fill="#B5B6B9" d="M325.927,110.206c-0.713,1.02-1.566,1.891-2.662,2.502
		c-1.795,1-3.695,1.232-5.686,0.746c-0.076-0.02-0.279,0.025-0.201-0.188c0.061-0.182,0.227-0.23,0.379-0.287
		c1.24-0.463,2.486-0.908,3.721-1.381c0.111-0.041,0.23-0.049,0.283-0.063c-0.307,0.063-0.682,0.029-1.053,0.031
		c-0.875,0.004-1.75,0.006-2.625-0.002c-0.17-0.002-0.365,0.031-0.449-0.188c0.074-0.178,0.234-0.182,0.389-0.182
		c1.453-0.01,2.908-0.033,4.361,0.012c0.469,0.014,0.941,0.037,1.412,0.057c0.344,0.014,0.576-0.084,0.643-0.447
		c0.018-0.094,0.063-0.18,0.125-0.254c0.305-0.254,0.688-0.346,1.051-0.469C325.714,110.06,325.896,109.97,325.927,110.206z"/>
	<path fill-rule="evenodd" clip-rule="evenodd" fill="#B5B6B9" d="M317.935,98.704c0.379-0.049,0.76-0.098,1.141-0.146
		c0.279-0.037,0.561-0.037,0.84,0.002c0.602,0.086,1.219,0.1,1.783,0.365c-0.008,0.25-0.225,0.271-0.385,0.344
		c-0.439,0.193-0.93,0.244-1.35,0.494c-0.633,0.055-1.268,0.025-1.9,0.021c-0.314-0.002-0.48,0.115-0.537,0.422
		c-0.033,0.182-0.064,0.373-0.203,0.516c-1.266,0.51-2.555,0.951-3.83,1.432c-0.148,0.055-0.318,0.129-0.445-0.057
		c0.133-0.379,0.484-0.611,0.646-0.969c0.254-0.467,0.676-0.77,1.076-1.086c0.82-0.646,1.75-1.084,2.762-1.344
		C317.663,98.665,317.802,98.585,317.935,98.704z"/>
	<path fill-rule="evenodd" clip-rule="evenodd" fill="#B5B6B9" d="M326.864,104.315c-1.789,0.666-3.582,1.33-5.371,2.002
		c-0.406,0.152-0.834,0.26-1.211,0.49c-0.164-0.283,0.045-0.416,0.238-0.521c0.248-0.133,0.518-0.23,0.787-0.307
		c0.287-0.08,0.432-0.256,0.496-0.533c0.076-0.332,0.164-0.662,0.25-0.992c0.037-0.148,0.08-0.297,0.209-0.398
		c1.141-0.455,2.299-0.857,3.449-1.289c0.189-0.07,0.396-0.195,0.594-0.002C326.528,103.269,326.757,103.771,326.864,104.315z"/>
	<path fill-rule="evenodd" clip-rule="evenodd" fill="#B5B6B9" d="M311.888,105.815c0.031-0.521,0.027-1.049,0.23-1.543
		c0.281-0.295,0.674-0.369,1.031-0.502c1.014-0.379,2.025-0.762,3.043-1.127c0.18-0.064,0.369-0.188,0.566-0.033
		c0.068,0.092,0.066,0.197,0.045,0.303c-0.121,0.549-0.277,1.088-0.432,1.627c-0.023,0.08-0.072,0.146-0.139,0.197
		c-1.293,0.566-2.631,1.012-3.955,1.496c-0.121,0.045-0.25,0.08-0.371-0.012v0.014C311.833,106.099,311.86,105.956,311.888,105.815z
		"/>
	<path fill-rule="evenodd" clip-rule="evenodd" fill="#FEFEFE" d="M316.718,102.61c-1.396,0.52-2.793,1.037-4.189,1.553
		c-0.133,0.049-0.273,0.072-0.41,0.109c0.186-0.779,0.504-1.5,0.93-2.176c0.611-0.096,1.156-0.387,1.732-0.584
		c0.715-0.244,1.416-0.525,2.125-0.783c0.098-0.035,0.205-0.143,0.322-0.025c0.098,0.076,0.107,0.184,0.082,0.289
		c-0.115,0.469-0.215,0.943-0.379,1.4C316.894,102.497,316.835,102.583,316.718,102.61z"/>
	<path fill-rule="evenodd" clip-rule="evenodd" fill="#FEFEFE" d="M317.64,111.405c1.109,0.008,2.219,0.018,3.33,0.023
		c0.42,0.004,0.842,0,1.275,0.061c-0.623,0.232-1.246,0.469-1.871,0.695c-0.998,0.363-1.998,0.721-2.996,1.082
		c-0.205,0.154-0.406,0.098-0.623,0.012c-0.461-0.184-0.898-0.408-1.318-0.668c-0.119-0.07-0.254-0.135-0.279-0.297
		c0.029-0.225,0.225-0.256,0.383-0.318c0.621-0.246,1.264-0.438,1.893-0.672C317.513,111.321,317.587,111.339,317.64,111.405z"/>
	<path fill-rule="evenodd" clip-rule="evenodd" fill="#FEFEFE" d="M326.306,102.765c-0.699,0.131-1.328,0.461-1.996,0.686
		c-0.557,0.186-1.104,0.406-1.656,0.605c-0.104,0.037-0.207,0.127-0.328,0.041c-0.211-0.275,0.029-0.537,0.025-0.83
		c-0.293,0.068-0.551,0.213-0.828,0.299c-0.377,0.119-0.523-0.014-0.43-0.4c0.047-0.203,0.084-0.42,0.271-0.561
		c0.912-0.438,1.885-0.717,2.822-1.086c0.219-0.086,0.438-0.174,0.66-0.246c0.15-0.047,0.297-0.072,0.447-0.012
		C325.784,101.659,326.118,102.163,326.306,102.765z"/>
	<path fill-rule="evenodd" clip-rule="evenodd" fill="#FEFEFE" d="M311.907,106.222c1.42-0.516,2.82-1.084,4.258-1.547
		c0.176,0.367,0.021,0.83-0.342,1.008c-0.158,0.078-0.326,0.143-0.494,0.182c-0.402,0.092-0.574,0.359-0.65,0.734
		c-0.043,0.217-0.074,0.443-0.248,0.609c-0.557,0.305-1.166,0.475-1.754,0.695c-0.164,0.063-0.334,0.135-0.484-0.033
		c-0.314-0.25-0.211-0.633-0.281-0.955C311.862,106.694,311.905,106.454,311.907,106.222z"/>
	<path fill-rule="evenodd" clip-rule="evenodd" fill="#B5B6B9" d="M319.985,108.009c0.508,0.002,1.014-0.004,1.52,0.008
		c0.318,0.008,0.598-0.113,0.885-0.221c1.545-0.574,3.09-1.146,4.635-1.721c0.188,0.09,0.082,0.238,0.076,0.367
		c-0.041,0.523-0.113,1.043-0.244,1.553c-0.029,0.115-0.119,0.172-0.217,0.213c-0.393,0.162-0.785,0.316-1.188,0.447
		c-0.123,0.039-0.254,0.086-0.346-0.064c-0.021-0.314-0.229-0.357-0.492-0.357c-1.381,0.006-2.762,0.006-4.143,0
		c-0.152,0-0.311,0.023-0.449-0.061C319.968,108.138,319.866,108.093,319.985,108.009z"/>
	<path fill-rule="evenodd" clip-rule="evenodd" fill="#B5B6B9" d="M325.294,101.261c-1.293,0.482-2.578,0.992-3.893,1.42
		c-0.084-0.063-0.119-0.158-0.098-0.25c0.133-0.604,0.229-1.221,0.518-1.779c0.535-0.35,1.148-0.506,1.74-0.719
		c0.111-0.039,0.23-0.037,0.332,0.047C324.437,100.323,324.892,100.765,325.294,101.261z"/>
	<path fill-rule="evenodd" clip-rule="evenodd" fill="#B5B6B9" d="M312.192,107.87c0.576-0.092,1.086-0.381,1.637-0.549
		c0.18-0.055,0.357-0.113,0.537-0.172c0.16,0.121,0.088,0.273,0.055,0.418c-0.074,0.328-0.176,0.652-0.242,1.021
		c0.271-0.031,0.479-0.154,0.703-0.201c0.117-0.025,0.244-0.047,0.32,0.074c0.08,0.129,0.047,0.246-0.078,0.338
		c-0.619,0.283-1.266,0.496-1.9,0.738c-0.174,0.066-0.357,0.135-0.537,0.008c-0.262-0.412-0.363-0.891-0.539-1.338
		C312.101,108.089,312.126,107.976,312.192,107.87z"/>
	<path fill-rule="evenodd" clip-rule="evenodd" fill="#FEFEFE" d="M312.687,109.546c0.658-0.234,1.316-0.473,1.975-0.707
		c0.141-0.051,0.275-0.127,0.434-0.119c0.086,0.063,0.117,0.156,0.094,0.248c-0.156,0.592-0.227,1.211-0.51,1.766
		c-0.305,0.195-0.613,0.381-1,0.328C313.269,110.608,312.892,110.134,312.687,109.546z"/>
	<path fill-rule="evenodd" clip-rule="evenodd" fill="#FEFEFE" d="M325.181,108.653c0.525-0.301,1.107-0.465,1.676-0.658
		c0.127,0.189,0,0.363-0.047,0.533c-0.148,0.533-0.412,1.018-0.668,1.506c-0.045,0.084-0.119,0.143-0.215,0.172
		c-0.305-0.051-0.535,0.168-0.811,0.227c-0.146,0.031-0.289,0.084-0.432,0.127c-0.129-0.098-0.102-0.236-0.074-0.357
		c0.102-0.436,0.227-0.865,0.35-1.297C324.993,108.788,325.05,108.688,325.181,108.653z"/>
	<path fill-rule="evenodd" clip-rule="evenodd" fill="#FEFEFE" d="M323.894,99.979c-0.658,0.238-1.318,0.477-1.977,0.715
		c-0.195-0.168-0.082-0.367-0.047-0.555c0.061-0.314,0.049-0.342-0.279-0.35c-0.398-0.008-0.797,0.004-1.195-0.006
		c-0.15-0.004-0.311,0.01-0.398-0.158c0.416-0.238,0.883-0.348,1.322-0.527c0.129-0.051,0.252-0.115,0.379-0.174
		C322.554,99.019,323.284,99.372,323.894,99.979z"/>
	<path fill-rule="evenodd" clip-rule="evenodd" fill="#B5B6B9" d="M313.679,111.062c0.27-0.195,0.598-0.25,0.9-0.363
		c0.041,0.027,0.068,0.064,0.078,0.113c0.094,0.447,0.094,0.447,0.545,0.449c0.6,0.002,1.197-0.004,1.797,0.004
		c0.16,0.004,0.338-0.021,0.439,0.154c-0.619,0.307-1.285,0.494-1.926,0.748c-0.119,0.047-0.236,0.098-0.354,0.146
		c-0.311,0-0.463-0.266-0.666-0.424C314.19,111.653,313.913,111.374,313.679,111.062z"/>
	<path fill-rule="evenodd" clip-rule="evenodd" fill="#FCFCFD" d="M317.935,98.704c-1.684,0.336-3.072,1.186-4.24,2.424
		c-0.076,0.047-0.154,0.092-0.232,0.139c0.334-0.547,0.836-0.928,1.316-1.332c0.324-0.271,0.734-0.414,1.025-0.725
		c0.563-0.127,1.049-0.469,1.619-0.578c0.217-0.041,0.426-0.135,0.652-0.133C318.028,98.567,317.981,98.636,317.935,98.704z"/>
	<path fill-rule="evenodd" clip-rule="evenodd" fill="#FCFCFD" d="M319.915,98.56c-0.279,0-0.561,0-0.84-0.002
		C319.354,98.466,319.636,98.466,319.915,98.56z"/>
	<path fill-rule="evenodd" clip-rule="evenodd" fill="#FCFCFD" d="M318.571,98.429c0.201-0.133,0.428-0.045,0.639-0.072
		C319.011,98.491,318.784,98.403,318.571,98.429z"/>
	<path fill-rule="evenodd" clip-rule="evenodd" fill="#FCFCFD" d="M319.21,98.356c0.213-0.107,0.428-0.107,0.641,0
		C319.638,98.356,319.423,98.356,319.21,98.356z"/>
	<path fill-rule="evenodd" clip-rule="evenodd" fill="#FCFCFD" d="M319.921,98.356c0.189,0.023,0.391-0.055,0.568,0.072
		C320.3,98.407,320.097,98.483,319.921,98.356z"/>
	<path fill-rule="evenodd" clip-rule="evenodd" fill="#FCFCFD" d="M327.101,106.442c-0.027-0.121,0.029-0.26-0.076-0.367
		c0.045-0.018,0.09-0.035,0.135-0.053C327.149,106.163,327.194,106.313,327.101,106.442z"/>
	<path fill-rule="evenodd" clip-rule="evenodd" fill="#FCFCFD" d="M311.888,105.815c0.008,0.139,0.014,0.279,0.02,0.42
		C311.796,106.101,311.808,105.958,311.888,105.815z"/>
	<path fill-rule="evenodd" clip-rule="evenodd" fill="#FCFCFD" d="M318.146,98.499c0.104-0.098,0.234-0.063,0.355-0.07
		C318.397,98.526,318.269,98.491,318.146,98.499z"/>
	<path fill-rule="evenodd" clip-rule="evenodd" fill="#3E3F3D" d="M317.438,111.419c-0.85-0.006-1.701-0.016-2.551-0.021
		c-0.477-0.004-0.477-0.002-0.363-0.457c0.02-0.08,0.037-0.162,0.055-0.242c0.172-0.66,0.344-1.318,0.516-1.979
		c0.057-0.068,0.092-0.164,0.049-0.229c-0.061-0.088-0.15,0.002-0.219,0.025c-0.309,0.107-0.613,0.227-0.992,0.367
		c0.152-0.615,0.293-1.174,0.434-1.734c0.096-0.336,0.205-0.672,0.285-1.012c0.037-0.16,0.111-0.242,0.264-0.285
		c0.145-0.041,0.281-0.131,0.428-0.15c0.607-0.084,0.781-0.5,0.822-1.027c0.184-0.688,0.369-1.375,0.553-2.064
		c0.17-0.635,0.34-1.271,0.51-1.906c0.07-0.26,0.158-0.516,0.209-0.779c0.043-0.223,0.139-0.301,0.375-0.297
		c0.729,0.016,1.457,0.002,2.186-0.002c0.705,0,1.41,0,2.158,0c-0.084,0.377-0.162,0.723-0.238,1.068
		c-0.205,0.654-0.393,1.311-0.516,1.986c-0.123,0.252-0.17,0.527-0.234,0.852c0.479-0.178,0.92-0.34,1.393-0.514
		c-0.016,0.395-0.191,0.725-0.234,1.078c-0.141,0.521-0.291,1.041-0.418,1.564c-0.053,0.219-0.158,0.342-0.375,0.406
		c-0.305,0.092-0.596,0.225-0.896,0.322c-0.217,0.068-0.346,0.186-0.354,0.418c-0.098,0.4-0.197,0.801-0.297,1.201
		c0.086,0.145,0.225,0.07,0.336,0.07c1.518,0,3.037-0.008,4.555-0.014c0.469-0.002,0.469,0,0.336,0.453
		c-0.014,0.043-0.021,0.09-0.031,0.135c-0.166,0.635-0.332,1.271-0.496,1.906c-0.006,0.012-0.012,0.021-0.016,0.033
		c-0.25,0.805-0.25,0.807-1.088,0.803c-1.84-0.008-3.682-0.02-5.521-0.027c-0.141,0-0.285-0.025-0.42,0.037
		C317.573,111.411,317.505,111.415,317.438,111.419z"/>
	<path fill-rule="evenodd" clip-rule="evenodd" fill="#FEFEFE" d="M315.245,110.774c0.189-0.984,0.5-1.938,0.736-2.908
		c0.033-0.135,0.066-0.268,0.109-0.449c-0.426,0.156-0.809,0.295-1.254,0.457c0.133-0.494,0.25-0.945,0.375-1.393
		c0.039-0.137,0.182-0.154,0.289-0.172c0.803-0.133,1.121-0.631,1.289-1.406c0.316-1.461,0.754-2.895,1.123-4.346
		c0.061-0.23,0.146-0.301,0.377-0.297c0.875,0.012,1.75,0.002,2.623,0.002c0.455,0,0.453,0,0.334,0.451
		c-0.311,1.174-0.621,2.348-0.93,3.521c-0.023,0.088-0.033,0.178-0.057,0.307c0.484-0.18,0.93-0.344,1.43-0.527
		c-0.127,0.482-0.242,0.908-0.35,1.338c-0.025,0.107-0.084,0.162-0.186,0.188c-0.045,0.01-0.088,0.033-0.131,0.051
		c-0.391,0.16-0.902,0.182-1.152,0.49c-0.236,0.293-0.25,0.771-0.357,1.168c-0.098,0.354-0.166,0.715-0.287,1.057
		c-0.121,0.338-0.002,0.381,0.307,0.377c1.525-0.014,3.049-0.006,4.574-0.006c0.414,0,0.414,0,0.303,0.42
		c-0.15,0.559-0.299,1.115-0.447,1.674c-0.082,0.068-0.182,0.041-0.271,0.041c-2.725,0.002-5.449,0.002-8.174,0
		C315.427,110.812,315.329,110.837,315.245,110.774z"/>
	<path fill-rule="evenodd" clip-rule="evenodd" fill="#3B3D3D" d="M315.245,110.774c2.906-0.002,5.813-0.002,8.719-0.004
		c-0.107,0.105-0.242,0.078-0.369,0.078c-2.693,0-5.387,0-8.08-0.004C315.427,110.845,315.302,110.919,315.245,110.774z"/>
</g>
<g>
	<g>
		<path fill="#666666" d="M494,153.242c0,7.195,0,12.898,0,12.898h-42.797c0,0,0-5.703,0-12.898v-17.365
			c0-7.191,6.107-14.063,13.3-14.063h17.366c7.195,0,12.131,6.871,12.131,14.063V153.242L494,153.242z"/>
		<circle fill="#666666" cx="473.007" cy="104.221" r="15.013"/>
	</g>
	<rect x="452.764" y="138.123" fill="none" width="40.483" height="28.254"/>
	<text transform="matrix(1 0 0 1 458.7422 149.2041)" fill="#FFFFFF" font-family="'Raleway'" font-size="15.1811">Bob</text>
</g>
<g>
	<path fill-rule="evenodd" clip-rule="evenodd" fill="#F6921A" d="M118.205,108.06c-0.598,4.548-4.451,8.17-9.124,8.7
		c-5.457,0.618-10.423-3.284-11.284-8.37c0.085-0.152,0.05-0.316,0.054-0.477c-0.028,0,0.113-0.102-0.037-0.052
		c-0.085,0.028,0.036,0.005-0.059,0.063c-0.174-0.269-0.151-0.566-0.128-0.865c0.095-0.383,0.098-0.767-0.001-1.149
		c0.244-5.554,4.655-9.434,9.465-9.796c0.604,0.099,1.209,0.094,1.814,0.002c2.055,0.223,3.854,0.921,5.513,2.26
		c2.098,1.691,3.318,3.773,3.781,6.371c-0.096,0.346-0.07,0.688-0.035,0.957c-0.063-0.07-0.04-0.205,0.082-0.338
		c0.203,0.693,0.203,1.387,0.006,2.081c-0.07-0.048-0.1-0.118-0.107-0.2c-0.016,0.034-0.006,0.07-0.002,0.104
		C118.167,107.587,118.083,107.832,118.205,108.06z"/>
	<path fill-rule="evenodd" clip-rule="evenodd" fill="#F68C0E" d="M108.905,96.116c-0.605,0.221-1.209,0.225-1.814-0.002
		C107.695,96.115,108.3,96.116,108.905,96.116z"/>
	<path fill-rule="evenodd" clip-rule="evenodd" fill="#F68E10" d="M118.246,105.366c-0.014,0.109-0.027,0.217-0.041,0.324
		c-0.119-0.314-0.248-0.629-0.006-0.943C118.214,104.954,118.23,105.161,118.246,105.366z"/>
	<path fill-rule="evenodd" clip-rule="evenodd" fill="#F68C0E" d="M97.625,105.91c0.217,0.383,0.216,0.766,0.001,1.149
		C97.626,106.677,97.626,106.293,97.625,105.91z"/>
	<path fill-rule="evenodd" clip-rule="evenodd" fill="#F68D0F" d="M118.205,108.06c-0.229-0.215-0.131-0.492-0.132-0.744
		c0-0.115,0.085-0.092,0.134-0.019c0.027,0.042,0.031,0.1,0.045,0.149C118.236,107.651,118.22,107.855,118.205,108.06z"/>
	<path fill-rule="evenodd" clip-rule="evenodd" fill="#F68D0F" d="M97.755,107.925c0.013-0.049,0.012-0.109,0.04-0.146
		c0.062-0.082,0.125-0.057,0.129,0.036c0.009,0.201,0.058,0.415-0.127,0.575C97.783,108.234,97.77,108.079,97.755,107.925z"/>
	<path fill-rule="evenodd" clip-rule="evenodd" fill="#FEFEFE" d="M112.376,108.677c-0.652,2.086-1.296,2.578-3.429,2.361
		c-0.76-0.076-0.928,0.219-1.074,0.836c-0.072,0.306,0.094,0.889-0.492,0.875c-0.52-0.014-1.031-0.15-0.697-0.903
		c0.11-0.249,0.137-0.535,0.208-0.802c0.075-0.283-0.061-0.411-0.319-0.465c-0.25-0.053-0.505-0.123-0.598,0.229
		c-0.071,0.267-0.165,0.532-0.199,0.805c-0.063,0.508-0.244,0.72-0.814,0.58c-0.621-0.15-0.407-0.516-0.331-0.873
		c0.034-0.162,0.062-0.33,0.128-0.48c0.244-0.543,0.054-0.807-0.514-0.879c-0.245-0.031-0.502-0.08-0.72-0.189
		c-0.27-0.133-0.895,0.104-0.746-0.466c0.112-0.426,0.109-1.189,1.018-0.925c0.424,0.123,0.753-0.134,0.871-0.635
		c0.334-1.429,0.697-2.85,1.066-4.27c0.162-0.623,0.016-1.051-0.669-1.146c-0.553-0.077-0.543-0.379-0.448-0.819
		c0.104-0.481,0.351-0.557,0.759-0.406c0.104,0.039,0.211,0.067,0.318,0.095c1.328,0.335,1.347,0.341,1.699-0.973
		c0.11-0.409,0.257-0.556,0.685-0.453c0.427,0.103,0.632,0.28,0.475,0.741c-0.088,0.262-0.114,0.545-0.212,0.802
		c-0.135,0.353-0.022,0.511,0.331,0.579c0.322,0.062,0.539,0.023,0.587-0.361c0.031-0.246,0.135-0.482,0.168-0.727
		c0.068-0.508,0.314-0.607,0.803-0.498c0.532,0.119,0.482,0.4,0.352,0.772c-0.035,0.104-0.033,0.224-0.08,0.321
		c-0.297,0.644-0.162,1.012,0.562,1.283c0.829,0.31,1.491,0.884,1.511,1.889c0.019,0.95-0.391,1.652-1.369,2.068
		c0.642,0.406,1.043,0.928,1.182,1.623C112.521,108.407,112.535,108.544,112.376,108.677z"/>
	<path fill-rule="evenodd" clip-rule="evenodd" fill="#F69116" d="M110.037,111.362c-0.365,0-0.732,0-1.098,0
		c0-0.028-0.001-0.056-0.001-0.084c0.371,0,0.741,0,1.111,0C110.044,111.307,110.041,111.334,110.037,111.362z"/>
	<path fill-rule="evenodd" clip-rule="evenodd" fill="#F68D0D" d="M112.376,108.677c0.004-0.137,0.008-0.273,0.012-0.41
		c0.158-0.041,0.25,0.234,0.177,0.544c-0.028,0.124-0.093,0.089-0.141,0.018C112.396,108.786,112.391,108.728,112.376,108.677z"/>
	<path fill-rule="evenodd" clip-rule="evenodd" fill="#F6931B" d="M108.345,109.431c-1.874-0.063-1.898-0.162-1.539-1.938
		c0.18-0.889,0.553-0.99,1.266-0.691c0.47,0.197,0.945,0.313,1.363,0.694c0.427,0.39,0.65,0.731,0.451,1.26
		c-0.206,0.543-0.684,0.671-1.211,0.675C108.565,109.433,108.455,109.432,108.345,109.431z"/>
	<path fill-rule="evenodd" clip-rule="evenodd" fill="#F6931B" d="M108.087,105.55c-0.615,0.03-0.808-0.231-0.57-0.809
		c0.052-0.126,0.028-0.291,0.098-0.399c0.233-0.361-0.082-1.04,0.565-1.13c0.694-0.098,1.966,0.662,2.106,1.208
		c0.131,0.509-0.012,0.927-0.549,1.133C109.188,105.6,108.638,105.527,108.087,105.55z"/>
	<path fill-rule="evenodd" clip-rule="evenodd" fill="#F68E0F" d="M108.087,105.55c0.551-0.233,1.102-0.238,1.651,0.003
		C109.188,105.849,108.637,105.718,108.087,105.55z"/>
</g>
</svg>
