<?xml version="1.0" encoding="utf-8"?>
<!-- Generator: Adobe Illustrator 16.0.0, SVG Export Plug-In . SVG Version: 6.00 Build 0)  -->
<!DOCTYPE svg PUBLIC "-//W3C//DTD SVG 1.1//EN" "http://www.w3.org/Graphics/SVG/1.1/DTD/svg11.dtd">
<svg version="1.1" id="Layer_1" xmlns="http://www.w3.org/2000/svg" xmlns:xlink="http://www.w3.org/1999/xlink" x="0px" y="0px"
	 width="500px" height="110px" viewBox="-60.312 0 500 110" enable-background="new -60.312 0 500 110" xml:space="preserve">
<g>
	<line fill="none" stroke="#808080" stroke-width="4" stroke-miterlimit="10" x1="204.821" y1="54.299" x2="222.821" y2="54.299"/>
	<polygon fill="#808080" stroke="#808080" stroke-width="2" stroke-miterlimit="10" points="217.28,59.737 216.927,48.871 
		226.513,53.998 	"/>
</g>
<g>
	<line fill="none" stroke="#808080" stroke-width="4" stroke-miterlimit="10" x1="359.563" y1="55.043" x2="377.563" y2="55.043"/>
	<polygon fill="#808080" stroke="#808080" stroke-width="2" stroke-miterlimit="10" points="372.022,60.481 371.669,49.615 
		381.255,54.742 	"/>
</g>
<g>
	<rect x="84.373" y="15.804" fill="#AFAFAF" width="109" height="77"/>
	<rect x="84.572" y="44.073" fill="none" width="109.255" height="49.11"/>
	<text transform="matrix(1 0 0 1 94.6733 67.5732)" fill="#0071BC" font-family="'Raleway'" font-size="19.8649">Deposit A</text>
	<rect x="89.538" y="20.345" fill="none" width="103.739" height="12.14"/>
	<text transform="matrix(1 0 0 1 111.5386 30.3867)" enable-background="new    "><tspan x="0" y="0" fill="#FFFFFF" font-family="'Raleway'" font-size="11">BITCOIN</tspan><tspan x="0" y="13.2" fill="#FFFFFF" font-family="'Raleway'" font-size="11">TRANSACTION</tspan></text>
	<g>
		<path fill-rule="evenodd" clip-rule="evenodd" fill="#F6921A" d="M108.475,33.856c-0.597,4.548-4.451,8.171-9.123,8.701
			c-5.457,0.618-10.423-3.285-11.284-8.371c0.085-0.151,0.05-0.316,0.054-0.477c-0.028,0.001,0.113-0.101-0.037-0.051
			c-0.085,0.028,0.036,0.005-0.059,0.064c-0.174-0.269-0.151-0.567-0.128-0.866c0.095-0.383,0.098-0.766-0.001-1.149
			c0.244-5.553,4.655-9.434,9.465-9.796c0.604,0.099,1.209,0.093,1.814,0.002c2.055,0.223,3.854,0.92,5.512,2.259
			c2.098,1.692,3.319,3.774,3.782,6.372c-0.096,0.346-0.07,0.688-0.036,0.957c-0.063-0.071-0.04-0.206,0.082-0.338
			c0.204,0.693,0.203,1.386,0.006,2.081c-0.071-0.048-0.1-0.119-0.107-0.201c-0.016,0.035-0.005,0.07-0.002,0.104
			C108.437,33.383,108.354,33.629,108.475,33.856z"/>
		<path fill-rule="evenodd" clip-rule="evenodd" fill="#F68C0E" d="M99.175,21.914c-0.605,0.22-1.209,0.224-1.814-0.002
			C97.966,21.912,98.57,21.913,99.175,21.914z"/>
		<path fill-rule="evenodd" clip-rule="evenodd" fill="#F68E10" d="M108.516,31.164c-0.014,0.108-0.027,0.216-0.041,0.324
			c-0.119-0.315-0.248-0.629-0.005-0.943C108.485,30.751,108.5,30.958,108.516,31.164z"/>
		<path fill-rule="evenodd" clip-rule="evenodd" fill="#F68C0E" d="M87.896,31.707c0.217,0.383,0.216,0.766,0.001,1.149
			C87.897,32.473,87.896,32.09,87.896,31.707z"/>
		<path fill-rule="evenodd" clip-rule="evenodd" fill="#F68D0F" d="M108.475,33.856c-0.228-0.214-0.131-0.491-0.131-0.744
			c0-0.115,0.085-0.091,0.134-0.018c0.027,0.042,0.03,0.1,0.044,0.15C108.506,33.448,108.491,33.652,108.475,33.856z"/>
		<path fill-rule="evenodd" clip-rule="evenodd" fill="#F68D0F" d="M88.026,33.722c0.013-0.05,0.012-0.11,0.04-0.147
			c0.062-0.082,0.125-0.056,0.129,0.037c0.009,0.201,0.058,0.416-0.127,0.575C88.054,34.031,88.04,33.876,88.026,33.722z"/>
		<path fill-rule="evenodd" clip-rule="evenodd" fill="#FEFEFE" d="M102.646,34.473c-0.652,2.086-1.295,2.578-3.429,2.362
			c-0.76-0.077-0.928,0.218-1.074,0.835c-0.072,0.306,0.094,0.89-0.492,0.875c-0.52-0.014-1.031-0.15-0.697-0.903
			c0.11-0.25,0.137-0.535,0.208-0.802c0.075-0.283-0.061-0.411-0.319-0.465c-0.25-0.052-0.505-0.122-0.598,0.229
			c-0.071,0.267-0.165,0.533-0.199,0.805c-0.063,0.507-0.244,0.72-0.814,0.581c-0.621-0.151-0.407-0.516-0.331-0.873
			c0.034-0.163,0.062-0.331,0.128-0.48c0.244-0.543,0.054-0.807-0.514-0.879c-0.245-0.031-0.502-0.081-0.72-0.189
			c-0.27-0.134-0.895,0.103-0.746-0.466c0.112-0.426,0.109-1.189,1.018-0.925c0.424,0.124,0.753-0.134,0.871-0.635
			c0.334-1.428,0.697-2.849,1.066-4.269c0.162-0.624,0.016-1.052-0.669-1.146c-0.553-0.077-0.543-0.379-0.448-0.82
			c0.104-0.481,0.351-0.557,0.759-0.406c0.104,0.039,0.211,0.067,0.318,0.095c1.328,0.335,1.347,0.34,1.699-0.973
			c0.11-0.41,0.257-0.556,0.685-0.453c0.427,0.103,0.632,0.281,0.475,0.742c-0.088,0.261-0.114,0.545-0.212,0.801
			c-0.135,0.353-0.022,0.511,0.331,0.579c0.322,0.062,0.539,0.024,0.587-0.361c0.031-0.246,0.136-0.481,0.169-0.727
			c0.068-0.507,0.313-0.607,0.802-0.498c0.532,0.119,0.482,0.4,0.352,0.772c-0.036,0.104-0.034,0.223-0.08,0.321
			c-0.297,0.644-0.163,1.012,0.561,1.283c0.829,0.31,1.492,0.884,1.511,1.89c0.019,0.95-0.391,1.652-1.369,2.068
			c0.642,0.406,1.043,0.927,1.181,1.624C102.792,34.204,102.805,34.341,102.646,34.473z"/>
		<path fill-rule="evenodd" clip-rule="evenodd" fill="#F69116" d="M100.307,37.159c-0.366,0-0.732,0-1.098,0
			c0-0.028-0.001-0.055-0.001-0.083c0.371,0,0.741,0,1.112,0C100.315,37.104,100.311,37.131,100.307,37.159z"/>
		<path fill-rule="evenodd" clip-rule="evenodd" fill="#F68D0D" d="M102.646,34.473c0.004-0.136,0.008-0.273,0.012-0.409
			c0.159-0.042,0.25,0.233,0.177,0.543c-0.029,0.124-0.092,0.088-0.141,0.018C102.666,34.583,102.662,34.524,102.646,34.473z"/>
		<path fill-rule="evenodd" clip-rule="evenodd" fill="#F6931B" d="M98.615,35.228c-1.874-0.063-1.898-0.162-1.539-1.937
			c0.18-0.889,0.553-0.991,1.266-0.692c0.47,0.197,0.945,0.313,1.363,0.694c0.427,0.389,0.651,0.731,0.451,1.26
			c-0.206,0.543-0.684,0.671-1.211,0.675C98.835,35.229,98.725,35.229,98.615,35.228z"/>
		<path fill-rule="evenodd" clip-rule="evenodd" fill="#F6931B" d="M98.357,31.346c-0.615,0.031-0.808-0.231-0.57-0.808
			c0.052-0.126,0.028-0.291,0.098-0.399c0.233-0.361-0.082-1.04,0.565-1.13c0.694-0.097,1.966,0.663,2.106,1.208
			c0.131,0.509-0.011,0.926-0.548,1.133C99.458,31.396,98.908,31.324,98.357,31.346z"/>
		<path fill-rule="evenodd" clip-rule="evenodd" fill="#F68E0F" d="M98.357,31.346c0.551-0.233,1.102-0.238,1.651,0.003
			C99.458,31.646,98.908,31.514,98.357,31.346z"/>
	</g>
	<rect x="83.657" y="81.137" fill="none" width="109.5" height="27.5"/>
	<text transform="matrix(1 0 0 1 87.1929 87.707)" fill="#FFFFFF" font-family="'Raleway'" font-size="9">Requires Bob’s sig and X</text>
</g>
<g>
	<rect x="238.872" y="15.614" fill="#AFAFAF" width="109" height="77"/>
	<rect x="239.071" y="43.883" fill="none" width="109.256" height="49.11"/>
	<text transform="matrix(1 0 0 1 253.1729 67.3838)" fill="#0A7F0A" font-family="'Raleway'" font-size="19.8649">Payout B</text>
	<rect x="244.038" y="20.155" fill="none" width="103.738" height="12.14"/>
	<text transform="matrix(1 0 0 1 266.0381 30.1973)" enable-background="new    "><tspan x="0" y="0" fill="#FFFFFF" font-family="'Raleway'" font-size="11">BITCOIN</tspan><tspan x="0" y="13.2" fill="#FFFFFF" font-family="'Raleway'" font-size="11">TRANSACTION</tspan></text>
	<g>
		<path fill-rule="evenodd" clip-rule="evenodd" fill="#F6921A" d="M262.975,33.667c-0.597,4.548-4.45,8.171-9.123,8.701
			c-5.457,0.618-10.423-3.285-11.284-8.371c0.085-0.151,0.05-0.316,0.054-0.477c-0.028,0.001,0.112-0.101-0.036-0.051
			c-0.086,0.028,0.035,0.005-0.059,0.064c-0.175-0.269-0.152-0.567-0.129-0.866c0.095-0.383,0.098-0.766-0.002-1.149
			c0.244-5.553,4.655-9.434,9.466-9.796c0.604,0.099,1.209,0.093,1.813,0.002c2.055,0.223,3.854,0.92,5.513,2.259
			c2.098,1.692,3.319,3.774,3.782,6.372c-0.096,0.346-0.07,0.688-0.035,0.957c-0.063-0.071-0.041-0.206,0.081-0.338
			c0.204,0.693,0.203,1.386,0.007,2.081c-0.071-0.048-0.101-0.119-0.107-0.201c-0.016,0.035-0.006,0.07-0.002,0.104
			C262.937,33.194,262.854,33.439,262.975,33.667z"/>
		<path fill-rule="evenodd" clip-rule="evenodd" fill="#F68C0E" d="M253.675,21.724c-0.604,0.22-1.209,0.224-1.813-0.002
			C252.466,21.723,253.07,21.724,253.675,21.724z"/>
		<path fill-rule="evenodd" clip-rule="evenodd" fill="#F68E10" d="M263.016,30.974c-0.014,0.108-0.027,0.216-0.041,0.324
			c-0.118-0.315-0.247-0.629-0.005-0.943C262.985,30.562,263.001,30.768,263.016,30.974z"/>
		<path fill-rule="evenodd" clip-rule="evenodd" fill="#F68C0E" d="M242.396,31.518c0.218,0.383,0.217,0.766,0.002,1.149
			C242.397,32.284,242.396,31.9,242.396,31.518z"/>
		<path fill-rule="evenodd" clip-rule="evenodd" fill="#F68D0F" d="M262.975,33.667c-0.228-0.214-0.131-0.491-0.132-0.744
			c0-0.115,0.086-0.091,0.135-0.018c0.027,0.042,0.03,0.1,0.045,0.15C263.007,33.258,262.991,33.463,262.975,33.667z"/>
		<path fill-rule="evenodd" clip-rule="evenodd" fill="#F68D0F" d="M242.526,33.533c0.012-0.05,0.012-0.11,0.039-0.147
			c0.063-0.082,0.125-0.056,0.129,0.037c0.01,0.201,0.059,0.416-0.127,0.575C242.554,33.842,242.54,33.687,242.526,33.533z"/>
		<path fill-rule="evenodd" clip-rule="evenodd" fill="#FEFEFE" d="M257.146,34.284c-0.652,2.086-1.296,2.578-3.429,2.362
			c-0.76-0.077-0.928,0.218-1.074,0.835c-0.072,0.306,0.094,0.89-0.491,0.875c-0.521-0.014-1.031-0.15-0.697-0.903
			c0.11-0.25,0.137-0.535,0.208-0.802c0.076-0.283-0.061-0.411-0.318-0.465c-0.25-0.052-0.505-0.122-0.598,0.229
			c-0.071,0.267-0.165,0.533-0.199,0.805c-0.063,0.507-0.244,0.72-0.814,0.581c-0.621-0.151-0.406-0.516-0.331-0.873
			c0.034-0.163,0.062-0.331,0.128-0.48c0.244-0.543,0.055-0.807-0.514-0.879c-0.244-0.031-0.502-0.081-0.72-0.189
			c-0.27-0.134-0.896,0.103-0.745-0.466c0.111-0.426,0.109-1.189,1.018-0.925c0.424,0.124,0.753-0.134,0.871-0.635
			c0.334-1.428,0.697-2.849,1.066-4.269c0.162-0.624,0.016-1.052-0.67-1.146c-0.553-0.077-0.543-0.379-0.447-0.82
			c0.104-0.481,0.352-0.557,0.759-0.406c0.104,0.039,0.211,0.067,0.318,0.095c1.328,0.335,1.347,0.34,1.698-0.973
			c0.11-0.41,0.258-0.556,0.686-0.453c0.426,0.103,0.631,0.281,0.475,0.742c-0.088,0.261-0.114,0.545-0.213,0.801
			c-0.135,0.353-0.021,0.511,0.332,0.579c0.321,0.062,0.538,0.024,0.587-0.361c0.03-0.246,0.136-0.481,0.169-0.727
			c0.068-0.507,0.313-0.607,0.803-0.498c0.531,0.119,0.482,0.4,0.352,0.772c-0.036,0.104-0.034,0.223-0.08,0.321
			c-0.297,0.644-0.162,1.012,0.561,1.283c0.829,0.31,1.492,0.884,1.512,1.89c0.018,0.95-0.391,1.652-1.369,2.068
			c0.641,0.406,1.043,0.927,1.181,1.624C257.292,34.015,257.305,34.152,257.146,34.284z"/>
		<path fill-rule="evenodd" clip-rule="evenodd" fill="#F69116" d="M254.808,36.969c-0.366,0-0.732,0-1.099,0
			c-0.001-0.028-0.001-0.055-0.001-0.083c0.37,0,0.74,0,1.111,0C254.815,36.914,254.812,36.941,254.808,36.969z"/>
		<path fill-rule="evenodd" clip-rule="evenodd" fill="#F68D0D" d="M257.146,34.284c0.004-0.136,0.008-0.273,0.012-0.409
			c0.159-0.042,0.251,0.233,0.177,0.543c-0.028,0.124-0.092,0.088-0.141,0.018C257.166,34.394,257.161,34.335,257.146,34.284z"/>
		<path fill-rule="evenodd" clip-rule="evenodd" fill="#F6931B" d="M253.115,35.038c-1.874-0.063-1.897-0.162-1.539-1.937
			c0.181-0.889,0.553-0.991,1.267-0.692c0.469,0.197,0.944,0.313,1.362,0.694c0.427,0.389,0.651,0.731,0.451,1.26
			c-0.206,0.543-0.684,0.671-1.211,0.675C253.335,35.04,253.226,35.039,253.115,35.038z"/>
		<path fill-rule="evenodd" clip-rule="evenodd" fill="#F6931B" d="M252.857,31.157c-0.615,0.031-0.808-0.231-0.57-0.808
			c0.052-0.126,0.028-0.291,0.099-0.399c0.232-0.361-0.082-1.04,0.564-1.13c0.695-0.097,1.967,0.663,2.106,1.208
			c0.131,0.509-0.011,0.926-0.548,1.133C253.958,31.207,253.408,31.135,252.857,31.157z"/>
		<path fill-rule="evenodd" clip-rule="evenodd" fill="#F68E0F" d="M252.857,31.157c0.551-0.233,1.102-0.238,1.651,0.003
			C253.958,31.457,253.407,31.325,252.857,31.157z"/>
	</g>
	<rect x="238.622" y="81.137" fill="none" width="109.5" height="27.5"/>
	<text transform="matrix(1 0 0 1 270.623 88.4365)" fill="#FFFFFF" font-family="'Raleway'" font-size="10">Reveals X</text>
</g>
<g>
	<g>
		<path fill="#666666" d="M435.052,79.087c0,7.194,0,12.897,0,12.897h-42.797c0,0,0-5.702,0-12.897V61.722
			c0-7.192,6.107-14.063,13.301-14.063h17.365c7.195,0,12.131,6.87,12.131,14.063V79.087L435.052,79.087z"/>
		<circle fill="#666666" cx="414.06" cy="30.066" r="15.014"/>
	</g>
	<rect x="393.815" y="63.968" fill="none" width="40.484" height="28.254"/>
	<text transform="matrix(1 0 0 1 399.7939 75.0488)" fill="#FFFFFF" font-family="'Raleway'" font-size="15.1811">Bob</text>
</g>
</svg>
