<?xml version="1.0" encoding="utf-8"?>
<!-- Generator: Adobe Illustrator 16.0.0, SVG Export Plug-In . SVG Version: 6.00 Build 0)  -->
<!DOCTYPE svg PUBLIC "-//W3C//DTD SVG 1.1//EN" "http://www.w3.org/Graphics/SVG/1.1/DTD/svg11.dtd">
<svg version="1.1" id="Layer_1" xmlns="http://www.w3.org/2000/svg" xmlns:xlink="http://www.w3.org/1999/xlink" x="0px" y="0px"
	 width="500px" height="110px" viewBox="0 0 500 110" enable-background="new 0 0 500 110" xml:space="preserve">
<g>
	<g>
		<path fill="#666666" d="M53.746,81.368c0,7.194,0,12.897,0,12.897H10.95c0,0,0-5.702,0-12.897V64.003
			c0-7.192,6.025-14.063,13.218-14.063h17.367c7.193,0,12.211,6.87,12.211,14.063V81.368z"/>
		<circle fill="#666666" cx="32.67" cy="32.347" r="15.014"/>
	</g>
	<rect x="12.429" y="66.249" fill="none" width="40.483" height="28.254"/>
	<text transform="matrix(1 0 0 1 15.2578 77.3301)" fill="#FFFFFF" font-family="'Raleway'" font-size="15.1811">Alice</text>
</g>
<g>
	<line fill="none" stroke="#808080" stroke-width="4" stroke-miterlimit="10" x1="436.32" y1="55" x2="418.32" y2="55"/>
	<polygon fill="#808080" stroke="#808080" stroke-width="2" stroke-miterlimit="10" points="423.861,49.562 424.215,60.428 
		414.627,55.301 	"/>
</g>
<g>
	<line fill="none" stroke="#808080" stroke-width="4" stroke-miterlimit="10" x1="68.218" y1="54.995" x2="86.218" y2="54.995"/>
	<polygon fill="#808080" stroke="#808080" stroke-width="2" stroke-miterlimit="10" points="80.677,60.434 80.323,49.567 
		89.91,54.694 	"/>
</g>
<g>
	<g>
		<path fill="#666666" d="M494.441,80.445c0,7.194,0,12.897,0,12.897h-42.797c0,0,0-5.702,0-12.897V63.08
			c0-7.192,6.107-14.063,13.301-14.063h17.365c7.195,0,12.131,6.87,12.131,14.063V80.445L494.441,80.445z"/>
		<circle fill="#666666" cx="473.449" cy="31.424" r="15.014"/>
	</g>
	<rect x="453.205" y="65.326" fill="none" width="40.484" height="28.254"/>
	<text transform="matrix(1 0 0 1 459.1836 76.4072)" fill="#FFFFFF" font-family="'Raleway'" font-size="15.1811">Bob</text>
</g>
<g>
	<rect x="105.208" y="18.167" fill="#AFAFAF" width="109" height="77"/>
	<rect x="105.407" y="46.436" fill="none" width="109.256" height="49.11"/>
	<text transform="matrix(1 0 0 1 115.5088 75.9365)" fill="#0071BC" font-family="'Raleway'" font-size="19.8649">Deposit A</text>
	<rect x="110.373" y="22.708" fill="none" width="103.739" height="12.14"/>
	<text transform="matrix(1 0 0 1 132.374 32.75)" enable-background="new    "><tspan x="0" y="0" fill="#FFFFFF" font-family="'Raleway'" font-size="11">BITCOIN</tspan><tspan x="0" y="13.2" fill="#FFFFFF" font-family="'Raleway'" font-size="11">TRANSACTION</tspan></text>
	<g>
		<path fill-rule="evenodd" clip-rule="evenodd" fill="#F6921A" d="M129.31,36.219c-0.597,4.548-4.451,8.171-9.123,8.701
			c-5.457,0.618-10.423-3.285-11.284-8.371c0.085-0.151,0.05-0.316,0.054-0.477c-0.028,0.001,0.113-0.101-0.037-0.051
			c-0.085,0.028,0.036,0.005-0.059,0.064c-0.174-0.269-0.151-0.567-0.128-0.866c0.095-0.383,0.098-0.766-0.001-1.149
			c0.244-5.553,4.655-9.434,9.465-9.796c0.604,0.099,1.209,0.093,1.814,0.002c2.055,0.223,3.854,0.92,5.512,2.259
			c2.098,1.692,3.319,3.774,3.782,6.372c-0.096,0.346-0.07,0.688-0.036,0.957c-0.063-0.071-0.04-0.206,0.082-0.338
			c0.204,0.693,0.203,1.386,0.006,2.081c-0.071-0.048-0.1-0.119-0.107-0.201c-0.016,0.035-0.005,0.07-0.002,0.104
			C129.272,35.747,129.19,35.992,129.31,36.219z"/>
		<path fill-rule="evenodd" clip-rule="evenodd" fill="#F68C0E" d="M120.011,24.277c-0.605,0.22-1.209,0.224-1.814-0.002
			C118.801,24.275,119.406,24.276,120.011,24.277z"/>
		<path fill-rule="evenodd" clip-rule="evenodd" fill="#F68E10" d="M129.351,33.527c-0.014,0.108-0.027,0.216-0.041,0.324
			c-0.119-0.315-0.248-0.629-0.005-0.943C129.321,33.114,129.336,33.321,129.351,33.527z"/>
		<path fill-rule="evenodd" clip-rule="evenodd" fill="#F68C0E" d="M108.731,34.07c0.217,0.383,0.216,0.766,0.001,1.149
			C108.732,34.836,108.732,34.453,108.731,34.07z"/>
		<path fill-rule="evenodd" clip-rule="evenodd" fill="#F68D0F" d="M129.31,36.219c-0.228-0.214-0.131-0.491-0.131-0.744
			c0-0.115,0.085-0.091,0.134-0.018c0.027,0.042,0.03,0.1,0.044,0.15C129.342,35.811,129.326,36.016,129.31,36.219z"/>
		<path fill-rule="evenodd" clip-rule="evenodd" fill="#F68D0F" d="M108.861,36.085c0.013-0.05,0.012-0.11,0.04-0.147
			c0.062-0.082,0.125-0.056,0.129,0.037c0.009,0.201,0.058,0.416-0.127,0.575C108.889,36.395,108.875,36.24,108.861,36.085z"/>
		<path fill-rule="evenodd" clip-rule="evenodd" fill="#FEFEFE" d="M123.482,36.836c-0.652,2.086-1.295,2.578-3.429,2.362
			c-0.76-0.077-0.928,0.218-1.074,0.835c-0.072,0.306,0.094,0.89-0.492,0.875c-0.52-0.014-1.031-0.15-0.697-0.903
			c0.11-0.25,0.137-0.535,0.208-0.802c0.075-0.283-0.061-0.411-0.319-0.465c-0.25-0.052-0.505-0.122-0.598,0.229
			c-0.071,0.267-0.165,0.533-0.199,0.805c-0.063,0.507-0.244,0.72-0.814,0.581c-0.621-0.151-0.407-0.516-0.331-0.873
			c0.034-0.163,0.062-0.331,0.128-0.48c0.244-0.543,0.054-0.807-0.514-0.879c-0.245-0.031-0.502-0.081-0.72-0.189
			c-0.27-0.134-0.895,0.103-0.746-0.466c0.112-0.426,0.109-1.189,1.018-0.925c0.424,0.124,0.753-0.134,0.871-0.635
			c0.334-1.428,0.697-2.849,1.066-4.269c0.162-0.624,0.016-1.052-0.669-1.146c-0.553-0.077-0.543-0.379-0.448-0.82
			c0.104-0.481,0.351-0.557,0.759-0.406c0.104,0.039,0.211,0.067,0.318,0.095c1.328,0.335,1.347,0.34,1.699-0.973
			c0.11-0.41,0.257-0.556,0.685-0.453c0.427,0.103,0.632,0.281,0.475,0.742c-0.088,0.261-0.114,0.545-0.212,0.801
			c-0.135,0.353-0.022,0.511,0.331,0.579c0.322,0.062,0.539,0.024,0.587-0.361c0.031-0.246,0.136-0.481,0.169-0.727
			c0.068-0.507,0.313-0.607,0.802-0.498c0.532,0.119,0.482,0.4,0.352,0.772c-0.036,0.104-0.034,0.223-0.08,0.321
			c-0.297,0.644-0.163,1.012,0.561,1.283c0.829,0.31,1.492,0.884,1.511,1.89c0.019,0.95-0.391,1.652-1.369,2.068
			c0.642,0.406,1.043,0.927,1.181,1.624C123.627,36.567,123.64,36.705,123.482,36.836z"/>
		<path fill-rule="evenodd" clip-rule="evenodd" fill="#F69116" d="M121.143,39.522c-0.366,0-0.732,0-1.098,0
			c0-0.028-0.001-0.055-0.001-0.083c0.371,0,0.741,0,1.112,0C121.15,39.467,121.146,39.494,121.143,39.522z"/>
		<path fill-rule="evenodd" clip-rule="evenodd" fill="#F68D0D" d="M123.482,36.836c0.004-0.136,0.008-0.273,0.012-0.409
			c0.159-0.042,0.25,0.233,0.177,0.543c-0.029,0.124-0.092,0.088-0.141,0.018C123.501,36.946,123.497,36.888,123.482,36.836z"/>
		<path fill-rule="evenodd" clip-rule="evenodd" fill="#F6931B" d="M119.451,37.591c-1.874-0.063-1.898-0.162-1.539-1.937
			c0.18-0.889,0.553-0.991,1.266-0.692c0.47,0.197,0.945,0.313,1.363,0.694c0.427,0.389,0.651,0.731,0.451,1.26
			c-0.206,0.543-0.684,0.671-1.211,0.675C119.671,37.592,119.561,37.592,119.451,37.591z"/>
		<path fill-rule="evenodd" clip-rule="evenodd" fill="#F6931B" d="M119.193,33.709c-0.615,0.031-0.808-0.231-0.57-0.808
			c0.052-0.126,0.028-0.291,0.098-0.399c0.233-0.361-0.082-1.04,0.565-1.13c0.694-0.097,1.966,0.663,2.106,1.208
			c0.131,0.509-0.011,0.926-0.548,1.133C120.293,33.76,119.744,33.688,119.193,33.709z"/>
		<path fill-rule="evenodd" clip-rule="evenodd" fill="#F68E0F" d="M119.193,33.709c0.551-0.233,1.102-0.238,1.651,0.003
			C120.293,34.009,119.743,33.877,119.193,33.709z"/>
	</g>
</g>
<g>
	<rect x="288.117" y="18.111" fill="#AFAFAF" width="109" height="77"/>
	<rect x="288.316" y="46.38" fill="none" width="109.256" height="49.11"/>
	<text transform="matrix(1 0 0 1 298.418 75.8809)" fill="#0071BC" font-family="'Raleway'" font-size="19.8649">Deposit B</text>
	<text transform="matrix(1 0 0 1 314.2832 32.6938)" enable-background="new    "><tspan x="0" y="0" fill="#FFFFFF" font-family="'Raleway'" font-size="11">LITECOIN</tspan><tspan x="0" y="13.2" fill="#FFFFFF" font-family="'Raleway'" font-size="11">TRANSACTION</tspan></text>
	<g>
		<path fill-rule="evenodd" clip-rule="evenodd" fill="#3D3E3C" d="M300.495,24.904c0.662,0,1.324,0,1.987,0
			c0.334,0.064,0.675,0.053,1.013,0.086c1.272,0.126,2.417,0.621,3.496,1.266c2.516,1.504,4.162,3.682,4.937,6.511
			c0.146,0.537,0.149,1.094,0.171,1.646c0.019,0.142-0.039,0.29,0.036,0.427c0,0.473,0,0.946,0,1.419
			c-0.072,0.117-0.02,0.247-0.036,0.37c0.011,1.662-0.563,3.14-1.416,4.533c-1.031,1.685-2.434,2.98-4.176,3.887
			c-1.211,0.631-2.484,1.065-3.885,1.088c-1.017,0.017-2.03,0.035-3.041-0.056c-1.1-0.099-2.107-0.521-3.078-1.014
			c-1.038-0.526-1.973-1.214-2.777-2.06c-1.311-1.378-2.243-2.975-2.698-4.832c-0.124-0.504-0.133-1.027-0.149-1.545
			c-0.017-0.124,0.037-0.254-0.035-0.372c0-0.497,0-0.994,0-1.491c0.072-0.116,0.019-0.244,0.035-0.365
			c-0.013-1.65,0.554-3.121,1.398-4.505c1.041-1.706,2.46-3.018,4.225-3.939c1.193-0.623,2.452-1.053,3.826-1.021
			C300.386,24.941,300.446,24.95,300.495,24.904z"/>
		<path fill-rule="evenodd" clip-rule="evenodd" fill="#9C9D9C" d="M312.073,34.407c0.021-0.005,0.042-0.002,0.062,0.008
			c0,0.142,0,0.284,0,0.426C312.031,34.708,312.058,34.557,312.073,34.407z"/>
		<path fill-rule="evenodd" clip-rule="evenodd" fill="#9C9D9C" d="M290.843,34.415c0.02-0.01,0.04-0.012,0.061-0.008
			c0.019,0.127,0.043,0.256-0.061,0.362C290.843,34.651,290.843,34.533,290.843,34.415z"/>
		<path fill-rule="evenodd" clip-rule="evenodd" fill="#9C9D9C" d="M290.903,36.623l-0.031,0.001l-0.029-0.009
			c0-0.119,0-0.237,0-0.355C290.946,36.367,290.922,36.496,290.903,36.623z"/>
		<path fill-rule="evenodd" clip-rule="evenodd" fill="#9C9D9C" d="M312.135,36.615l-0.03,0.009l-0.031-0.001
			c-0.019-0.127-0.043-0.256,0.062-0.363C312.135,36.378,312.135,36.497,312.135,36.615z"/>
		<path fill-rule="evenodd" clip-rule="evenodd" fill="#F5F6F7" d="M301.493,44.785c-5.064,0.128-9.332-4.214-9.334-9.265
			c-0.002-5.059,4.269-9.299,9.324-9.302c5.064-0.003,9.351,4.248,9.334,9.328C310.802,40.58,306.545,44.908,301.493,44.785z"/>
		<path fill-rule="evenodd" clip-rule="evenodd" fill="#F5F6F7" d="M301.538,26.466c5.039,0.022,9.17,4.047,9.101,9.246
			c-0.064,4.879-4.021,9.029-9.329,8.92c-4.865-0.1-8.949-4.023-8.896-9.195C292.466,30.49,296.431,26.488,301.538,26.466z"/>
		<path fill-rule="evenodd" clip-rule="evenodd" fill="#F7F8F8" d="M303.76,44.067c-0.296,0.241-0.669,0.229-1.01,0.271
			c-2.536,0.314-4.827-0.295-6.829-1.899c-1.826-1.463-2.893-3.38-3.218-5.683c-0.307-2.162,0.144-4.196,1.341-6.021
			c1.409-2.148,3.402-3.461,5.944-3.92c1.396-0.253,2.78-0.18,4.127,0.242c1.89,0.592,3.451,1.67,4.621,3.288
			c0.545,0.753,0.948,1.577,1.262,2.448c0.057,0.158,0.09,0.318,0.078,0.486c-0.062,0.09-0.101,0.209-0.247,0.184
			c-0.284-0.205-0.212-0.561-0.352-0.827c-0.011-0.135-0.05-0.259-0.146-0.359c-0.075-0.11-0.098-0.241-0.145-0.362
			c-0.027-0.141-0.092-0.264-0.191-0.368c-0.184-0.265-0.36-0.535-0.512-0.82c-0.025-0.104-0.072-0.196-0.151-0.27
			c-0.021-0.021-0.04-0.044-0.057-0.069c-0.044-0.097-0.115-0.169-0.205-0.225c-0.106-0.092-0.209-0.187-0.286-0.307
			c-0.042-0.098-0.095-0.188-0.192-0.243c-0.038-0.027-0.07-0.06-0.098-0.097c-0.055-0.096-0.142-0.151-0.241-0.191
			c-0.119-0.076-0.214-0.179-0.305-0.285c-0.058-0.087-0.123-0.164-0.223-0.206c-0.025-0.015-0.049-0.033-0.07-0.054
			c-0.071-0.078-0.16-0.127-0.263-0.154c-0.098-0.021-0.164-0.085-0.227-0.155c-0.086-0.121-0.211-0.172-0.35-0.201
			c-0.311-0.199-0.66-0.317-0.983-0.489c-0.101-0.097-0.224-0.141-0.36-0.151c-0.517-0.166-1.043-0.298-1.569-0.426
			c-0.122-0.044-0.247-0.07-0.378-0.066c-0.058,0-0.115-0.002-0.171-0.019c-0.555-0.083-1.109-0.084-1.663,0
			c-0.057,0.016-0.114,0.018-0.172,0.018c-0.132-0.005-0.258,0.023-0.383,0.062c-0.547,0.045-1.049,0.259-1.565,0.416
			c-0.132,0.028-0.261,0.068-0.374,0.146c-0.315,0.179-0.669,0.281-0.969,0.489c-0.131,0.05-0.263,0.099-0.363,0.203
			c-0.077,0.053-0.143,0.123-0.228,0.165c-0.123,0.042-0.21,0.136-0.306,0.217c-1.087,0.846-1.932,1.889-2.505,3.139
			c-0.326,0.711-0.633,1.438-0.687,2.237c-0.045,0.119-0.066,0.242-0.063,0.37c-0.001,0.076,0,0.153-0.018,0.228
			c-0.084,0.493-0.084,0.985,0,1.478c0.018,0.076,0.017,0.153,0.018,0.23c-0.005,0.132,0.024,0.258,0.065,0.382
			c0.028,0.55,0.215,1.061,0.401,1.57c0.041,0.128,0.075,0.259,0.151,0.373c0.037,0.125,0.107,0.235,0.16,0.354
			c0.032,0.141,0.105,0.26,0.196,0.37c0.128,0.292,0.306,0.553,0.483,0.814c0.051,0.093,0.095,0.19,0.179,0.26
			c0.021,0.021,0.04,0.045,0.057,0.07c0.041,0.099,0.115,0.172,0.19,0.245c0.081,0.113,0.187,0.201,0.286,0.296
			c0.053,0.092,0.105,0.184,0.2,0.241c0.037,0.027,0.069,0.06,0.098,0.096c0.057,0.094,0.146,0.149,0.24,0.2
			c0.094,0.099,0.182,0.204,0.293,0.285c0.073,0.072,0.141,0.15,0.24,0.19c0.026,0.014,0.05,0.032,0.071,0.053
			c0.068,0.08,0.154,0.134,0.25,0.174c0.076,0.05,0.154,0.097,0.226,0.154c0.099,0.103,0.229,0.152,0.354,0.209
			c0.313,0.181,0.634,0.342,0.966,0.483c0.116,0.073,0.245,0.116,0.377,0.152c0.508,0.192,1.02,0.371,1.568,0.408
			c0.126,0.036,0.252,0.068,0.385,0.063c0.058,0,0.116,0.002,0.173,0.017c0.555,0.086,1.11,0.085,1.665,0.001
			c0.056-0.016,0.113-0.018,0.171-0.019c0.132,0.004,0.259-0.022,0.383-0.063c0.168-0.025,0.326-0.105,0.502-0.078
			C303.589,43.815,303.73,43.862,303.76,44.067z"/>
		<path fill-rule="evenodd" clip-rule="evenodd" fill="#F8F9F9" d="M303.76,44.067c-0.109-0.069-0.212-0.158-0.355-0.142
			c-0.068-0.067-0.136-0.136-0.079-0.244c0.099-0.114,0.239-0.141,0.374-0.183c3.134-0.965,5.116-3.028,5.901-6.217
			c0.129-0.524,0.202-1.064,0.188-1.61c-0.006-0.222-0.03-0.449,0.058-0.665c0.226-0.303,0.008-0.613,0.017-0.919
			c0.005-0.222-0.212-0.444,0-0.666c0.071-0.047,0.142-0.095,0.213-0.142c0.177,0.819,0.319,1.643,0.282,2.484
			c-0.093,2.107-0.779,3.973-2.189,5.575C306.968,42.703,305.497,43.591,303.76,44.067z"/>
		<path fill-rule="evenodd" clip-rule="evenodd" fill="#F9F9FA" d="M309.863,33.421c0.062,0.388,0.123,0.776,0.187,1.164
			c0.028,0.173,0.072,0.349-0.115,0.468c-0.189-0.114-0.193-0.31-0.218-0.497c-0.213-1.638-0.857-3.1-1.92-4.349
			c-1.251-1.472-2.865-2.399-4.764-2.734c-3.076-0.542-5.682,0.425-7.757,2.717c-1.117,1.233-1.745,2.741-1.947,4.407
			c-0.288,2.379,0.415,4.481,1.923,6.286c1.371,1.64,3.186,2.554,5.315,2.833c0.793,0.104,1.576,0.069,2.361-0.059
			c0.138-0.022,0.283-0.055,0.405,0.056c0.023,0.071,0.047,0.142,0.07,0.213c-0.165,0.023-0.331,0.047-0.496,0.071
			c-0.106,0.086-0.249-0.015-0.355,0.071c-0.047,0-0.095,0-0.142,0c-0.592,0.059-1.183,0.059-1.774,0c-0.047,0-0.095,0-0.142,0
			c-0.106-0.086-0.249,0.015-0.355-0.071c-0.574-0.024-1.114-0.184-1.632-0.426c-0.112-0.063-0.243-0.08-0.355-0.142
			c-0.353-0.122-0.686-0.284-0.993-0.497c-0.107-0.089-0.247-0.124-0.354-0.213c-0.071-0.047-0.143-0.095-0.214-0.142
			c-0.099-0.064-0.184-0.148-0.283-0.213c-0.1-0.065-0.186-0.147-0.284-0.213c-0.119-0.07-0.214-0.165-0.284-0.284
			c-0.099-0.065-0.185-0.148-0.283-0.213c-0.024-0.024-0.048-0.047-0.071-0.071c-0.065-0.099-0.147-0.185-0.213-0.284
			c-0.119-0.07-0.214-0.165-0.284-0.284c-0.065-0.099-0.147-0.185-0.213-0.284c-0.064-0.1-0.148-0.185-0.213-0.284
			c-0.204-0.262-0.395-0.531-0.497-0.852c-0.089-0.107-0.123-0.248-0.213-0.354c-0.047-0.119-0.095-0.237-0.142-0.355
			c-0.063-0.112-0.079-0.243-0.142-0.355c-0.242-0.518-0.402-1.058-0.426-1.632c-0.087-0.106,0.015-0.249-0.071-0.355
			c0-0.071,0-0.142,0-0.213c-0.058-0.521-0.058-1.041,0-1.562c0-0.071,0-0.142,0-0.213c0.086-0.105-0.016-0.249,0.071-0.354
			c0.059-0.991,0.459-1.875,0.913-2.727c0.576-1.082,1.357-2.006,2.352-2.739c0.099-0.065,0.186-0.147,0.283-0.213
			c0.071-0.047,0.143-0.094,0.214-0.142c0.106-0.089,0.247-0.124,0.354-0.213c0.305-0.219,0.665-0.327,0.993-0.497
			c0.112-0.063,0.243-0.079,0.355-0.142c0.536-0.173,1.058-0.402,1.632-0.426c0.106-0.086,0.249,0.016,0.355-0.071
			c0.047,0,0.095,0,0.142,0c0.592-0.059,1.183-0.059,1.774,0c0.047,0,0.095,0,0.142,0c0.106,0.086,0.249-0.015,0.355,0.071
			c0.544,0.142,1.088,0.284,1.632,0.426c0.112,0.063,0.243,0.08,0.355,0.142c0.331,0.166,0.662,0.332,0.993,0.497
			c0.107,0.089,0.247,0.125,0.354,0.213c0.045,0.087,0.116,0.134,0.214,0.142c0.099,0.065,0.185,0.148,0.283,0.213
			c0.1,0.065,0.185,0.149,0.284,0.213c0.07,0.119,0.164,0.214,0.284,0.284c0.099,0.065,0.185,0.148,0.283,0.213
			c0.024,0.023,0.048,0.047,0.071,0.071c0.064,0.099,0.147,0.185,0.213,0.284c0.07,0.119,0.165,0.214,0.284,0.284
			c0.064,0.1,0.148,0.185,0.213,0.284c0.064,0.099,0.147,0.185,0.213,0.284c0.12,0.31,0.335,0.566,0.497,0.852
			c0.089,0.107,0.123,0.248,0.213,0.355c0.028,0.125,0.053,0.253,0.142,0.355c0.062,0.112,0.079,0.243,0.142,0.354
			C309.683,32.851,309.697,33.161,309.863,33.421z"/>
		<path fill-rule="evenodd" clip-rule="evenodd" fill="#F8F9F9" d="M302.411,27.034c-0.592,0-1.183,0-1.774,0
			C301.229,26.919,301.819,26.919,302.411,27.034z"/>
		<path fill-rule="evenodd" clip-rule="evenodd" fill="#F8F9F9" d="M300.637,44.067c0.592,0,1.183,0,1.774,0
			C301.819,44.182,301.229,44.182,300.637,44.067z"/>
		<path fill-rule="evenodd" clip-rule="evenodd" fill="#F8F9F9" d="M292.972,34.77c0,0.521,0,1.041,0,1.562
			C292.855,35.811,292.855,35.29,292.972,34.77z"/>
		<path fill-rule="evenodd" clip-rule="evenodd" fill="#F8F9F9" d="M293.752,39.241c0.137,0.079,0.187,0.21,0.213,0.354
			C293.829,39.517,293.778,39.386,293.752,39.241z"/>
		<path fill-rule="evenodd" clip-rule="evenodd" fill="#F8F9F9" d="M309.296,31.86c-0.137-0.079-0.187-0.21-0.213-0.355
			C309.219,31.584,309.27,31.715,309.296,31.86z"/>
		<path fill-rule="evenodd" clip-rule="evenodd" fill="#F8F9F9" d="M296.805,42.719c0.145,0.026,0.275,0.077,0.354,0.213
			C297.014,42.905,296.884,42.855,296.805,42.719z"/>
		<path fill-rule="evenodd" clip-rule="evenodd" fill="#F8F9F9" d="M306.243,28.382c-0.145-0.026-0.275-0.077-0.354-0.213
			C306.034,28.196,306.164,28.246,306.243,28.382z"/>
		<path fill-rule="evenodd" clip-rule="evenodd" fill="#F8F9F9" d="M297.159,28.169c-0.079,0.136-0.21,0.187-0.354,0.213
			C296.884,28.246,297.014,28.196,297.159,28.169z"/>
		<path fill-rule="evenodd" clip-rule="evenodd" fill="#F8F9F9" d="M307.876,29.802c-0.112-0.063-0.198-0.147-0.213-0.284
			C307.775,29.581,307.862,29.665,307.876,29.802z"/>
		<path fill-rule="evenodd" clip-rule="evenodd" fill="#F8F9F9" d="M309.579,32.569c-0.105-0.095-0.143-0.217-0.142-0.354
			C309.543,32.31,309.58,32.432,309.579,32.569z"/>
		<path fill-rule="evenodd" clip-rule="evenodd" fill="#F8F9F9" d="M304.896,27.672c-0.138,0-0.261-0.036-0.355-0.142
			C304.678,27.53,304.8,27.566,304.896,27.672z"/>
		<path fill-rule="evenodd" clip-rule="evenodd" fill="#F8F9F9" d="M298.508,27.53c-0.095,0.106-0.218,0.143-0.355,0.142
			C298.248,27.566,298.37,27.53,298.508,27.53z"/>
		<path fill-rule="evenodd" clip-rule="evenodd" fill="#F8F9F9" d="M296.591,28.524c-0.063,0.113-0.146,0.199-0.283,0.213
			C296.371,28.625,296.454,28.538,296.591,28.524z"/>
		<path fill-rule="evenodd" clip-rule="evenodd" fill="#F8F9F9" d="M294.462,40.448c0.112,0.063,0.199,0.146,0.213,0.284
			C294.563,40.668,294.477,40.585,294.462,40.448z"/>
		<path fill-rule="evenodd" clip-rule="evenodd" fill="#F8F9F9" d="M294.675,40.731c0.112,0.063,0.199,0.146,0.213,0.284
			C294.775,40.952,294.689,40.869,294.675,40.731z"/>
		<path fill-rule="evenodd" clip-rule="evenodd" fill="#F8F9F9" d="M306.74,28.737c-0.137-0.014-0.22-0.1-0.283-0.213
			C306.594,28.538,306.677,28.625,306.74,28.737z"/>
		<path fill-rule="evenodd" clip-rule="evenodd" fill="#F8F9F9" d="M295.172,41.299c0.112,0.063,0.198,0.146,0.213,0.284
			C295.272,41.52,295.187,41.437,295.172,41.299z"/>
		<path fill-rule="evenodd" clip-rule="evenodd" fill="#F8F9F9" d="M293.469,38.531c0.105,0.095,0.143,0.218,0.142,0.355
			C293.505,38.792,293.468,38.669,293.469,38.531z"/>
		<path fill-rule="evenodd" clip-rule="evenodd" fill="#F8F9F9" d="M296.023,42.151c0.138,0.014,0.221,0.101,0.284,0.213
			C296.17,42.35,296.087,42.263,296.023,42.151z"/>
		<path fill-rule="evenodd" clip-rule="evenodd" fill="#F8F9F9" d="M296.308,42.364c0.137,0.014,0.22,0.101,0.283,0.213
			C296.454,42.563,296.371,42.477,296.308,42.364z"/>
		<path fill-rule="evenodd" clip-rule="evenodd" fill="#F8F9F9" d="M307.024,28.95c-0.138-0.015-0.221-0.101-0.284-0.213
			C306.878,28.751,306.961,28.837,307.024,28.95z"/>
		<path fill-rule="evenodd" clip-rule="evenodd" fill="#F8F9F9" d="M307.592,29.447c-0.137-0.014-0.22-0.101-0.283-0.213
			C307.445,29.248,307.528,29.334,307.592,29.447z"/>
		<path fill-rule="evenodd" clip-rule="evenodd" fill="#F8F9F9" d="M298.152,43.429c0.138,0,0.261,0.036,0.355,0.142
			C298.37,43.571,298.248,43.534,298.152,43.429z"/>
		<path fill-rule="evenodd" clip-rule="evenodd" fill="#F8F9F9" d="M308.373,30.37c-0.112-0.064-0.199-0.147-0.213-0.284
			C308.272,30.149,308.358,30.232,308.373,30.37z"/>
		<path fill-rule="evenodd" clip-rule="evenodd" fill="#F8F9F9" d="M308.586,30.653c-0.112-0.063-0.199-0.146-0.213-0.284
			C308.485,30.433,308.571,30.516,308.586,30.653z"/>
		<path fill-rule="evenodd" clip-rule="evenodd" fill="#F8F9F9" d="M295.456,41.654c0.137,0.014,0.22,0.101,0.283,0.213
			C295.603,41.853,295.52,41.767,295.456,41.654z"/>
		<path fill-rule="evenodd" clip-rule="evenodd" fill="#F8F9F9" d="M302.908,27.104c-0.122-0.007-0.252,0.026-0.355-0.071
			C302.675,27.041,302.805,27.008,302.908,27.104z"/>
		<path fill-rule="evenodd" clip-rule="evenodd" fill="#F8F9F9" d="M300.495,27.034c-0.104,0.097-0.233,0.064-0.355,0.071
			C300.243,27.008,300.373,27.041,300.495,27.034z"/>
		<path fill-rule="evenodd" clip-rule="evenodd" fill="#F8F9F9" d="M293.043,34.202c-0.008,0.122,0.025,0.251-0.071,0.354
			C292.979,34.435,292.945,34.306,293.043,34.202z"/>
		<path fill-rule="evenodd" clip-rule="evenodd" fill="#F8F9F9" d="M300.14,43.996c0.122,0.007,0.252-0.026,0.355,0.071
			C300.373,44.06,300.243,44.093,300.14,43.996z"/>
		<path fill-rule="evenodd" clip-rule="evenodd" fill="#F8F9F9" d="M302.553,44.067c0.104-0.097,0.233-0.064,0.355-0.071
			C302.805,44.093,302.675,44.06,302.553,44.067z"/>
		<path fill-rule="evenodd" clip-rule="evenodd" fill="#F8F9F9" d="M292.972,36.544c0.097,0.104,0.063,0.233,0.071,0.355
			C292.945,36.795,292.979,36.666,292.972,36.544z"/>
		<path fill-rule="evenodd" clip-rule="evenodd" fill="#FBFBFB" d="M303.334,43.712c-0.889,0.237-1.788,0.253-2.7,0.164
			c-1.323-0.13-2.533-0.579-3.642-1.284c-2.053-1.307-3.269-3.198-3.735-5.572c-0.425-2.16,0.055-4.157,1.206-5.995
			c1.149-1.833,2.823-3.001,4.898-3.559c2.819-0.757,5.38-0.116,7.603,1.706c1.681,1.376,2.624,3.223,2.901,5.392
			c0.021,0.163,0.046,0.326,0.069,0.489c0.066,1.567-0.218,3.063-0.983,4.44c-1.19,2.137-2.958,3.555-5.338,4.182
			C303.523,43.7,303.427,43.701,303.334,43.712z"/>
		<path fill-rule="evenodd" clip-rule="evenodd" fill="#FDFDFD" d="M305.747,28.95c0.047,0.023,0.095,0.047,0.142,0.071
			c0.156,0.101,0.324,0.188,0.426,0.355c0.106,0.055,0.225,0.094,0.284,0.213c0.602,0.448,1.092,0.999,1.49,1.632
			c0.023,0.047,0.048,0.095,0.071,0.142c0.155,0.151,0.237,0.35,0.342,0.534c0.498,0.988,0.808,2.02,0.874,3.136
			c0.077,1.285-0.129,2.502-0.643,3.678c-0.67,1.534-1.74,2.714-3.16,3.575c-1.042,0.631-2.178,0.965-3.398,1.085
			c-1.129,0.111-2.196-0.077-3.257-0.413c-0.135-0.042-0.267-0.093-0.41-0.099c-0.211-0.17-0.485-0.213-0.71-0.355l0,0
			c-0.728-0.416-1.396-0.905-1.981-1.512c-0.503-0.521-0.915-1.099-1.256-1.733c-0.496-0.975-0.814-1.991-0.891-3.095
			c-0.074-1.083,0.053-2.125,0.383-3.15c0.285-0.886,0.748-1.674,1.325-2.398c0.085-0.071,0.158-0.167,0.291-0.125
			c0.123,0.159,0.004,0.274-0.067,0.403c-0.134,0.24-0.396,0.389-0.468,0.67c-0.363,0.691-0.698,1.394-0.901,2.153
			c-0.128,0.466-0.193,0.941-0.203,1.424c-0.026,0.149-0.099,0.295-0.035,0.453c0.016,0.033,0.026,0.067,0.036,0.102
			c0.015,0.512,0.031,1.024,0.22,1.51c0.038,0.602,0.32,1.127,0.524,1.677c0.253,0.542,0.629,1.005,0.971,1.491
			c0.476,0.447,0.917,0.933,1.473,1.289c0.501,0.38,1.059,0.654,1.642,0.884c0.173,0.068,0.353-0.002,0.522,0.055
			c0.137,0.142,0.327,0.122,0.495,0.157c1.972,0.407,3.825,0.104,5.547-0.944c0.732-0.446,1.364-1.012,1.892-1.688
			c0.167-0.214,0.358-0.407,0.529-0.616c0.48-0.655,0.826-1.367,0.91-2.187c0.024-0.499,0.168-0.982,0.19-1.481
			c0.015-0.149,0.107-0.285,0.079-0.443c-0.026-0.551-0.089-1.097-0.242-1.628c-0.196-0.521-0.406-1.038-0.584-1.567
			c-0.194-0.571-0.579-1.02-0.953-1.476c-0.477-0.442-0.935-0.903-1.44-1.312c-0.639-0.519-1.369-0.842-2.168-1.019
			c-0.568-0.158-1.151-0.231-1.734-0.305c-0.279-0.099-0.559-0.097-0.838,0.002c-0.375-0.015-0.743,0.183-1.124,0.045
			c-0.112-0.128-0.04-0.214,0.068-0.291c0.033-0.017,0.069-0.028,0.106-0.031c0.126,0,0.252-0.007,0.368-0.065
			c0.035-0.005,0.07-0.008,0.105-0.009c0.193-0.001,0.388,0.013,0.574-0.057c0.036-0.008,0.071-0.013,0.107-0.014
			c0.184-0.002,0.367-0.002,0.552,0c0.037,0,0.073,0.004,0.11,0.011c0.176,0.088,0.365,0.051,0.549,0.06
			c1.028,0.154,2.012,0.446,2.918,0.967C305.521,28.781,305.653,28.838,305.747,28.95z"/>
		<path fill-rule="evenodd" clip-rule="evenodd" fill="#FCFCFD" d="M298.508,42.861c0.325-0.109,0.596,0.098,0.882,0.174
			c2.657,0.701,5.066,0.188,7.175-1.546c1.568-1.29,2.489-2.999,2.712-5.021c0.163-1.476-0.038-2.923-0.703-4.279
			c-0.051-0.105-0.087-0.219-0.129-0.328c0.023-0.025,0.047-0.025,0.07,0c0.246,0.184,0.283,0.486,0.391,0.74
			c0.39,0.922,0.606,1.902,0.589,2.895c-0.035,2.091-0.721,3.946-2.184,5.488c-1.285,1.355-2.857,2.146-4.689,2.425
			C301.203,43.624,299.827,43.436,298.508,42.861z"/>
		<path fill-rule="evenodd" clip-rule="evenodd" fill="#FCFCFD" d="M295.456,30.653c-0.724,0.819-1.189,1.774-1.486,2.819
			c-0.198,0.698-0.264,1.42-0.269,2.131c-0.006,0.99,0.166,1.97,0.565,2.893c0.116,0.27,0.226,0.543,0.338,0.815
			c-0.024,0.032-0.048,0.032-0.071,0c-0.507-0.882-0.791-1.839-0.917-2.84c-0.159-1.26,0.009-2.487,0.451-3.677
			c0.655-1.757,1.811-3.097,3.404-4.068c0.099-0.06,0.217-0.088,0.326-0.131c0.007,0.015,0.014,0.031,0.021,0.046
			c-0.012,0.188-0.18,0.244-0.302,0.316c-0.583,0.342-1.115,0.746-1.568,1.247C295.798,30.372,295.569,30.45,295.456,30.653z"/>
		<path fill-rule="evenodd" clip-rule="evenodd" fill="#FCFCFD" d="M305.747,28.95c-0.336-0.164-0.672-0.328-1.009-0.49
			c-0.715-0.345-1.481-0.509-2.256-0.646c-0.181-0.096-0.388,0.025-0.568-0.071c-0.023,0-0.047,0-0.07,0
			c-0.213-0.055-0.427-0.055-0.64,0c-0.205,0.094-0.434-0.023-0.639,0.071c-0.023,0-0.047,0-0.07,0
			c-0.106,0.086-0.249-0.016-0.355,0.071c-0.023,0-0.047,0-0.07,0c-0.645,0.297-1.355,0.419-1.985,0.753
			c-0.1,0.053-0.204,0.056-0.286-0.043l0,0c0.185-0.247,0.485-0.288,0.74-0.39c0.994-0.4,2.035-0.628,3.108-0.596
			c1.39,0.042,2.703,0.397,3.911,1.104C305.654,28.77,305.735,28.83,305.747,28.95z"/>
		<path fill-rule="evenodd" clip-rule="evenodd" fill="#FCFCFD" d="M294.533,39.312c0.023,0,0.047,0,0.071,0
			c0.429,0.605,0.815,1.24,1.36,1.76c0.464,0.444,0.952,0.845,1.505,1.171c0.119,0.07,0.255,0.131,0.328,0.263
			c-0.562-0.183-1.01-0.556-1.441-0.929C295.614,40.937,294.969,40.205,294.533,39.312z"/>
		<path fill-rule="evenodd" clip-rule="evenodd" fill="#FCFCFD" d="M308.089,31.221c-0.497-0.544-0.993-1.088-1.49-1.632
			c0.035,0.002,0.081-0.008,0.104,0.01C307.271,30.048,307.831,30.505,308.089,31.221z"/>
		<path fill-rule="evenodd" clip-rule="evenodd" fill="#FCFCFD" d="M297.798,42.506c0.27,0.052,0.532,0.119,0.71,0.355
			C298.264,42.757,297.978,42.738,297.798,42.506z"/>
		<path fill-rule="evenodd" clip-rule="evenodd" fill="#FCFCFD" d="M308.515,31.86c-0.023,0-0.047,0-0.07,0
			c-0.13-0.146-0.252-0.295-0.284-0.497C308.421,31.426,308.444,31.66,308.515,31.86z"/>
		<path fill-rule="evenodd" clip-rule="evenodd" fill="#FCFCFD" d="M306.314,29.376c-0.176-0.078-0.328-0.184-0.426-0.355
			C306.109,29.045,306.292,29.114,306.314,29.376z"/>
		<path fill-rule="evenodd" clip-rule="evenodd" fill="#FEFEFE" d="M308.858,33.702c0.265,0.364,0.212,0.805,0.29,1.213
			c0.03,0.159,0.005,0.329,0.005,0.494c-0.055,0.054-0.083,0.131-0.151,0.172c-0.447,0.299-0.97,0.418-1.461,0.607
			c-0.868,0.333-1.755,0.619-2.612,0.978c-0.912,0.381-1.859,0.36-2.813,0.33c-0.06-0.002-0.114-0.026-0.16-0.066
			c-0.161-0.213-0.055-0.425,0.002-0.637c0.057-0.214,0.083-0.439,0.212-0.629c0.271-0.271,0.646-0.33,0.981-0.463
			c1.742-0.694,3.502-1.341,5.266-1.978C308.563,33.668,308.707,33.608,308.858,33.702z"/>
		<path fill-rule="evenodd" clip-rule="evenodd" fill="#B5B6B9" d="M307.921,39.592c-0.713,1.02-1.566,1.891-2.662,2.501
			c-1.796,1-3.696,1.232-5.687,0.746c-0.076-0.019-0.279,0.027-0.201-0.188c0.062-0.182,0.227-0.23,0.38-0.287
			c1.239-0.461,2.485-0.907,3.721-1.379c0.111-0.042,0.229-0.05,0.283-0.063c-0.308,0.062-0.682,0.029-1.053,0.031
			c-0.875,0.003-1.75,0.006-2.625-0.002c-0.17-0.002-0.366,0.032-0.45-0.188c0.075-0.177,0.235-0.181,0.389-0.182
			c1.454-0.009,2.908-0.032,4.361,0.012c0.47,0.014,0.942,0.037,1.413,0.057c0.343,0.014,0.575-0.083,0.643-0.448
			c0.017-0.093,0.063-0.178,0.124-0.252c0.306-0.255,0.688-0.347,1.052-0.47C307.708,39.446,307.89,39.355,307.921,39.592z"/>
		<path fill-rule="evenodd" clip-rule="evenodd" fill="#B5B6B9" d="M299.928,28.089c0.38-0.048,0.76-0.097,1.141-0.145
			c0.28-0.038,0.561-0.038,0.841,0c0.602,0.087,1.218,0.101,1.782,0.367c-0.008,0.25-0.224,0.271-0.385,0.343
			c-0.438,0.193-0.93,0.245-1.349,0.494c-0.633,0.056-1.268,0.026-1.901,0.022c-0.314-0.002-0.48,0.115-0.537,0.422
			c-0.033,0.182-0.063,0.373-0.203,0.516c-1.265,0.509-2.555,0.951-3.83,1.431c-0.147,0.056-0.318,0.129-0.444-0.056
			c0.133-0.378,0.484-0.611,0.646-0.97c0.253-0.466,0.676-0.769,1.076-1.084c0.82-0.647,1.75-1.084,2.762-1.344
			C299.656,28.051,299.796,27.971,299.928,28.089z"/>
		<path fill-rule="evenodd" clip-rule="evenodd" fill="#B5B6B9" d="M308.858,33.702c-1.79,0.667-3.582,1.33-5.371,2.001
			c-0.407,0.153-0.834,0.261-1.211,0.49c-0.164-0.284,0.044-0.416,0.237-0.521c0.248-0.133,0.518-0.232,0.788-0.307
			c0.287-0.08,0.432-0.257,0.495-0.533c0.077-0.332,0.165-0.662,0.25-0.992c0.038-0.148,0.081-0.297,0.21-0.398
			c1.14-0.455,2.299-0.859,3.448-1.289c0.19-0.071,0.396-0.195,0.594-0.002C308.521,32.655,308.75,33.157,308.858,33.702z"/>
		<path fill-rule="evenodd" clip-rule="evenodd" fill="#B5B6B9" d="M293.882,35.201c0.031-0.521,0.026-1.048,0.23-1.543
			c0.281-0.294,0.673-0.368,1.031-0.502c1.013-0.379,2.024-0.762,3.043-1.125c0.179-0.064,0.368-0.189,0.566-0.035
			c0.068,0.093,0.066,0.199,0.044,0.303c-0.12,0.549-0.276,1.087-0.431,1.626c-0.023,0.081-0.072,0.147-0.139,0.199
			c-1.293,0.565-2.632,1.01-3.956,1.496c-0.12,0.044-0.25,0.08-0.37-0.012v0.013C293.826,35.484,293.854,35.343,293.882,35.201z"/>
		<path fill-rule="evenodd" clip-rule="evenodd" fill="#FEFEFE" d="M298.712,31.997c-1.396,0.518-2.793,1.037-4.19,1.552
			c-0.132,0.049-0.272,0.073-0.409,0.109c0.186-0.778,0.504-1.499,0.929-2.175c0.611-0.097,1.156-0.388,1.733-0.584
			c0.714-0.244,1.415-0.525,2.124-0.782c0.099-0.035,0.206-0.144,0.323-0.026c0.098,0.077,0.106,0.184,0.081,0.29
			c-0.114,0.469-0.214,0.943-0.378,1.399C298.887,31.882,298.828,31.968,298.712,31.997z"/>
		<path fill-rule="evenodd" clip-rule="evenodd" fill="#FEFEFE" d="M299.634,40.792c1.109,0.008,2.219,0.017,3.329,0.024
			c0.421,0.002,0.842,0,1.276,0.06c-0.624,0.232-1.246,0.468-1.872,0.696c-0.998,0.363-1.998,0.721-2.996,1.081
			c-0.205,0.154-0.406,0.099-0.623,0.013c-0.461-0.183-0.897-0.409-1.318-0.667c-0.118-0.072-0.253-0.135-0.278-0.298
			c0.028-0.225,0.224-0.255,0.382-0.317c0.622-0.247,1.265-0.438,1.894-0.672C299.507,40.707,299.58,40.724,299.634,40.792z"/>
		<path fill-rule="evenodd" clip-rule="evenodd" fill="#FEFEFE" d="M308.299,32.151c-0.698,0.131-1.328,0.461-1.995,0.685
			c-0.557,0.187-1.104,0.406-1.656,0.606c-0.104,0.038-0.207,0.127-0.329,0.042c-0.211-0.275,0.029-0.538,0.026-0.831
			c-0.294,0.068-0.552,0.213-0.828,0.299c-0.378,0.118-0.523-0.014-0.431-0.4c0.048-0.204,0.084-0.421,0.272-0.562
			c0.911-0.438,1.885-0.717,2.822-1.086c0.219-0.086,0.437-0.174,0.66-0.246c0.149-0.047,0.297-0.073,0.447-0.011
			C307.778,31.046,308.111,31.55,308.299,32.151z"/>
		<path fill-rule="evenodd" clip-rule="evenodd" fill="#FEFEFE" d="M293.901,35.608c1.419-0.516,2.819-1.083,4.257-1.548
			c0.176,0.369,0.021,0.831-0.341,1.008c-0.158,0.078-0.326,0.144-0.495,0.182c-0.402,0.091-0.574,0.36-0.649,0.735
			c-0.043,0.217-0.075,0.443-0.249,0.609c-0.556,0.304-1.165,0.473-1.754,0.695c-0.163,0.062-0.334,0.135-0.484-0.033
			c-0.313-0.251-0.21-0.633-0.28-0.955C293.856,36.081,293.899,35.84,293.901,35.608z"/>
		<path fill-rule="evenodd" clip-rule="evenodd" fill="#B5B6B9" d="M301.979,37.396c0.507,0.001,1.014-0.005,1.52,0.007
			c0.318,0.007,0.598-0.114,0.884-0.221c1.545-0.574,3.09-1.147,4.635-1.72c0.188,0.088,0.082,0.238,0.077,0.367
			c-0.041,0.523-0.114,1.042-0.244,1.553c-0.029,0.115-0.119,0.172-0.218,0.213c-0.392,0.162-0.785,0.316-1.188,0.447
			c-0.122,0.04-0.254,0.086-0.346-0.064c-0.021-0.316-0.228-0.358-0.492-0.357c-1.381,0.005-2.762,0.005-4.143,0
			c-0.151,0-0.311,0.022-0.449-0.062C301.961,37.524,301.859,37.478,301.979,37.396z"/>
		<path fill-rule="evenodd" clip-rule="evenodd" fill="#B5B6B9" d="M307.288,30.647c-1.294,0.482-2.578,0.991-3.893,1.418
			c-0.085-0.062-0.119-0.157-0.099-0.249c0.134-0.604,0.229-1.221,0.518-1.78c0.535-0.349,1.149-0.506,1.741-0.717
			c0.11-0.04,0.23-0.039,0.332,0.045C306.431,29.709,306.885,30.151,307.288,30.647z"/>
		<path fill-rule="evenodd" clip-rule="evenodd" fill="#B5B6B9" d="M294.186,37.257c0.576-0.093,1.087-0.381,1.638-0.549
			c0.18-0.055,0.357-0.114,0.536-0.171c0.16,0.12,0.088,0.273,0.055,0.417c-0.074,0.329-0.175,0.653-0.241,1.023
			c0.271-0.031,0.478-0.154,0.702-0.202c0.118-0.025,0.244-0.046,0.32,0.075c0.081,0.129,0.047,0.247-0.077,0.337
			c-0.619,0.284-1.266,0.498-1.9,0.739c-0.174,0.066-0.357,0.135-0.538,0.008c-0.262-0.414-0.363-0.891-0.539-1.339
			C294.094,37.475,294.119,37.362,294.186,37.257z"/>
		<path fill-rule="evenodd" clip-rule="evenodd" fill="#FEFEFE" d="M294.68,38.933c0.658-0.236,1.316-0.473,1.975-0.707
			c0.142-0.051,0.276-0.127,0.435-0.12c0.085,0.063,0.116,0.157,0.093,0.248c-0.155,0.593-0.227,1.21-0.51,1.767
			c-0.304,0.195-0.613,0.381-0.999,0.328C295.263,39.995,294.886,39.519,294.68,38.933z"/>
		<path fill-rule="evenodd" clip-rule="evenodd" fill="#FEFEFE" d="M307.174,38.039c0.526-0.301,1.107-0.465,1.677-0.657
			c0.127,0.189,0,0.363-0.047,0.532c-0.149,0.533-0.413,1.019-0.669,1.505c-0.045,0.085-0.119,0.144-0.214,0.173
			c-0.306-0.051-0.536,0.167-0.812,0.227c-0.146,0.032-0.288,0.084-0.432,0.127c-0.128-0.098-0.102-0.237-0.073-0.358
			c0.101-0.436,0.226-0.866,0.349-1.296C306.986,38.174,307.044,38.074,307.174,38.039z"/>
		<path fill-rule="evenodd" clip-rule="evenodd" fill="#FEFEFE" d="M305.888,29.365c-0.659,0.239-1.318,0.478-1.978,0.716
			c-0.195-0.169-0.082-0.369-0.046-0.555c0.061-0.315,0.049-0.343-0.279-0.35c-0.398-0.009-0.797,0.003-1.195-0.006
			c-0.15-0.003-0.312,0.01-0.399-0.157c0.416-0.239,0.884-0.348,1.323-0.527c0.129-0.052,0.252-0.116,0.378-0.174
			C304.547,28.405,305.278,28.757,305.888,29.365z"/>
		<path fill-rule="evenodd" clip-rule="evenodd" fill="#B5B6B9" d="M295.673,40.448c0.27-0.196,0.598-0.25,0.9-0.363
			c0.04,0.028,0.067,0.065,0.077,0.112c0.095,0.448,0.095,0.449,0.545,0.45c0.6,0.002,1.198-0.005,1.798,0.004
			c0.16,0.002,0.337-0.022,0.439,0.154c-0.62,0.307-1.286,0.493-1.926,0.747c-0.119,0.047-0.236,0.098-0.354,0.147
			c-0.31,0-0.463-0.266-0.666-0.424C296.184,41.04,295.907,40.759,295.673,40.448z"/>
		<path fill-rule="evenodd" clip-rule="evenodd" fill="#FCFCFD" d="M299.928,28.089c-1.684,0.336-3.072,1.186-4.239,2.424
			c-0.077,0.047-0.155,0.093-0.232,0.14c0.334-0.548,0.835-0.929,1.316-1.333c0.323-0.271,0.733-0.415,1.025-0.725
			c0.563-0.126,1.048-0.468,1.618-0.578c0.218-0.042,0.426-0.135,0.653-0.132C300.021,27.953,299.975,28.021,299.928,28.089z"/>
		<path fill-rule="evenodd" clip-rule="evenodd" fill="#FCFCFD" d="M301.909,27.945c-0.28,0-0.561,0-0.841,0
			C301.349,27.852,301.629,27.852,301.909,27.945z"/>
		<path fill-rule="evenodd" clip-rule="evenodd" fill="#FCFCFD" d="M300.565,27.814c0.201-0.133,0.427-0.045,0.639-0.071
			C301.004,27.876,300.778,27.789,300.565,27.814z"/>
		<path fill-rule="evenodd" clip-rule="evenodd" fill="#FCFCFD" d="M301.204,27.743c0.213-0.108,0.427-0.108,0.64,0
			C301.631,27.743,301.417,27.743,301.204,27.743z"/>
		<path fill-rule="evenodd" clip-rule="evenodd" fill="#FCFCFD" d="M301.914,27.743c0.189,0.022,0.392-0.056,0.568,0.071
			C302.293,27.792,302.091,27.87,301.914,27.743z"/>
		<path fill-rule="evenodd" clip-rule="evenodd" fill="#FCFCFD" d="M309.095,35.829c-0.027-0.122,0.028-0.261-0.077-0.367
			c0.046-0.018,0.091-0.036,0.136-0.054C309.143,35.55,309.188,35.699,309.095,35.829z"/>
		<path fill-rule="evenodd" clip-rule="evenodd" fill="#FCFCFD" d="M293.882,35.201c0.007,0.14,0.014,0.28,0.02,0.419
			C293.789,35.486,293.801,35.345,293.882,35.201z"/>
		<path fill-rule="evenodd" clip-rule="evenodd" fill="#FCFCFD" d="M300.14,27.885c0.104-0.097,0.233-0.063,0.355-0.071
			C300.392,27.912,300.262,27.878,300.14,27.885z"/>
		<path fill-rule="evenodd" clip-rule="evenodd" fill="#3E3F3D" d="M299.433,40.806c-0.851-0.007-1.701-0.017-2.552-0.022
			c-0.476-0.003-0.476-0.001-0.362-0.458c0.02-0.08,0.036-0.161,0.055-0.241c0.172-0.66,0.344-1.319,0.516-1.979
			c0.056-0.068,0.092-0.165,0.049-0.228c-0.061-0.089-0.15,0.001-0.219,0.025c-0.31,0.107-0.614,0.226-0.993,0.367
			c0.153-0.615,0.294-1.174,0.434-1.734c0.097-0.337,0.205-0.672,0.285-1.013c0.037-0.16,0.112-0.242,0.264-0.284
			c0.146-0.042,0.281-0.132,0.429-0.152c0.607-0.083,0.78-0.5,0.821-1.027c0.185-0.688,0.369-1.375,0.554-2.063
			c0.17-0.636,0.34-1.271,0.51-1.907c0.07-0.259,0.157-0.515,0.208-0.778c0.044-0.224,0.14-0.301,0.376-0.297
			c0.728,0.014,1.456,0.001,2.185-0.002c0.705,0,1.41,0,2.158,0c-0.084,0.376-0.161,0.722-0.238,1.068
			c-0.204,0.653-0.392,1.311-0.515,1.985c-0.123,0.253-0.17,0.527-0.235,0.852c0.479-0.177,0.921-0.339,1.394-0.514
			c-0.017,0.396-0.191,0.725-0.235,1.08c-0.141,0.521-0.291,1.04-0.417,1.564c-0.053,0.219-0.158,0.341-0.375,0.407
			c-0.305,0.091-0.596,0.225-0.897,0.321c-0.216,0.068-0.346,0.186-0.353,0.418c-0.099,0.4-0.198,0.801-0.297,1.202
			c0.086,0.143,0.225,0.07,0.335,0.07c1.519,0,3.037-0.008,4.556-0.014c0.469-0.001,0.469,0,0.335,0.452
			c-0.013,0.044-0.021,0.09-0.031,0.135c-0.166,0.636-0.331,1.272-0.496,1.908c-0.005,0.011-0.011,0.021-0.015,0.033
			c-0.251,0.804-0.251,0.807-1.088,0.803c-1.841-0.008-3.682-0.02-5.522-0.027c-0.141,0-0.284-0.025-0.419,0.037
			C299.566,40.796,299.499,40.801,299.433,40.806z"/>
		<path fill-rule="evenodd" clip-rule="evenodd" fill="#FEFEFE" d="M297.239,40.16c0.188-0.984,0.5-1.937,0.736-2.909
			c0.033-0.134,0.065-0.268,0.109-0.448c-0.427,0.156-0.81,0.295-1.254,0.457c0.133-0.494,0.25-0.945,0.375-1.394
			c0.038-0.137,0.182-0.154,0.288-0.172c0.803-0.132,1.121-0.631,1.289-1.406c0.316-1.461,0.755-2.896,1.124-4.346
			c0.06-0.231,0.146-0.3,0.377-0.296c0.874,0.011,1.749,0.002,2.623,0.001c0.454,0,0.453,0,0.333,0.452
			c-0.311,1.174-0.62,2.347-0.93,3.521c-0.022,0.087-0.033,0.178-0.057,0.307c0.485-0.179,0.931-0.343,1.43-0.527
			c-0.126,0.482-0.241,0.909-0.349,1.339c-0.026,0.107-0.084,0.162-0.186,0.186c-0.046,0.011-0.088,0.035-0.132,0.052
			c-0.391,0.16-0.902,0.18-1.151,0.489c-0.237,0.294-0.25,0.771-0.358,1.169c-0.097,0.353-0.165,0.714-0.287,1.057
			c-0.121,0.338-0.001,0.379,0.308,0.376c1.524-0.014,3.049-0.006,4.573-0.006c0.415,0,0.415,0,0.303,0.42
			c-0.149,0.558-0.298,1.116-0.446,1.674c-0.083,0.069-0.182,0.041-0.272,0.041c-2.725,0.001-5.448,0.001-8.173,0
			C297.421,40.198,297.323,40.224,297.239,40.16z"/>
		<path fill-rule="evenodd" clip-rule="evenodd" fill="#3B3D3D" d="M297.239,40.16c2.906-0.001,5.813-0.002,8.719-0.003
			c-0.107,0.104-0.243,0.077-0.37,0.077c-2.693,0.001-5.387,0.001-8.08-0.003C297.421,40.23,297.295,40.306,297.239,40.16z"/>
	</g>
</g>
</svg>
