<?xml version="1.0" encoding="utf-8"?>
<!-- Generator: Adobe Illustrator 16.0.0, SVG Export Plug-In . SVG Version: 6.00 Build 0)  -->
<!DOCTYPE svg PUBLIC "-//W3C//DTD SVG 1.1//EN" "http://www.w3.org/Graphics/SVG/1.1/DTD/svg11.dtd">
<svg version="1.1" id="Layer_1" xmlns="http://www.w3.org/2000/svg" xmlns:xlink="http://www.w3.org/1999/xlink" x="0px" y="0px"
	 width="500px" height="110px" viewBox="-59.063 0 500 110" enable-background="new -59.063 0 500 110" xml:space="preserve">
<g>
	<line fill="none" stroke="#808080" stroke-width="4" stroke-miterlimit="10" x1="188.183" y1="55.882" x2="170.183" y2="55.882"/>
	<polygon fill="#808080" stroke="#808080" stroke-width="2" stroke-miterlimit="10" points="175.724,50.442 176.077,61.31 
		166.489,56.183 	"/>
</g>
<g>
	<line fill="none" stroke="#808080" stroke-width="4" stroke-miterlimit="10" x1="26.656" y1="55.136" x2="8.656" y2="55.136"/>
	<polygon fill="#808080" stroke="#808080" stroke-width="2" stroke-miterlimit="10" points="14.197,49.697 14.55,60.563 
		4.962,55.437 	"/>
</g>
<g>
	<rect x="200.017" y="16.631" fill="#AFAFAF" width="109.001" height="77"/>
	<rect x="200.216" y="44.9" fill="none" width="109.257" height="49.11"/>
	<text transform="matrix(1 0 0 1 210.3174 68.4004)" fill="#0071BC" font-family="'Raleway'" font-size="19.8649">Deposit B</text>
	<rect x="205.183" y="21.172" fill="none" width="103.738" height="12.14"/>
	<text transform="matrix(1 0 0 1 227.1826 31.2139)" enable-background="new    "><tspan x="0" y="0" fill="#FFFFFF" font-family="'Raleway'" font-size="11">LITECOIN</tspan><tspan x="0" y="13.2" fill="#FFFFFF" font-family="'Raleway'" font-size="11">TRANSACTION</tspan></text>
	<rect x="199.302" y="81.964" fill="none" width="109.499" height="27.5"/>
	<text transform="matrix(1 0 0 1 200.9697 88.5342)" fill="#FFFFFF" font-family="'Raleway'" font-size="9">Requires Alice’s sig and X</text>
	<g>
		<path fill-rule="evenodd" clip-rule="evenodd" fill="#3D3E3C" d="M213.835,22.688c0.662,0,1.324,0,1.986,0
			c0.334,0.064,0.676,0.053,1.014,0.086c1.271,0.127,2.416,0.621,3.496,1.266c2.516,1.504,4.161,3.682,4.937,6.512
			c0.146,0.536,0.148,1.094,0.17,1.646c0.02,0.142-0.039,0.289,0.037,0.427c0,0.474,0,0.946,0,1.419
			c-0.072,0.117-0.02,0.247-0.037,0.37c0.012,1.662-0.563,3.14-1.416,4.533c-1.03,1.685-2.433,2.979-4.175,3.888
			c-1.211,0.631-2.484,1.064-3.885,1.088c-1.018,0.017-2.031,0.035-3.041-0.056c-1.1-0.099-2.107-0.521-3.078-1.014
			c-1.039-0.526-1.973-1.214-2.777-2.06c-1.311-1.379-2.244-2.976-2.699-4.832c-0.123-0.504-0.133-1.027-0.148-1.545
			c-0.018-0.124,0.037-0.254-0.035-0.373c0-0.496,0-0.993,0-1.49c0.072-0.115,0.018-0.244,0.035-0.365
			c-0.014-1.65,0.553-3.121,1.398-4.505c1.041-1.706,2.459-3.018,4.225-3.938c1.193-0.623,2.451-1.054,3.826-1.021
			C213.726,22.725,213.786,22.734,213.835,22.688z"/>
		<path fill-rule="evenodd" clip-rule="evenodd" fill="#9C9D9C" d="M225.412,32.191c0.021-0.005,0.043-0.002,0.063,0.008
			c0,0.142,0,0.284,0,0.426C225.371,32.492,225.396,32.34,225.412,32.191z"/>
		<path fill-rule="evenodd" clip-rule="evenodd" fill="#9C9D9C" d="M204.183,32.199c0.02-0.01,0.039-0.013,0.061-0.008
			c0.018,0.128,0.043,0.256-0.061,0.362C204.183,32.435,204.183,32.317,204.183,32.199z"/>
		<path fill-rule="evenodd" clip-rule="evenodd" fill="#9C9D9C" d="M204.243,34.407l-0.031,0.002l-0.029-0.01
			c0-0.119,0-0.236,0-0.355C204.286,34.151,204.261,34.28,204.243,34.407z"/>
		<path fill-rule="evenodd" clip-rule="evenodd" fill="#9C9D9C" d="M225.475,34.399l-0.031,0.009l-0.031-0.001
			c-0.018-0.127-0.043-0.256,0.063-0.363C225.475,34.163,225.475,34.28,225.475,34.399z"/>
		<path fill-rule="evenodd" clip-rule="evenodd" fill="#F5F6F7" d="M214.833,42.569c-5.064,0.127-9.332-4.215-9.334-9.266
			c-0.002-5.059,4.268-9.299,9.324-9.302c5.064-0.003,9.351,4.247,9.333,9.328C224.141,38.364,219.884,42.692,214.833,42.569z"/>
		<path fill-rule="evenodd" clip-rule="evenodd" fill="#F5F6F7" d="M214.878,24.25c5.039,0.022,9.169,4.048,9.101,9.246
			c-0.064,4.879-4.022,9.028-9.329,8.92c-4.865-0.1-8.949-4.023-8.896-9.194C205.806,28.274,209.771,24.272,214.878,24.25z"/>
		<path fill-rule="evenodd" clip-rule="evenodd" fill="#F7F8F8" d="M217.099,41.851c-0.295,0.241-0.668,0.229-1.01,0.271
			c-2.535,0.314-4.826-0.295-6.828-1.898c-1.826-1.463-2.893-3.381-3.219-5.684c-0.307-2.162,0.145-4.195,1.342-6.021
			c1.408-2.147,3.402-3.461,5.943-3.921c1.396-0.252,2.781-0.18,4.127,0.242c1.891,0.592,3.451,1.67,4.621,3.288
			c0.545,0.753,0.949,1.577,1.262,2.448c0.057,0.158,0.09,0.318,0.078,0.486c-0.061,0.09-0.1,0.209-0.246,0.184
			c-0.285-0.204-0.213-0.561-0.352-0.826c-0.012-0.135-0.051-0.259-0.146-0.359c-0.076-0.109-0.098-0.24-0.145-0.361
			c-0.027-0.141-0.092-0.264-0.191-0.368c-0.184-0.265-0.361-0.534-0.512-0.819c-0.025-0.104-0.072-0.196-0.152-0.271
			c-0.021-0.021-0.039-0.044-0.057-0.069c-0.043-0.098-0.115-0.169-0.205-0.225c-0.105-0.092-0.209-0.188-0.285-0.307
			c-0.043-0.098-0.096-0.188-0.193-0.243c-0.037-0.026-0.07-0.06-0.098-0.097c-0.055-0.096-0.141-0.151-0.24-0.191
			c-0.119-0.076-0.215-0.179-0.305-0.285c-0.059-0.086-0.123-0.164-0.223-0.205c-0.025-0.016-0.049-0.033-0.07-0.055
			c-0.072-0.078-0.16-0.127-0.264-0.153c-0.098-0.021-0.164-0.085-0.227-0.155c-0.086-0.121-0.211-0.172-0.35-0.201
			c-0.311-0.199-0.66-0.316-0.982-0.488c-0.102-0.098-0.225-0.141-0.361-0.151c-0.516-0.165-1.043-0.298-1.568-0.426
			c-0.123-0.044-0.248-0.069-0.379-0.065c-0.057-0.001-0.115-0.003-0.17-0.02c-0.555-0.083-1.109-0.084-1.664,0.001
			c-0.057,0.016-0.113,0.018-0.172,0.019c-0.131-0.006-0.258,0.022-0.383,0.062c-0.547,0.045-1.049,0.259-1.564,0.416
			c-0.133,0.028-0.262,0.067-0.375,0.146c-0.314,0.18-0.668,0.281-0.969,0.49c-0.131,0.049-0.262,0.099-0.363,0.203
			c-0.076,0.053-0.143,0.123-0.227,0.164c-0.123,0.043-0.211,0.136-0.307,0.217c-1.086,0.846-1.932,1.89-2.504,3.14
			c-0.326,0.712-0.633,1.438-0.688,2.237c-0.045,0.119-0.066,0.242-0.063,0.369c0,0.076,0,0.152-0.018,0.228
			c-0.084,0.493-0.084,0.985,0,1.478c0.018,0.076,0.018,0.153,0.018,0.23c-0.004,0.131,0.025,0.258,0.066,0.381
			c0.027,0.551,0.215,1.061,0.4,1.57c0.041,0.129,0.076,0.26,0.152,0.373c0.037,0.125,0.107,0.235,0.16,0.354
			c0.031,0.141,0.105,0.26,0.195,0.37c0.129,0.292,0.307,0.553,0.484,0.814c0.051,0.093,0.094,0.19,0.178,0.261
			c0.021,0.021,0.041,0.045,0.057,0.07c0.041,0.098,0.115,0.172,0.191,0.244c0.08,0.113,0.186,0.201,0.285,0.297
			c0.053,0.092,0.105,0.184,0.201,0.24c0.037,0.027,0.068,0.061,0.098,0.097c0.057,0.095,0.146,0.149,0.24,0.2
			c0.094,0.099,0.182,0.203,0.293,0.284c0.072,0.072,0.141,0.15,0.24,0.19c0.025,0.014,0.049,0.031,0.07,0.053
			c0.068,0.08,0.154,0.134,0.25,0.174c0.076,0.05,0.154,0.098,0.227,0.154c0.098,0.103,0.229,0.152,0.354,0.209
			c0.313,0.181,0.635,0.342,0.967,0.482c0.115,0.073,0.244,0.116,0.377,0.152c0.508,0.192,1.02,0.371,1.568,0.408
			c0.125,0.036,0.252,0.068,0.385,0.063c0.057,0,0.115,0.002,0.172,0.018c0.555,0.086,1.111,0.084,1.666,0.001
			c0.055-0.017,0.113-0.019,0.17-0.019c0.133,0.004,0.26-0.021,0.383-0.063c0.168-0.025,0.326-0.105,0.502-0.078
			C216.929,41.599,217.069,41.646,217.099,41.851z"/>
		<path fill-rule="evenodd" clip-rule="evenodd" fill="#F8F9F9" d="M217.099,41.851c-0.109-0.069-0.211-0.158-0.355-0.142
			c-0.068-0.068-0.135-0.137-0.078-0.244c0.098-0.115,0.238-0.141,0.373-0.184c3.135-0.965,5.117-3.027,5.902-6.217
			c0.129-0.524,0.201-1.064,0.188-1.61c-0.006-0.222-0.029-0.449,0.059-0.665c0.225-0.303,0.008-0.613,0.016-0.919
			c0.006-0.222-0.211-0.444,0-0.665c0.072-0.048,0.143-0.096,0.213-0.143c0.178,0.818,0.32,1.643,0.283,2.484
			c-0.094,2.107-0.779,3.973-2.189,5.575C220.308,40.487,218.837,41.375,217.099,41.851z"/>
		<path fill-rule="evenodd" clip-rule="evenodd" fill="#F9F9FA" d="M223.202,31.206c0.063,0.388,0.123,0.775,0.188,1.164
			c0.027,0.173,0.072,0.348-0.115,0.468c-0.189-0.114-0.193-0.31-0.219-0.497c-0.213-1.637-0.857-3.1-1.92-4.348
			c-1.25-1.473-2.865-2.4-4.764-2.734c-3.076-0.543-5.682,0.424-7.756,2.717c-1.117,1.232-1.746,2.74-1.947,4.406
			c-0.289,2.379,0.414,4.481,1.922,6.285c1.371,1.641,3.186,2.555,5.316,2.833c0.793,0.104,1.576,0.069,2.361-0.06
			c0.137-0.021,0.283-0.055,0.404,0.057c0.023,0.07,0.047,0.142,0.07,0.213c-0.164,0.023-0.33,0.047-0.496,0.07
			c-0.105,0.086-0.248-0.016-0.355,0.071c-0.047,0-0.094,0-0.141,0c-0.592,0.059-1.184,0.059-1.775,0c-0.047,0-0.094,0-0.141,0
			c-0.107-0.087-0.25,0.015-0.355-0.071c-0.574-0.023-1.115-0.184-1.633-0.426c-0.111-0.063-0.242-0.08-0.355-0.142
			c-0.352-0.122-0.686-0.284-0.992-0.497c-0.107-0.089-0.248-0.124-0.355-0.213c-0.07-0.047-0.143-0.095-0.213-0.143
			c-0.1-0.064-0.184-0.148-0.283-0.213s-0.186-0.146-0.285-0.213c-0.119-0.069-0.213-0.164-0.283-0.283
			c-0.1-0.064-0.186-0.148-0.283-0.213c-0.025-0.023-0.049-0.047-0.072-0.071c-0.064-0.099-0.146-0.185-0.213-0.284
			c-0.119-0.069-0.213-0.164-0.283-0.283c-0.066-0.1-0.148-0.186-0.213-0.284c-0.064-0.1-0.148-0.185-0.213-0.284
			c-0.205-0.262-0.395-0.53-0.498-0.852c-0.088-0.107-0.123-0.248-0.213-0.354c-0.047-0.118-0.094-0.237-0.141-0.354
			c-0.063-0.113-0.08-0.243-0.143-0.355c-0.242-0.518-0.402-1.058-0.426-1.633c-0.086-0.105,0.016-0.248-0.07-0.354
			c0-0.071,0-0.142,0-0.213c-0.059-0.521-0.059-1.041,0-1.562c0-0.07,0-0.142,0-0.213c0.086-0.105-0.016-0.249,0.07-0.354
			c0.059-0.991,0.459-1.874,0.914-2.727c0.576-1.082,1.357-2.007,2.352-2.739c0.098-0.064,0.186-0.146,0.283-0.213
			c0.07-0.047,0.143-0.094,0.213-0.141c0.107-0.09,0.248-0.124,0.355-0.213c0.305-0.219,0.664-0.327,0.992-0.498
			c0.113-0.063,0.244-0.078,0.355-0.142c0.537-0.173,1.059-0.401,1.633-0.426c0.105-0.086,0.248,0.016,0.355-0.071
			c0.047,0,0.094,0,0.141,0c0.592-0.059,1.184-0.059,1.775,0c0.047,0,0.094,0,0.141,0c0.107,0.087,0.25-0.015,0.355,0.071
			c0.545,0.142,1.088,0.284,1.633,0.426c0.111,0.063,0.242,0.08,0.355,0.142c0.33,0.166,0.662,0.332,0.992,0.498
			c0.107,0.088,0.248,0.124,0.355,0.213c0.045,0.086,0.115,0.133,0.213,0.141c0.1,0.066,0.186,0.148,0.283,0.213
			c0.1,0.065,0.186,0.149,0.285,0.214c0.07,0.119,0.164,0.214,0.283,0.284c0.1,0.064,0.186,0.147,0.283,0.213
			c0.025,0.023,0.049,0.047,0.072,0.07c0.064,0.1,0.146,0.186,0.213,0.284c0.07,0.119,0.164,0.214,0.283,0.284
			c0.064,0.1,0.148,0.184,0.213,0.283s0.148,0.186,0.213,0.284c0.121,0.31,0.336,0.565,0.498,0.852
			c0.088,0.107,0.123,0.248,0.213,0.354c0.027,0.126,0.053,0.254,0.141,0.355c0.063,0.112,0.08,0.242,0.143,0.354
			C223.022,30.634,223.036,30.945,223.202,31.206z"/>
		<path fill-rule="evenodd" clip-rule="evenodd" fill="#F8F9F9" d="M215.751,24.817c-0.592,0-1.184,0-1.775,0
			C214.567,24.703,215.159,24.703,215.751,24.817z"/>
		<path fill-rule="evenodd" clip-rule="evenodd" fill="#F8F9F9" d="M213.976,41.851c0.592,0,1.184,0,1.775,0
			C215.159,41.965,214.567,41.965,213.976,41.851z"/>
		<path fill-rule="evenodd" clip-rule="evenodd" fill="#F8F9F9" d="M206.312,32.553c0,0.521,0,1.041,0,1.562
			C206.194,33.594,206.194,33.074,206.312,32.553z"/>
		<path fill-rule="evenodd" clip-rule="evenodd" fill="#F8F9F9" d="M207.091,37.025c0.137,0.079,0.188,0.21,0.213,0.354
			C207.169,37.3,207.118,37.17,207.091,37.025z"/>
		<path fill-rule="evenodd" clip-rule="evenodd" fill="#F8F9F9" d="M222.636,29.643c-0.137-0.078-0.188-0.209-0.213-0.354
			C222.558,29.368,222.608,29.499,222.636,29.643z"/>
		<path fill-rule="evenodd" clip-rule="evenodd" fill="#F8F9F9" d="M210.144,40.502c0.145,0.026,0.275,0.076,0.355,0.213
			C210.353,40.689,210.224,40.639,210.144,40.502z"/>
		<path fill-rule="evenodd" clip-rule="evenodd" fill="#F8F9F9" d="M219.583,26.167c-0.145-0.027-0.275-0.078-0.355-0.213
			C219.374,25.979,219.503,26.03,219.583,26.167z"/>
		<path fill-rule="evenodd" clip-rule="evenodd" fill="#F8F9F9" d="M210.499,25.954c-0.08,0.135-0.211,0.186-0.355,0.213
			C210.224,26.03,210.353,25.979,210.499,25.954z"/>
		<path fill-rule="evenodd" clip-rule="evenodd" fill="#F8F9F9" d="M221.216,27.585c-0.113-0.063-0.199-0.147-0.213-0.284
			C221.114,27.365,221.202,27.448,221.216,27.585z"/>
		<path fill-rule="evenodd" clip-rule="evenodd" fill="#F8F9F9" d="M222.919,30.353c-0.105-0.095-0.143-0.218-0.143-0.354
			C222.882,30.093,222.919,30.215,222.919,30.353z"/>
		<path fill-rule="evenodd" clip-rule="evenodd" fill="#F8F9F9" d="M218.235,25.456c-0.139,0.001-0.262-0.035-0.355-0.142
			C218.017,25.313,218.14,25.35,218.235,25.456z"/>
		<path fill-rule="evenodd" clip-rule="evenodd" fill="#F8F9F9" d="M211.847,25.314c-0.094,0.106-0.217,0.143-0.355,0.142
			C211.587,25.35,211.71,25.313,211.847,25.314z"/>
		<path fill-rule="evenodd" clip-rule="evenodd" fill="#F8F9F9" d="M209.931,26.307c-0.064,0.113-0.146,0.199-0.283,0.213
			C209.71,26.409,209.794,26.322,209.931,26.307z"/>
		<path fill-rule="evenodd" clip-rule="evenodd" fill="#F8F9F9" d="M207.802,38.231c0.111,0.064,0.199,0.146,0.213,0.284
			C207.901,38.452,207.815,38.369,207.802,38.231z"/>
		<path fill-rule="evenodd" clip-rule="evenodd" fill="#F8F9F9" d="M208.015,38.515c0.111,0.063,0.199,0.146,0.213,0.284
			C208.114,38.735,208.028,38.653,208.015,38.515z"/>
		<path fill-rule="evenodd" clip-rule="evenodd" fill="#F8F9F9" d="M220.079,26.52c-0.137-0.014-0.219-0.1-0.283-0.213
			C219.933,26.322,220.017,26.409,220.079,26.52z"/>
		<path fill-rule="evenodd" clip-rule="evenodd" fill="#F8F9F9" d="M208.511,39.083c0.113,0.064,0.199,0.146,0.213,0.284
			C208.612,39.303,208.526,39.22,208.511,39.083z"/>
		<path fill-rule="evenodd" clip-rule="evenodd" fill="#F8F9F9" d="M206.808,36.315c0.105,0.095,0.143,0.218,0.143,0.355
			C206.845,36.575,206.808,36.453,206.808,36.315z"/>
		<path fill-rule="evenodd" clip-rule="evenodd" fill="#F8F9F9" d="M209.362,39.934c0.139,0.015,0.221,0.102,0.285,0.213
			C209.509,40.133,209.427,40.047,209.362,39.934z"/>
		<path fill-rule="evenodd" clip-rule="evenodd" fill="#F8F9F9" d="M209.647,40.147c0.137,0.015,0.219,0.102,0.283,0.213
			C209.794,40.346,209.71,40.26,209.647,40.147z"/>
		<path fill-rule="evenodd" clip-rule="evenodd" fill="#F8F9F9" d="M220.364,26.734c-0.139-0.015-0.221-0.101-0.285-0.214
			C220.218,26.536,220.3,26.622,220.364,26.734z"/>
		<path fill-rule="evenodd" clip-rule="evenodd" fill="#F8F9F9" d="M220.931,27.231c-0.137-0.015-0.219-0.102-0.283-0.213
			C220.784,27.032,220.868,27.118,220.931,27.231z"/>
		<path fill-rule="evenodd" clip-rule="evenodd" fill="#F8F9F9" d="M211.491,41.212c0.139-0.001,0.262,0.036,0.355,0.142
			C211.71,41.354,211.587,41.318,211.491,41.212z"/>
		<path fill-rule="evenodd" clip-rule="evenodd" fill="#F8F9F9" d="M221.712,28.153c-0.111-0.063-0.199-0.146-0.213-0.283
			C221.612,27.932,221.698,28.016,221.712,28.153z"/>
		<path fill-rule="evenodd" clip-rule="evenodd" fill="#F8F9F9" d="M221.925,28.437c-0.111-0.063-0.199-0.146-0.213-0.284
			C221.825,28.217,221.911,28.299,221.925,28.437z"/>
		<path fill-rule="evenodd" clip-rule="evenodd" fill="#F8F9F9" d="M208.796,39.438c0.137,0.014,0.219,0.101,0.283,0.213
			C208.942,39.637,208.858,39.55,208.796,39.438z"/>
		<path fill-rule="evenodd" clip-rule="evenodd" fill="#F8F9F9" d="M216.247,24.888c-0.121-0.007-0.252,0.026-0.355-0.071
			C216.015,24.825,216.144,24.792,216.247,24.888z"/>
		<path fill-rule="evenodd" clip-rule="evenodd" fill="#F8F9F9" d="M213.835,24.817c-0.104,0.098-0.234,0.064-0.355,0.071
			C213.583,24.792,213.712,24.825,213.835,24.817z"/>
		<path fill-rule="evenodd" clip-rule="evenodd" fill="#F8F9F9" d="M206.382,31.986c-0.008,0.122,0.025,0.251-0.07,0.354
			C206.317,32.219,206.284,32.089,206.382,31.986z"/>
		<path fill-rule="evenodd" clip-rule="evenodd" fill="#F8F9F9" d="M213.479,41.78c0.121,0.008,0.252-0.025,0.355,0.071
			C213.712,41.844,213.583,41.877,213.479,41.78z"/>
		<path fill-rule="evenodd" clip-rule="evenodd" fill="#F8F9F9" d="M215.892,41.851c0.104-0.097,0.234-0.063,0.355-0.071
			C216.144,41.877,216.015,41.844,215.892,41.851z"/>
		<path fill-rule="evenodd" clip-rule="evenodd" fill="#F8F9F9" d="M206.312,34.328c0.096,0.104,0.063,0.233,0.07,0.354
			C206.284,34.579,206.317,34.45,206.312,34.328z"/>
		<path fill-rule="evenodd" clip-rule="evenodd" fill="#FBFBFB" d="M216.673,41.497c-0.889,0.236-1.787,0.253-2.699,0.164
			c-1.324-0.131-2.533-0.579-3.643-1.285c-2.053-1.307-3.268-3.197-3.734-5.572c-0.426-2.16,0.055-4.156,1.205-5.994
			c1.15-1.834,2.824-3.002,4.898-3.559c2.82-0.757,5.381-0.116,7.604,1.705c1.68,1.377,2.623,3.224,2.9,5.393
			c0.021,0.163,0.047,0.326,0.07,0.489c0.066,1.567-0.219,3.063-0.984,4.44c-1.189,2.137-2.957,3.555-5.338,4.182
			C216.862,41.484,216.767,41.485,216.673,41.497z"/>
		<path fill-rule="evenodd" clip-rule="evenodd" fill="#FDFDFD" d="M219.087,26.734c0.047,0.023,0.094,0.047,0.141,0.071
			c0.156,0.101,0.324,0.188,0.426,0.354c0.107,0.056,0.225,0.095,0.285,0.213c0.602,0.448,1.092,0.999,1.49,1.632
			c0.023,0.048,0.047,0.096,0.07,0.143c0.156,0.151,0.238,0.35,0.342,0.533c0.498,0.988,0.809,2.021,0.875,3.137
			c0.076,1.285-0.129,2.502-0.643,3.678c-0.67,1.534-1.74,2.715-3.16,3.576c-1.043,0.631-2.178,0.965-3.398,1.085
			c-1.129,0.11-2.197-0.077-3.258-0.413c-0.135-0.041-0.266-0.093-0.41-0.098c-0.211-0.171-0.484-0.213-0.709-0.355l0,0
			c-0.729-0.416-1.396-0.905-1.982-1.512c-0.502-0.521-0.914-1.099-1.256-1.732c-0.496-0.975-0.814-1.992-0.891-3.096
			c-0.074-1.082,0.053-2.125,0.383-3.15c0.285-0.886,0.748-1.674,1.326-2.398c0.084-0.07,0.158-0.166,0.291-0.125
			c0.123,0.158,0.004,0.274-0.068,0.402c-0.133,0.24-0.395,0.389-0.467,0.671c-0.363,0.691-0.699,1.394-0.902,2.153
			c-0.127,0.465-0.193,0.94-0.203,1.424c-0.025,0.148-0.098,0.295-0.035,0.452c0.016,0.033,0.027,0.067,0.037,0.102
			c0.014,0.513,0.031,1.024,0.219,1.511c0.039,0.602,0.32,1.127,0.525,1.677c0.252,0.542,0.629,1.005,0.971,1.491
			c0.475,0.447,0.916,0.932,1.473,1.288c0.5,0.38,1.059,0.654,1.641,0.884c0.174,0.068,0.354-0.002,0.523,0.055
			c0.137,0.143,0.326,0.122,0.494,0.157c1.973,0.407,3.826,0.104,5.547-0.944c0.732-0.445,1.365-1.012,1.893-1.688
			c0.166-0.214,0.357-0.407,0.529-0.616c0.48-0.655,0.826-1.367,0.91-2.188c0.023-0.498,0.168-0.981,0.189-1.48
			c0.016-0.149,0.107-0.285,0.08-0.443c-0.027-0.551-0.09-1.096-0.242-1.628c-0.197-0.521-0.406-1.038-0.584-1.567
			c-0.195-0.57-0.58-1.02-0.953-1.475c-0.477-0.442-0.936-0.904-1.441-1.313c-0.639-0.52-1.369-0.842-2.168-1.019
			c-0.568-0.157-1.15-0.231-1.734-0.305c-0.279-0.099-0.559-0.097-0.838,0.002c-0.375-0.015-0.742,0.183-1.123,0.045
			c-0.113-0.128-0.041-0.214,0.068-0.291c0.033-0.017,0.068-0.028,0.105-0.03c0.127,0,0.252-0.008,0.369-0.065
			c0.035-0.005,0.07-0.008,0.105-0.009c0.193-0.002,0.387,0.013,0.574-0.057c0.035-0.008,0.07-0.013,0.107-0.014
			c0.184-0.002,0.367-0.002,0.551,0c0.037,0,0.074,0.004,0.111,0.01c0.176,0.089,0.365,0.051,0.549,0.061
			c1.027,0.154,2.012,0.446,2.918,0.967C218.86,26.565,218.993,26.622,219.087,26.734z"/>
		<path fill-rule="evenodd" clip-rule="evenodd" fill="#FCFCFD" d="M211.847,40.645c0.326-0.109,0.596,0.098,0.883,0.174
			c2.656,0.701,5.066,0.188,7.174-1.547c1.568-1.289,2.49-2.998,2.713-5.021c0.162-1.475-0.039-2.923-0.703-4.279
			c-0.051-0.105-0.088-0.219-0.129-0.328c0.023-0.025,0.047-0.025,0.07,0c0.246,0.185,0.283,0.486,0.391,0.74
			c0.389,0.922,0.605,1.902,0.588,2.895c-0.035,2.092-0.721,3.946-2.184,5.488c-1.285,1.354-2.857,2.146-4.689,2.425
			C214.542,41.407,213.167,41.219,211.847,40.645z"/>
		<path fill-rule="evenodd" clip-rule="evenodd" fill="#FCFCFD" d="M208.796,28.437c-0.725,0.819-1.189,1.774-1.486,2.819
			c-0.199,0.697-0.264,1.42-0.27,2.131c-0.006,0.99,0.166,1.97,0.566,2.893c0.115,0.271,0.225,0.544,0.338,0.816
			c-0.025,0.031-0.049,0.031-0.072,0c-0.506-0.883-0.791-1.84-0.916-2.841c-0.16-1.261,0.008-2.487,0.451-3.677
			c0.654-1.758,1.811-3.097,3.404-4.068c0.098-0.061,0.217-0.088,0.326-0.131c0.006,0.015,0.014,0.03,0.02,0.046
			c-0.012,0.188-0.18,0.244-0.301,0.316c-0.584,0.342-1.115,0.746-1.568,1.247C209.138,28.156,208.909,28.233,208.796,28.437z"/>
		<path fill-rule="evenodd" clip-rule="evenodd" fill="#FCFCFD" d="M219.087,26.734c-0.336-0.163-0.672-0.327-1.01-0.49
			c-0.715-0.345-1.48-0.509-2.256-0.646c-0.18-0.096-0.387,0.025-0.568-0.071c-0.023,0-0.047,0-0.07,0
			c-0.213-0.056-0.426-0.056-0.639,0c-0.205,0.095-0.434-0.023-0.639,0.071c-0.023,0-0.047,0-0.07,0
			c-0.107,0.086-0.25-0.016-0.355,0.07c-0.023,0-0.047,0-0.07,0c-0.645,0.298-1.355,0.42-1.986,0.754
			c-0.1,0.053-0.203,0.055-0.285-0.043l0,0c0.184-0.247,0.484-0.288,0.74-0.391c0.994-0.4,2.035-0.628,3.107-0.596
			c1.391,0.041,2.703,0.396,3.912,1.104C218.993,26.553,219.075,26.614,219.087,26.734z"/>
		<path fill-rule="evenodd" clip-rule="evenodd" fill="#FCFCFD" d="M207.872,37.096c0.023,0,0.047,0,0.072,0
			c0.428,0.605,0.814,1.239,1.359,1.76c0.465,0.443,0.953,0.845,1.506,1.171c0.119,0.07,0.254,0.131,0.328,0.263
			c-0.563-0.183-1.01-0.556-1.441-0.929C208.954,38.72,208.308,37.989,207.872,37.096z"/>
		<path fill-rule="evenodd" clip-rule="evenodd" fill="#FCFCFD" d="M221.429,29.004c-0.498-0.544-0.994-1.088-1.49-1.632
			c0.035,0.003,0.08-0.008,0.104,0.011C220.61,27.833,221.171,28.29,221.429,29.004z"/>
		<path fill-rule="evenodd" clip-rule="evenodd" fill="#FCFCFD" d="M211.138,40.29c0.27,0.053,0.531,0.119,0.709,0.355
			C211.603,40.542,211.317,40.522,211.138,40.29z"/>
		<path fill-rule="evenodd" clip-rule="evenodd" fill="#FCFCFD" d="M221.854,29.643c-0.023,0-0.047,0-0.07,0
			c-0.131-0.146-0.252-0.295-0.285-0.496C221.761,29.209,221.784,29.444,221.854,29.643z"/>
		<path fill-rule="evenodd" clip-rule="evenodd" fill="#FCFCFD" d="M219.653,27.16c-0.176-0.077-0.328-0.184-0.426-0.354
			C219.448,26.829,219.632,26.898,219.653,27.16z"/>
		<path fill-rule="evenodd" clip-rule="evenodd" fill="#FEFEFE" d="M222.198,31.485c0.264,0.364,0.211,0.806,0.289,1.213
			c0.031,0.16,0.006,0.33,0.006,0.494c-0.055,0.055-0.084,0.131-0.152,0.172c-0.447,0.299-0.969,0.419-1.461,0.607
			c-0.867,0.333-1.754,0.619-2.611,0.978c-0.912,0.382-1.859,0.36-2.813,0.329c-0.061-0.002-0.115-0.025-0.16-0.066
			c-0.162-0.213-0.055-0.425,0.002-0.637c0.057-0.215,0.082-0.439,0.211-0.629c0.271-0.271,0.646-0.33,0.982-0.463
			c1.742-0.695,3.502-1.342,5.266-1.979C221.901,31.452,222.046,31.391,222.198,31.485z"/>
		<path fill-rule="evenodd" clip-rule="evenodd" fill="#B5B6B9" d="M221.261,37.375c-0.713,1.021-1.566,1.892-2.662,2.502
			c-1.797,1-3.697,1.232-5.688,0.746c-0.076-0.02-0.279,0.026-0.201-0.188c0.063-0.182,0.227-0.23,0.381-0.287
			c1.238-0.462,2.484-0.908,3.721-1.38c0.111-0.042,0.229-0.05,0.283-0.063c-0.309,0.062-0.682,0.029-1.053,0.03
			c-0.875,0.004-1.75,0.007-2.625-0.002c-0.17-0.002-0.367,0.032-0.451-0.188c0.076-0.178,0.236-0.182,0.389-0.182
			c1.455-0.01,2.908-0.032,4.361,0.012c0.471,0.014,0.943,0.037,1.414,0.057c0.342,0.014,0.574-0.083,0.643-0.447
			c0.016-0.094,0.063-0.179,0.123-0.253c0.307-0.255,0.688-0.347,1.053-0.47C221.048,37.229,221.229,37.139,221.261,37.375z"/>
		<path fill-rule="evenodd" clip-rule="evenodd" fill="#B5B6B9" d="M213.267,25.874c0.381-0.049,0.76-0.098,1.141-0.146
			c0.281-0.038,0.561-0.038,0.842,0.001c0.602,0.086,1.217,0.1,1.781,0.366c-0.008,0.249-0.223,0.271-0.385,0.343
			c-0.438,0.193-0.93,0.244-1.348,0.494c-0.633,0.055-1.268,0.025-1.902,0.021c-0.314-0.002-0.48,0.115-0.537,0.422
			c-0.033,0.183-0.063,0.373-0.203,0.516c-1.264,0.51-2.555,0.951-3.83,1.432c-0.146,0.056-0.318,0.129-0.443-0.057
			c0.133-0.378,0.484-0.61,0.646-0.969c0.252-0.467,0.676-0.77,1.076-1.085c0.82-0.647,1.75-1.085,2.762-1.345
			C212.995,25.834,213.136,25.754,213.267,25.874z"/>
		<path fill-rule="evenodd" clip-rule="evenodd" fill="#B5B6B9" d="M222.198,31.485c-1.791,0.667-3.582,1.33-5.371,2.002
			c-0.408,0.152-0.834,0.261-1.211,0.49c-0.164-0.283,0.043-0.416,0.236-0.521c0.248-0.134,0.518-0.231,0.789-0.308
			c0.287-0.079,0.432-0.256,0.494-0.532c0.078-0.332,0.166-0.662,0.25-0.992c0.039-0.148,0.082-0.297,0.211-0.398
			c1.139-0.455,2.299-0.858,3.447-1.289c0.191-0.071,0.396-0.195,0.594-0.002C221.86,30.439,222.089,30.94,222.198,31.485z"/>
		<path fill-rule="evenodd" clip-rule="evenodd" fill="#B5B6B9" d="M207.222,32.985c0.031-0.521,0.025-1.048,0.23-1.543
			c0.281-0.295,0.672-0.369,1.031-0.502c1.012-0.379,2.023-0.762,3.043-1.126c0.178-0.064,0.367-0.188,0.566-0.034
			c0.068,0.093,0.066,0.198,0.043,0.303c-0.119,0.549-0.275,1.088-0.43,1.627c-0.023,0.08-0.072,0.146-0.139,0.198
			c-1.293,0.565-2.633,1.011-3.957,1.496c-0.119,0.044-0.25,0.08-0.369-0.013v0.014C207.165,33.268,207.192,33.126,207.222,32.985z"
			/>
		<path fill-rule="evenodd" clip-rule="evenodd" fill="#FEFEFE" d="M212.052,29.781c-1.396,0.519-2.793,1.036-4.191,1.552
			c-0.131,0.049-0.271,0.073-0.408,0.109c0.186-0.778,0.504-1.5,0.928-2.176c0.611-0.096,1.156-0.387,1.734-0.584
			c0.713-0.244,1.414-0.525,2.123-0.782c0.1-0.035,0.207-0.144,0.324-0.026c0.098,0.076,0.105,0.184,0.08,0.289
			c-0.113,0.47-0.213,0.943-0.377,1.4C212.226,29.667,212.167,29.752,212.052,29.781z"/>
		<path fill-rule="evenodd" clip-rule="evenodd" fill="#FEFEFE" d="M212.974,38.575c1.109,0.008,2.219,0.018,3.328,0.024
			c0.422,0.003,0.842,0,1.277,0.06c-0.625,0.232-1.246,0.469-1.873,0.695c-0.998,0.363-1.998,0.722-2.996,1.082
			c-0.205,0.154-0.406,0.098-0.623,0.012c-0.461-0.183-0.896-0.408-1.318-0.667c-0.117-0.071-0.252-0.136-0.277-0.298
			c0.027-0.225,0.223-0.255,0.381-0.317c0.623-0.247,1.266-0.438,1.895-0.673C212.847,38.491,212.919,38.508,212.974,38.575z"/>
		<path fill-rule="evenodd" clip-rule="evenodd" fill="#FEFEFE" d="M221.638,29.935c-0.697,0.131-1.328,0.461-1.994,0.685
			c-0.557,0.187-1.104,0.406-1.656,0.605c-0.104,0.038-0.207,0.128-0.33,0.042c-0.211-0.275,0.029-0.538,0.027-0.831
			c-0.295,0.068-0.553,0.214-0.828,0.3c-0.379,0.118-0.523-0.015-0.432-0.4c0.049-0.204,0.084-0.421,0.273-0.562
			c0.91-0.438,1.885-0.717,2.822-1.086c0.219-0.086,0.436-0.174,0.66-0.246c0.148-0.047,0.297-0.072,0.447-0.011
			C221.118,28.83,221.45,29.333,221.638,29.935z"/>
		<path fill-rule="evenodd" clip-rule="evenodd" fill="#FEFEFE" d="M207.241,33.391c1.418-0.516,2.818-1.083,4.256-1.547
			c0.176,0.368,0.021,0.83-0.34,1.008c-0.158,0.078-0.326,0.144-0.496,0.182c-0.402,0.092-0.574,0.359-0.648,0.735
			c-0.043,0.217-0.076,0.443-0.25,0.609c-0.555,0.304-1.164,0.474-1.754,0.694c-0.162,0.063-0.334,0.135-0.484-0.032
			c-0.313-0.251-0.209-0.633-0.279-0.955C207.196,33.864,207.239,33.624,207.241,33.391z"/>
		<path fill-rule="evenodd" clip-rule="evenodd" fill="#B5B6B9" d="M215.319,35.179c0.506,0.001,1.014-0.005,1.52,0.007
			c0.318,0.008,0.598-0.113,0.883-0.221c1.545-0.573,3.09-1.146,4.635-1.72c0.189,0.089,0.082,0.238,0.078,0.367
			c-0.041,0.523-0.115,1.042-0.244,1.553c-0.029,0.114-0.119,0.172-0.219,0.213c-0.391,0.161-0.785,0.316-1.188,0.446
			c-0.121,0.04-0.254,0.087-0.346-0.063c-0.021-0.315-0.227-0.358-0.492-0.357c-1.381,0.005-2.762,0.005-4.143,0
			c-0.15-0.001-0.311,0.022-0.449-0.062C215.3,35.308,215.198,35.262,215.319,35.179z"/>
		<path fill-rule="evenodd" clip-rule="evenodd" fill="#B5B6B9" d="M220.628,28.431c-1.295,0.481-2.578,0.991-3.893,1.419
			c-0.086-0.063-0.119-0.157-0.1-0.25c0.135-0.604,0.23-1.221,0.518-1.779c0.535-0.35,1.15-0.506,1.742-0.718
			c0.109-0.04,0.23-0.038,0.332,0.046C219.771,27.493,220.224,27.934,220.628,28.431z"/>
		<path fill-rule="evenodd" clip-rule="evenodd" fill="#B5B6B9" d="M207.524,35.041c0.576-0.093,1.088-0.382,1.639-0.55
			c0.18-0.055,0.357-0.113,0.535-0.171c0.16,0.12,0.088,0.272,0.055,0.417c-0.074,0.328-0.174,0.652-0.24,1.022
			c0.271-0.031,0.477-0.154,0.701-0.202c0.119-0.025,0.244-0.047,0.32,0.074c0.082,0.129,0.047,0.247-0.076,0.338
			c-0.619,0.283-1.266,0.497-1.9,0.738c-0.174,0.066-0.357,0.136-0.539,0.009c-0.262-0.413-0.363-0.892-0.539-1.339
			C207.433,35.258,207.458,35.146,207.524,35.041z"/>
		<path fill-rule="evenodd" clip-rule="evenodd" fill="#FEFEFE" d="M208.019,36.716c0.658-0.235,1.316-0.473,1.975-0.707
			c0.143-0.051,0.277-0.128,0.436-0.12c0.084,0.063,0.115,0.157,0.092,0.248c-0.154,0.593-0.227,1.211-0.51,1.767
			c-0.303,0.195-0.613,0.381-0.998,0.327C208.603,37.778,208.226,37.303,208.019,36.716z"/>
		<path fill-rule="evenodd" clip-rule="evenodd" fill="#FEFEFE" d="M220.513,35.823c0.527-0.301,1.107-0.465,1.678-0.657
			c0.127,0.188,0,0.363-0.047,0.532c-0.15,0.533-0.414,1.019-0.67,1.506c-0.045,0.085-0.119,0.144-0.213,0.172
			c-0.307-0.051-0.537,0.168-0.813,0.227c-0.146,0.032-0.287,0.085-0.432,0.128c-0.127-0.099-0.102-0.237-0.072-0.358
			c0.1-0.436,0.225-0.865,0.348-1.296C220.325,35.958,220.384,35.858,220.513,35.823z"/>
		<path fill-rule="evenodd" clip-rule="evenodd" fill="#FEFEFE" d="M219.228,27.149c-0.66,0.238-1.318,0.477-1.979,0.716
			c-0.195-0.169-0.082-0.368-0.045-0.555c0.061-0.315,0.049-0.343-0.279-0.351c-0.398-0.008-0.797,0.004-1.195-0.006
			c-0.15-0.004-0.313,0.01-0.4-0.157c0.416-0.239,0.885-0.348,1.324-0.527c0.129-0.052,0.252-0.116,0.377-0.174
			C217.886,26.188,218.618,26.542,219.228,27.149z"/>
		<path fill-rule="evenodd" clip-rule="evenodd" fill="#B5B6B9" d="M209.013,38.231c0.27-0.195,0.598-0.249,0.9-0.363
			c0.039,0.028,0.066,0.065,0.076,0.113c0.096,0.447,0.096,0.448,0.545,0.449c0.6,0.003,1.199-0.004,1.799,0.005
			c0.16,0.003,0.336-0.022,0.439,0.154c-0.621,0.307-1.287,0.493-1.926,0.747c-0.119,0.047-0.236,0.098-0.355,0.146
			c-0.309,0-0.463-0.266-0.666-0.424C209.522,38.823,209.247,38.543,209.013,38.231z"/>
		<path fill-rule="evenodd" clip-rule="evenodd" fill="#FCFCFD" d="M213.267,25.874c-1.684,0.336-3.072,1.186-4.238,2.424
			c-0.078,0.047-0.156,0.093-0.232,0.14c0.334-0.548,0.834-0.929,1.316-1.333c0.322-0.271,0.732-0.414,1.025-0.725
			c0.563-0.127,1.047-0.469,1.617-0.578c0.219-0.041,0.426-0.135,0.654-0.133C213.36,25.737,213.313,25.805,213.267,25.874z"/>
		<path fill-rule="evenodd" clip-rule="evenodd" fill="#FCFCFD" d="M215.249,25.729c-0.281,0-0.561,0-0.842-0.001
			C214.688,25.635,214.968,25.635,215.249,25.729z"/>
		<path fill-rule="evenodd" clip-rule="evenodd" fill="#FCFCFD" d="M213.905,25.598c0.201-0.133,0.426-0.045,0.639-0.071
			C214.343,25.661,214.118,25.573,213.905,25.598z"/>
		<path fill-rule="evenodd" clip-rule="evenodd" fill="#FCFCFD" d="M214.544,25.527c0.213-0.108,0.426-0.108,0.639,0
			C214.97,25.527,214.757,25.527,214.544,25.527z"/>
		<path fill-rule="evenodd" clip-rule="evenodd" fill="#FCFCFD" d="M215.253,25.527c0.189,0.022,0.393-0.056,0.568,0.071
			C215.632,25.577,215.431,25.654,215.253,25.527z"/>
		<path fill-rule="evenodd" clip-rule="evenodd" fill="#FCFCFD" d="M222.435,33.613c-0.027-0.122,0.027-0.261-0.078-0.367
			c0.047-0.018,0.092-0.036,0.137-0.054C222.481,33.333,222.526,33.483,222.435,33.613z"/>
		<path fill-rule="evenodd" clip-rule="evenodd" fill="#FCFCFD" d="M207.222,32.985c0.006,0.14,0.014,0.279,0.02,0.42
			C207.128,33.27,207.14,33.128,207.222,32.985z"/>
		<path fill-rule="evenodd" clip-rule="evenodd" fill="#FCFCFD" d="M213.479,25.668c0.104-0.097,0.232-0.063,0.355-0.07
			C213.731,25.696,213.601,25.662,213.479,25.668z"/>
		<path fill-rule="evenodd" clip-rule="evenodd" fill="#3E3F3D" d="M212.772,38.589c-0.852-0.007-1.701-0.017-2.553-0.022
			c-0.475-0.003-0.475-0.001-0.361-0.457c0.02-0.08,0.035-0.162,0.055-0.242c0.172-0.659,0.344-1.318,0.516-1.979
			c0.055-0.068,0.092-0.164,0.049-0.228c-0.061-0.089-0.15,0.001-0.219,0.024c-0.311,0.107-0.615,0.227-0.994,0.367
			c0.154-0.614,0.295-1.174,0.434-1.733c0.098-0.337,0.205-0.672,0.285-1.013c0.037-0.16,0.113-0.242,0.264-0.284
			c0.146-0.042,0.281-0.132,0.43-0.151c0.607-0.084,0.779-0.5,0.82-1.027c0.186-0.688,0.369-1.375,0.555-2.063
			c0.17-0.636,0.34-1.271,0.51-1.907c0.07-0.259,0.156-0.516,0.207-0.778c0.045-0.224,0.141-0.302,0.377-0.297
			c0.727,0.015,1.455,0.001,2.184-0.002c0.705,0,1.41,0,2.158,0c-0.084,0.376-0.16,0.722-0.238,1.068
			c-0.203,0.653-0.391,1.311-0.514,1.985c-0.123,0.253-0.17,0.527-0.236,0.852c0.48-0.178,0.922-0.34,1.395-0.514
			c-0.018,0.396-0.191,0.725-0.236,1.079c-0.141,0.521-0.291,1.04-0.416,1.563c-0.053,0.22-0.158,0.342-0.375,0.407
			c-0.305,0.091-0.596,0.225-0.898,0.321c-0.215,0.068-0.346,0.186-0.352,0.418c-0.1,0.4-0.199,0.801-0.297,1.202
			c0.086,0.144,0.225,0.069,0.334,0.069c1.52,0.001,3.037-0.008,4.557-0.014c0.469-0.001,0.469,0.001,0.334,0.453
			c-0.012,0.043-0.021,0.09-0.031,0.135c-0.166,0.635-0.33,1.271-0.496,1.907c-0.004,0.011-0.01,0.021-0.014,0.032
			c-0.252,0.805-0.252,0.807-1.088,0.804c-1.842-0.008-3.682-0.02-5.523-0.027c-0.141-0.001-0.283-0.025-0.418,0.036
			C212.905,38.581,212.839,38.584,212.772,38.589z"/>
		<path fill-rule="evenodd" clip-rule="evenodd" fill="#FEFEFE" d="M210.579,37.944c0.188-0.984,0.5-1.938,0.736-2.908
			c0.033-0.135,0.064-0.268,0.109-0.448c-0.428,0.155-0.811,0.295-1.254,0.457c0.133-0.494,0.25-0.945,0.375-1.394
			c0.037-0.137,0.182-0.154,0.287-0.172c0.803-0.133,1.121-0.631,1.289-1.406c0.316-1.461,0.756-2.895,1.125-4.346
			c0.059-0.23,0.145-0.3,0.377-0.297c0.873,0.012,1.748,0.003,2.623,0.002c0.453,0,0.453,0,0.332,0.451
			c-0.311,1.174-0.619,2.348-0.93,3.521c-0.021,0.088-0.033,0.178-0.057,0.307c0.486-0.18,0.932-0.344,1.43-0.527
			c-0.125,0.482-0.24,0.909-0.348,1.339c-0.027,0.106-0.084,0.161-0.186,0.187c-0.047,0.01-0.088,0.034-0.133,0.052
			c-0.391,0.16-0.902,0.181-1.15,0.489c-0.238,0.294-0.25,0.771-0.359,1.168c-0.096,0.354-0.164,0.715-0.287,1.058
			c-0.121,0.338,0,0.38,0.309,0.376c1.523-0.014,3.049-0.006,4.572-0.006c0.416,0,0.416,0,0.303,0.42
			c-0.148,0.559-0.297,1.116-0.445,1.674c-0.084,0.069-0.182,0.041-0.273,0.041c-2.725,0.002-5.447,0.002-8.172,0.001
			C210.761,37.982,210.663,38.007,210.579,37.944z"/>
		<path fill-rule="evenodd" clip-rule="evenodd" fill="#3B3D3D" d="M210.579,37.944c2.906-0.002,5.813-0.002,8.719-0.004
			c-0.107,0.105-0.244,0.078-0.371,0.078c-2.693,0-5.387,0.001-8.08-0.004C210.761,38.014,210.634,38.089,210.579,37.944z"/>
	</g>
</g>
<g>
	<rect x="41.629" y="17.187" fill="#AFAFAF" width="109" height="77"/>
	<rect x="41.829" y="45.455" fill="none" width="109.255" height="49.11"/>
	<text transform="matrix(1 0 0 1 55.9297 68.9551)" fill="#339933" font-family="'Raleway'" font-size="19.8649">Payout A</text>
	<rect x="46.793" y="21.728" fill="none" width="103.74" height="12.14"/>
	<text transform="matrix(1 0 0 1 68.7949 31.769)" enable-background="new    "><tspan x="0" y="0" fill="#FFFFFF" font-family="'Raleway'" font-size="11">LITECOIN</tspan><tspan x="0" y="13.2" fill="#FFFFFF" font-family="'Raleway'" font-size="11">TRANSACTION</tspan></text>
	<g>
		<path fill-rule="evenodd" clip-rule="evenodd" fill="#3D3E3C" d="M55.617,23.412c0.662,0,1.324,0,1.987,0
			c0.334,0.064,0.675,0.053,1.013,0.086c1.272,0.127,2.417,0.621,3.496,1.266c2.516,1.504,4.162,3.682,4.937,6.512
			c0.146,0.536,0.149,1.094,0.171,1.646c0.019,0.142-0.039,0.289,0.036,0.427c0,0.474,0,0.946,0,1.419
			c-0.072,0.117-0.02,0.247-0.036,0.37c0.011,1.662-0.563,3.14-1.416,4.533c-1.031,1.685-2.434,2.979-4.176,3.888
			c-1.211,0.631-2.484,1.064-3.885,1.088c-1.017,0.017-2.03,0.035-3.041-0.056c-1.1-0.099-2.107-0.521-3.078-1.014
			c-1.038-0.526-1.973-1.214-2.777-2.06c-1.311-1.379-2.243-2.976-2.698-4.832c-0.124-0.504-0.133-1.027-0.149-1.545
			c-0.017-0.124,0.037-0.254-0.035-0.373c0-0.496,0-0.993,0-1.49c0.072-0.115,0.019-0.244,0.035-0.365
			c-0.013-1.65,0.554-3.121,1.398-4.505c1.041-1.706,2.46-3.018,4.225-3.938c1.193-0.623,2.452-1.054,3.826-1.021
			C55.507,23.449,55.568,23.458,55.617,23.412z"/>
		<path fill-rule="evenodd" clip-rule="evenodd" fill="#9C9D9C" d="M67.195,32.915c0.021-0.005,0.042-0.002,0.062,0.008
			c0,0.142,0,0.284,0,0.426C67.153,33.216,67.179,33.064,67.195,32.915z"/>
		<path fill-rule="evenodd" clip-rule="evenodd" fill="#9C9D9C" d="M45.964,32.923c0.02-0.01,0.04-0.013,0.061-0.008
			c0.019,0.128,0.043,0.256-0.061,0.362C45.964,33.159,45.964,33.041,45.964,32.923z"/>
		<path fill-rule="evenodd" clip-rule="evenodd" fill="#9C9D9C" d="M46.025,35.131l-0.031,0.002l-0.029-0.01
			c0-0.119,0-0.236,0-0.355C46.068,34.875,46.043,35.004,46.025,35.131z"/>
		<path fill-rule="evenodd" clip-rule="evenodd" fill="#9C9D9C" d="M67.256,35.123l-0.03,0.009l-0.031-0.001
			c-0.019-0.127-0.043-0.256,0.062-0.363C67.256,34.887,67.256,35.004,67.256,35.123z"/>
		<path fill-rule="evenodd" clip-rule="evenodd" fill="#F5F6F7" d="M56.615,43.293c-5.064,0.127-9.332-4.215-9.334-9.266
			c-0.002-5.059,4.269-9.299,9.324-9.302c5.064-0.003,9.351,4.247,9.334,9.328C65.923,39.088,61.667,43.416,56.615,43.293z"/>
		<path fill-rule="evenodd" clip-rule="evenodd" fill="#F5F6F7" d="M56.66,24.974c5.039,0.022,9.17,4.048,9.101,9.246
			c-0.064,4.879-4.021,9.028-9.329,8.92c-4.865-0.1-8.949-4.023-8.896-9.194C47.587,28.998,51.552,24.996,56.66,24.974z"/>
		<path fill-rule="evenodd" clip-rule="evenodd" fill="#F7F8F8" d="M58.881,42.575c-0.296,0.241-0.669,0.229-1.01,0.271
			c-2.536,0.314-4.827-0.295-6.829-1.898c-1.826-1.463-2.893-3.381-3.218-5.684c-0.307-2.162,0.144-4.195,1.341-6.021
			c1.409-2.147,3.402-3.461,5.944-3.921c1.396-0.252,2.78-0.18,4.127,0.242c1.89,0.592,3.451,1.67,4.621,3.288
			c0.545,0.753,0.948,1.577,1.262,2.448c0.057,0.158,0.09,0.318,0.078,0.486c-0.062,0.09-0.101,0.209-0.247,0.184
			c-0.284-0.204-0.212-0.561-0.352-0.826c-0.011-0.135-0.05-0.259-0.146-0.359c-0.075-0.109-0.098-0.24-0.145-0.361
			c-0.027-0.141-0.092-0.264-0.191-0.368c-0.184-0.265-0.36-0.534-0.512-0.819c-0.025-0.104-0.072-0.196-0.151-0.271
			c-0.021-0.021-0.04-0.044-0.057-0.069c-0.044-0.098-0.115-0.169-0.205-0.225c-0.106-0.092-0.209-0.188-0.286-0.307
			c-0.042-0.098-0.095-0.188-0.192-0.243c-0.038-0.026-0.07-0.06-0.098-0.097c-0.055-0.096-0.142-0.151-0.241-0.191
			c-0.119-0.076-0.214-0.179-0.305-0.285c-0.058-0.086-0.123-0.164-0.223-0.205c-0.025-0.016-0.049-0.033-0.07-0.055
			c-0.071-0.078-0.16-0.127-0.263-0.153c-0.098-0.021-0.164-0.085-0.227-0.155c-0.086-0.121-0.211-0.172-0.35-0.201
			c-0.311-0.199-0.66-0.316-0.983-0.488c-0.101-0.098-0.224-0.141-0.36-0.151c-0.517-0.165-1.043-0.298-1.569-0.426
			c-0.122-0.044-0.247-0.069-0.378-0.065c-0.058-0.001-0.115-0.003-0.171-0.02c-0.555-0.083-1.109-0.084-1.663,0.001
			c-0.057,0.016-0.114,0.018-0.172,0.019c-0.132-0.006-0.258,0.022-0.383,0.062c-0.547,0.045-1.049,0.259-1.565,0.416
			c-0.132,0.028-0.261,0.067-0.374,0.146c-0.315,0.18-0.669,0.281-0.969,0.49c-0.131,0.049-0.263,0.099-0.363,0.203
			c-0.077,0.053-0.143,0.123-0.228,0.164c-0.123,0.043-0.21,0.136-0.306,0.217c-1.087,0.846-1.932,1.89-2.505,3.14
			c-0.326,0.712-0.633,1.438-0.687,2.237c-0.045,0.119-0.066,0.242-0.063,0.369c-0.001,0.076,0,0.152-0.018,0.228
			c-0.084,0.493-0.084,0.985,0,1.478c0.018,0.076,0.017,0.153,0.018,0.23c-0.005,0.131,0.024,0.258,0.065,0.381
			c0.028,0.551,0.215,1.061,0.401,1.57c0.041,0.129,0.075,0.26,0.151,0.373c0.037,0.125,0.107,0.235,0.16,0.354
			c0.032,0.141,0.105,0.26,0.196,0.37c0.128,0.292,0.306,0.553,0.483,0.814c0.051,0.093,0.095,0.19,0.179,0.261
			c0.021,0.021,0.04,0.045,0.057,0.07c0.041,0.098,0.115,0.172,0.19,0.244c0.081,0.113,0.187,0.201,0.286,0.297
			c0.053,0.092,0.105,0.184,0.2,0.24c0.037,0.027,0.069,0.061,0.098,0.097c0.057,0.095,0.146,0.149,0.24,0.2
			c0.094,0.099,0.182,0.203,0.293,0.284c0.073,0.072,0.141,0.15,0.24,0.19c0.026,0.014,0.05,0.031,0.071,0.053
			c0.068,0.08,0.154,0.134,0.25,0.174c0.076,0.05,0.154,0.098,0.226,0.154c0.099,0.103,0.229,0.152,0.354,0.209
			c0.313,0.181,0.634,0.342,0.966,0.482c0.116,0.073,0.245,0.116,0.377,0.152c0.508,0.192,1.02,0.371,1.568,0.408
			c0.126,0.036,0.252,0.068,0.385,0.063c0.058,0,0.116,0.002,0.173,0.018c0.555,0.086,1.11,0.084,1.665,0.001
			c0.056-0.017,0.113-0.019,0.171-0.019c0.132,0.004,0.259-0.021,0.383-0.063c0.168-0.025,0.326-0.105,0.502-0.078
			C58.71,42.323,58.852,42.37,58.881,42.575z"/>
		<path fill-rule="evenodd" clip-rule="evenodd" fill="#F8F9F9" d="M58.881,42.575c-0.109-0.069-0.212-0.158-0.355-0.142
			c-0.068-0.068-0.136-0.137-0.079-0.244c0.099-0.115,0.239-0.141,0.374-0.184c3.134-0.965,5.116-3.027,5.901-6.217
			c0.129-0.524,0.202-1.064,0.188-1.61c-0.006-0.222-0.03-0.449,0.058-0.665c0.226-0.303,0.008-0.613,0.017-0.919
			c0.005-0.222-0.212-0.444,0-0.665c0.071-0.048,0.142-0.096,0.213-0.143c0.177,0.818,0.319,1.643,0.282,2.484
			c-0.093,2.107-0.779,3.973-2.189,5.575C62.089,41.211,60.619,42.099,58.881,42.575z"/>
		<path fill-rule="evenodd" clip-rule="evenodd" fill="#F9F9FA" d="M64.985,31.93c0.062,0.388,0.123,0.775,0.187,1.164
			c0.028,0.173,0.072,0.348-0.115,0.468c-0.189-0.114-0.193-0.31-0.218-0.497c-0.213-1.637-0.857-3.1-1.92-4.348
			c-1.251-1.473-2.865-2.4-4.764-2.734c-3.076-0.543-5.682,0.424-7.757,2.717c-1.117,1.232-1.745,2.74-1.947,4.406
			c-0.288,2.379,0.415,4.481,1.923,6.285c1.371,1.641,3.186,2.555,5.315,2.833c0.793,0.104,1.576,0.069,2.361-0.06
			c0.138-0.021,0.283-0.055,0.405,0.057c0.023,0.07,0.047,0.142,0.07,0.213c-0.165,0.023-0.331,0.047-0.496,0.07
			c-0.106,0.086-0.249-0.016-0.355,0.071c-0.047,0-0.095,0-0.142,0c-0.592,0.059-1.183,0.059-1.774,0c-0.047,0-0.095,0-0.142,0
			c-0.106-0.087-0.249,0.015-0.355-0.071c-0.574-0.023-1.114-0.184-1.632-0.426c-0.112-0.063-0.243-0.08-0.355-0.142
			c-0.353-0.122-0.686-0.284-0.993-0.497c-0.107-0.089-0.247-0.124-0.354-0.213c-0.071-0.047-0.143-0.095-0.214-0.143
			c-0.099-0.064-0.184-0.148-0.283-0.213s-0.186-0.146-0.284-0.213c-0.119-0.069-0.214-0.164-0.284-0.283
			c-0.099-0.064-0.185-0.148-0.283-0.213c-0.024-0.023-0.048-0.047-0.071-0.071c-0.065-0.099-0.147-0.185-0.213-0.284
			c-0.119-0.069-0.214-0.164-0.284-0.283c-0.065-0.1-0.147-0.186-0.213-0.284c-0.064-0.1-0.148-0.185-0.213-0.284
			c-0.204-0.262-0.395-0.53-0.497-0.852c-0.089-0.107-0.123-0.248-0.213-0.354c-0.047-0.118-0.095-0.237-0.142-0.354
			c-0.063-0.113-0.079-0.243-0.142-0.355c-0.242-0.518-0.402-1.058-0.426-1.633c-0.087-0.105,0.015-0.248-0.071-0.354
			c0-0.071,0-0.142,0-0.213c-0.058-0.521-0.058-1.041,0-1.562c0-0.07,0-0.142,0-0.213c0.086-0.105-0.016-0.249,0.071-0.354
			c0.059-0.991,0.459-1.874,0.913-2.727c0.576-1.082,1.357-2.007,2.352-2.739c0.099-0.064,0.186-0.146,0.283-0.213
			c0.071-0.047,0.143-0.094,0.214-0.141c0.106-0.09,0.247-0.124,0.354-0.213c0.305-0.219,0.665-0.327,0.993-0.498
			c0.112-0.063,0.243-0.078,0.355-0.142c0.536-0.173,1.058-0.401,1.632-0.426c0.106-0.086,0.249,0.016,0.355-0.071
			c0.047,0,0.095,0,0.142,0c0.592-0.059,1.183-0.059,1.774,0c0.047,0,0.095,0,0.142,0c0.106,0.087,0.249-0.015,0.355,0.071
			c0.544,0.142,1.088,0.284,1.632,0.426c0.112,0.063,0.243,0.08,0.355,0.142c0.331,0.166,0.662,0.332,0.993,0.498
			c0.107,0.088,0.247,0.124,0.354,0.213c0.045,0.086,0.116,0.133,0.214,0.141c0.099,0.066,0.185,0.148,0.283,0.213
			c0.1,0.065,0.185,0.149,0.284,0.214c0.07,0.119,0.164,0.214,0.284,0.284c0.099,0.064,0.185,0.147,0.283,0.213
			c0.024,0.023,0.048,0.047,0.071,0.07c0.064,0.1,0.147,0.186,0.213,0.284c0.07,0.119,0.165,0.214,0.284,0.284
			c0.064,0.1,0.148,0.184,0.213,0.283s0.147,0.186,0.213,0.284c0.12,0.31,0.335,0.565,0.497,0.852
			c0.089,0.107,0.123,0.248,0.213,0.354c0.028,0.126,0.053,0.254,0.142,0.355c0.062,0.112,0.079,0.242,0.142,0.354
			C64.804,31.358,64.819,31.669,64.985,31.93z"/>
		<path fill-rule="evenodd" clip-rule="evenodd" fill="#F8F9F9" d="M57.533,25.541c-0.592,0-1.183,0-1.774,0
			C56.35,25.427,56.941,25.427,57.533,25.541z"/>
		<path fill-rule="evenodd" clip-rule="evenodd" fill="#F8F9F9" d="M55.758,42.575c0.592,0,1.183,0,1.774,0
			C56.941,42.689,56.35,42.689,55.758,42.575z"/>
		<path fill-rule="evenodd" clip-rule="evenodd" fill="#F8F9F9" d="M48.093,33.277c0,0.521,0,1.041,0,1.562
			C47.977,34.318,47.977,33.798,48.093,33.277z"/>
		<path fill-rule="evenodd" clip-rule="evenodd" fill="#F8F9F9" d="M48.874,37.749c0.137,0.079,0.187,0.21,0.213,0.354
			C48.951,38.024,48.9,37.895,48.874,37.749z"/>
		<path fill-rule="evenodd" clip-rule="evenodd" fill="#F8F9F9" d="M64.417,30.367c-0.137-0.078-0.187-0.209-0.213-0.354
			C64.34,30.092,64.391,30.223,64.417,30.367z"/>
		<path fill-rule="evenodd" clip-rule="evenodd" fill="#F8F9F9" d="M51.926,41.227c0.145,0.026,0.275,0.076,0.354,0.213
			C52.135,41.413,52.005,41.363,51.926,41.227z"/>
		<path fill-rule="evenodd" clip-rule="evenodd" fill="#F8F9F9" d="M61.365,26.891c-0.145-0.027-0.275-0.078-0.354-0.213
			C61.156,26.703,61.286,26.754,61.365,26.891z"/>
		<path fill-rule="evenodd" clip-rule="evenodd" fill="#F8F9F9" d="M52.281,26.678c-0.079,0.135-0.21,0.186-0.354,0.213
			C52.005,26.754,52.135,26.703,52.281,26.678z"/>
		<path fill-rule="evenodd" clip-rule="evenodd" fill="#F8F9F9" d="M62.998,28.31c-0.112-0.063-0.198-0.147-0.213-0.284
			C62.897,28.089,62.984,28.172,62.998,28.31z"/>
		<path fill-rule="evenodd" clip-rule="evenodd" fill="#F8F9F9" d="M64.701,31.077c-0.105-0.095-0.143-0.218-0.142-0.354
			C64.665,30.817,64.702,30.939,64.701,31.077z"/>
		<path fill-rule="evenodd" clip-rule="evenodd" fill="#F8F9F9" d="M60.017,26.18c-0.138,0.001-0.261-0.035-0.355-0.142
			C59.799,26.037,59.921,26.074,60.017,26.18z"/>
		<path fill-rule="evenodd" clip-rule="evenodd" fill="#F8F9F9" d="M53.629,26.038c-0.095,0.106-0.218,0.143-0.355,0.142
			C53.37,26.074,53.492,26.037,53.629,26.038z"/>
		<path fill-rule="evenodd" clip-rule="evenodd" fill="#F8F9F9" d="M51.712,27.031c-0.063,0.113-0.146,0.199-0.283,0.213
			C51.493,27.133,51.576,27.046,51.712,27.031z"/>
		<path fill-rule="evenodd" clip-rule="evenodd" fill="#F8F9F9" d="M49.583,38.955c0.112,0.064,0.199,0.146,0.213,0.284
			C49.684,39.176,49.598,39.093,49.583,38.955z"/>
		<path fill-rule="evenodd" clip-rule="evenodd" fill="#F8F9F9" d="M49.796,39.239c0.112,0.063,0.199,0.146,0.213,0.284
			C49.897,39.459,49.811,39.377,49.796,39.239z"/>
		<path fill-rule="evenodd" clip-rule="evenodd" fill="#F8F9F9" d="M61.862,27.244c-0.137-0.014-0.22-0.1-0.283-0.213
			C61.715,27.046,61.798,27.133,61.862,27.244z"/>
		<path fill-rule="evenodd" clip-rule="evenodd" fill="#F8F9F9" d="M50.293,39.807c0.112,0.064,0.198,0.146,0.213,0.284
			C50.394,40.027,50.308,39.944,50.293,39.807z"/>
		<path fill-rule="evenodd" clip-rule="evenodd" fill="#F8F9F9" d="M48.59,37.039c0.105,0.095,0.143,0.218,0.142,0.355
			C48.626,37.299,48.589,37.177,48.59,37.039z"/>
		<path fill-rule="evenodd" clip-rule="evenodd" fill="#F8F9F9" d="M51.145,40.658c0.138,0.015,0.221,0.102,0.284,0.213
			C51.292,40.857,51.208,40.771,51.145,40.658z"/>
		<path fill-rule="evenodd" clip-rule="evenodd" fill="#F8F9F9" d="M51.429,40.871c0.137,0.015,0.22,0.102,0.283,0.213
			C51.576,41.07,51.493,40.984,51.429,40.871z"/>
		<path fill-rule="evenodd" clip-rule="evenodd" fill="#F8F9F9" d="M62.146,27.458c-0.138-0.015-0.221-0.101-0.284-0.214
			C62,27.26,62.083,27.346,62.146,27.458z"/>
		<path fill-rule="evenodd" clip-rule="evenodd" fill="#F8F9F9" d="M62.713,27.955c-0.137-0.015-0.22-0.102-0.283-0.213
			C62.567,27.756,62.65,27.842,62.713,27.955z"/>
		<path fill-rule="evenodd" clip-rule="evenodd" fill="#F8F9F9" d="M53.274,41.937c0.138-0.001,0.261,0.036,0.355,0.142
			C53.492,42.078,53.37,42.042,53.274,41.937z"/>
		<path fill-rule="evenodd" clip-rule="evenodd" fill="#F8F9F9" d="M63.495,28.877c-0.112-0.063-0.199-0.146-0.213-0.283
			C63.394,28.656,63.48,28.74,63.495,28.877z"/>
		<path fill-rule="evenodd" clip-rule="evenodd" fill="#F8F9F9" d="M63.708,29.161c-0.112-0.063-0.199-0.146-0.213-0.284
			C63.607,28.941,63.693,29.023,63.708,29.161z"/>
		<path fill-rule="evenodd" clip-rule="evenodd" fill="#F8F9F9" d="M50.578,40.162c0.137,0.014,0.22,0.101,0.283,0.213
			C50.724,40.361,50.641,40.274,50.578,40.162z"/>
		<path fill-rule="evenodd" clip-rule="evenodd" fill="#F8F9F9" d="M58.03,25.612c-0.122-0.007-0.252,0.026-0.355-0.071
			C57.796,25.549,57.926,25.516,58.03,25.612z"/>
		<path fill-rule="evenodd" clip-rule="evenodd" fill="#F8F9F9" d="M55.617,25.541c-0.104,0.098-0.233,0.064-0.355,0.071
			C55.365,25.516,55.495,25.549,55.617,25.541z"/>
		<path fill-rule="evenodd" clip-rule="evenodd" fill="#F8F9F9" d="M48.165,32.71c-0.008,0.122,0.025,0.251-0.071,0.354
			C48.1,32.943,48.067,32.813,48.165,32.71z"/>
		<path fill-rule="evenodd" clip-rule="evenodd" fill="#F8F9F9" d="M55.261,42.504c0.122,0.008,0.252-0.025,0.355,0.071
			C55.495,42.568,55.365,42.602,55.261,42.504z"/>
		<path fill-rule="evenodd" clip-rule="evenodd" fill="#F8F9F9" d="M57.674,42.575c0.104-0.097,0.233-0.063,0.355-0.071
			C57.926,42.602,57.796,42.568,57.674,42.575z"/>
		<path fill-rule="evenodd" clip-rule="evenodd" fill="#F8F9F9" d="M48.093,35.052c0.097,0.104,0.063,0.233,0.071,0.354
			C48.067,35.303,48.1,35.174,48.093,35.052z"/>
		<path fill-rule="evenodd" clip-rule="evenodd" fill="#FBFBFB" d="M58.456,42.221c-0.889,0.236-1.788,0.253-2.7,0.164
			c-1.323-0.131-2.533-0.579-3.642-1.285c-2.053-1.307-3.269-3.197-3.735-5.572c-0.425-2.16,0.055-4.156,1.206-5.994
			c1.149-1.834,2.823-3.002,4.898-3.559c2.819-0.757,5.38-0.116,7.603,1.705c1.681,1.377,2.624,3.224,2.901,5.393
			c0.021,0.163,0.046,0.326,0.069,0.489c0.066,1.567-0.218,3.063-0.983,4.44c-1.19,2.137-2.958,3.555-5.338,4.182
			C58.645,42.208,58.548,42.209,58.456,42.221z"/>
		<path fill-rule="evenodd" clip-rule="evenodd" fill="#FDFDFD" d="M60.869,27.458c0.047,0.023,0.095,0.047,0.142,0.071
			c0.156,0.101,0.324,0.188,0.426,0.354c0.106,0.056,0.225,0.095,0.284,0.213c0.602,0.448,1.092,0.999,1.49,1.632
			c0.023,0.048,0.048,0.096,0.071,0.143c0.155,0.151,0.237,0.35,0.342,0.533c0.498,0.988,0.808,2.021,0.874,3.137
			c0.077,1.285-0.129,2.502-0.643,3.678c-0.67,1.534-1.74,2.715-3.16,3.576c-1.042,0.631-2.178,0.965-3.398,1.085
			c-1.129,0.11-2.196-0.077-3.257-0.413c-0.135-0.041-0.267-0.093-0.41-0.098c-0.211-0.171-0.485-0.213-0.71-0.355l0,0
			c-0.728-0.416-1.396-0.905-1.981-1.512c-0.503-0.521-0.915-1.099-1.256-1.732c-0.496-0.975-0.814-1.992-0.891-3.096
			c-0.074-1.082,0.053-2.125,0.383-3.15c0.285-0.886,0.748-1.674,1.325-2.398c0.085-0.07,0.158-0.166,0.291-0.125
			c0.123,0.158,0.004,0.274-0.067,0.402c-0.134,0.24-0.396,0.389-0.468,0.671c-0.363,0.691-0.698,1.394-0.901,2.153
			c-0.128,0.465-0.193,0.94-0.203,1.424c-0.026,0.148-0.099,0.295-0.035,0.452c0.016,0.033,0.026,0.067,0.036,0.102
			c0.015,0.513,0.031,1.024,0.22,1.511c0.038,0.602,0.32,1.127,0.524,1.677c0.253,0.542,0.629,1.005,0.971,1.491
			c0.476,0.447,0.917,0.932,1.473,1.288c0.501,0.38,1.059,0.654,1.642,0.884c0.173,0.068,0.353-0.002,0.522,0.055
			c0.137,0.143,0.327,0.122,0.495,0.157c1.972,0.407,3.825,0.104,5.547-0.944c0.732-0.445,1.364-1.012,1.892-1.688
			c0.167-0.214,0.358-0.407,0.529-0.616c0.48-0.655,0.826-1.367,0.91-2.188c0.024-0.498,0.168-0.981,0.19-1.48
			c0.015-0.149,0.107-0.285,0.079-0.443c-0.026-0.551-0.089-1.096-0.242-1.628c-0.196-0.521-0.406-1.038-0.584-1.567
			c-0.194-0.57-0.579-1.02-0.953-1.475c-0.477-0.442-0.935-0.904-1.44-1.313c-0.639-0.52-1.369-0.842-2.168-1.019
			c-0.568-0.157-1.151-0.231-1.734-0.305c-0.279-0.099-0.559-0.097-0.838,0.002c-0.375-0.015-0.743,0.183-1.124,0.045
			c-0.112-0.128-0.04-0.214,0.068-0.291c0.033-0.017,0.069-0.028,0.106-0.03c0.126,0,0.252-0.008,0.368-0.065
			c0.035-0.005,0.07-0.008,0.105-0.009c0.193-0.002,0.388,0.013,0.574-0.057c0.036-0.008,0.071-0.013,0.107-0.014
			c0.184-0.002,0.367-0.002,0.552,0c0.037,0,0.073,0.004,0.11,0.01c0.176,0.089,0.365,0.051,0.549,0.061
			c1.028,0.154,2.012,0.446,2.918,0.967C60.643,27.289,60.775,27.346,60.869,27.458z"/>
		<path fill-rule="evenodd" clip-rule="evenodd" fill="#FCFCFD" d="M53.629,41.369c0.325-0.109,0.596,0.098,0.882,0.174
			c2.657,0.701,5.066,0.188,7.175-1.547c1.568-1.289,2.489-2.998,2.712-5.021c0.163-1.475-0.038-2.923-0.703-4.279
			c-0.051-0.105-0.087-0.219-0.129-0.328c0.023-0.025,0.047-0.025,0.07,0c0.246,0.185,0.283,0.486,0.391,0.74
			c0.39,0.922,0.606,1.902,0.589,2.895c-0.035,2.092-0.721,3.946-2.184,5.488c-1.285,1.354-2.857,2.146-4.689,2.425
			C56.325,42.131,54.949,41.943,53.629,41.369z"/>
		<path fill-rule="evenodd" clip-rule="evenodd" fill="#FCFCFD" d="M50.578,29.161c-0.724,0.819-1.189,1.774-1.486,2.819
			c-0.198,0.697-0.264,1.42-0.269,2.131c-0.006,0.99,0.166,1.97,0.565,2.893c0.116,0.271,0.226,0.544,0.338,0.816
			c-0.024,0.031-0.048,0.031-0.071,0c-0.507-0.883-0.791-1.84-0.917-2.841c-0.159-1.261,0.009-2.487,0.451-3.677
			c0.655-1.758,1.811-3.097,3.404-4.068c0.099-0.061,0.217-0.088,0.326-0.131c0.007,0.015,0.014,0.03,0.021,0.046
			c-0.012,0.188-0.18,0.244-0.302,0.316c-0.583,0.342-1.115,0.746-1.568,1.247C50.919,28.88,50.691,28.957,50.578,29.161z"/>
		<path fill-rule="evenodd" clip-rule="evenodd" fill="#FCFCFD" d="M60.869,27.458c-0.336-0.163-0.672-0.327-1.009-0.49
			c-0.715-0.345-1.481-0.509-2.256-0.646c-0.181-0.096-0.388,0.025-0.568-0.071c-0.023,0-0.047,0-0.07,0
			c-0.213-0.056-0.427-0.056-0.64,0c-0.205,0.095-0.434-0.023-0.639,0.071c-0.023,0-0.047,0-0.07,0
			c-0.106,0.086-0.249-0.016-0.355,0.07c-0.023,0-0.047,0-0.07,0c-0.645,0.298-1.355,0.42-1.985,0.754
			c-0.1,0.053-0.204,0.055-0.286-0.043l0,0c0.185-0.247,0.485-0.288,0.74-0.391c0.994-0.4,2.035-0.628,3.108-0.596
			c1.39,0.041,2.703,0.396,3.911,1.104C60.776,27.277,60.857,27.338,60.869,27.458z"/>
		<path fill-rule="evenodd" clip-rule="evenodd" fill="#FCFCFD" d="M49.655,37.82c0.023,0,0.047,0,0.071,0
			c0.429,0.605,0.815,1.239,1.36,1.76c0.464,0.443,0.952,0.845,1.505,1.171c0.119,0.07,0.255,0.131,0.328,0.263
			c-0.562-0.183-1.01-0.556-1.441-0.929C50.736,39.444,50.09,38.713,49.655,37.82z"/>
		<path fill-rule="evenodd" clip-rule="evenodd" fill="#FCFCFD" d="M63.21,29.729c-0.497-0.544-0.993-1.088-1.49-1.632
			c0.035,0.003,0.081-0.008,0.104,0.011C62.392,28.557,62.953,29.014,63.21,29.729z"/>
		<path fill-rule="evenodd" clip-rule="evenodd" fill="#FCFCFD" d="M52.919,41.014c0.27,0.053,0.532,0.119,0.71,0.355
			C53.385,41.266,53.099,41.246,52.919,41.014z"/>
		<path fill-rule="evenodd" clip-rule="evenodd" fill="#FCFCFD" d="M63.636,30.367c-0.023,0-0.047,0-0.07,0
			c-0.13-0.146-0.252-0.295-0.284-0.496C63.542,29.934,63.566,30.168,63.636,30.367z"/>
		<path fill-rule="evenodd" clip-rule="evenodd" fill="#FCFCFD" d="M61.436,27.884c-0.176-0.077-0.328-0.184-0.426-0.354
			C61.231,27.553,61.414,27.622,61.436,27.884z"/>
		<path fill-rule="evenodd" clip-rule="evenodd" fill="#FEFEFE" d="M63.98,32.209c0.265,0.364,0.212,0.806,0.29,1.213
			c0.03,0.16,0.005,0.33,0.005,0.494c-0.055,0.055-0.083,0.131-0.151,0.172c-0.447,0.299-0.97,0.419-1.461,0.607
			c-0.868,0.333-1.755,0.619-2.612,0.978c-0.912,0.382-1.859,0.36-2.813,0.329c-0.06-0.002-0.114-0.025-0.16-0.066
			c-0.161-0.213-0.055-0.425,0.002-0.637c0.057-0.215,0.083-0.439,0.212-0.629c0.271-0.271,0.646-0.33,0.981-0.463
			c1.742-0.695,3.502-1.342,5.266-1.979C63.684,32.176,63.829,32.115,63.98,32.209z"/>
		<path fill-rule="evenodd" clip-rule="evenodd" fill="#B5B6B9" d="M63.042,38.1c-0.713,1.021-1.566,1.892-2.662,2.502
			c-1.796,1-3.696,1.232-5.687,0.746c-0.076-0.02-0.279,0.026-0.201-0.188c0.062-0.182,0.227-0.23,0.38-0.287
			c1.239-0.462,2.485-0.908,3.721-1.38c0.111-0.042,0.229-0.05,0.283-0.063c-0.308,0.062-0.682,0.029-1.053,0.03
			c-0.875,0.004-1.75,0.007-2.625-0.002c-0.17-0.002-0.366,0.032-0.45-0.188c0.075-0.178,0.235-0.182,0.389-0.182
			c1.454-0.01,2.908-0.032,4.361,0.012c0.47,0.014,0.942,0.037,1.413,0.057c0.343,0.014,0.575-0.083,0.643-0.447
			c0.017-0.094,0.063-0.179,0.124-0.253c0.306-0.255,0.688-0.347,1.052-0.47C62.83,37.953,63.011,37.863,63.042,38.1z"/>
		<path fill-rule="evenodd" clip-rule="evenodd" fill="#B5B6B9" d="M55.049,26.598c0.38-0.049,0.76-0.098,1.141-0.146
			c0.28-0.038,0.561-0.038,0.841,0.001c0.602,0.086,1.218,0.1,1.782,0.366c-0.008,0.249-0.224,0.271-0.385,0.343
			c-0.438,0.193-0.93,0.244-1.349,0.494c-0.633,0.055-1.268,0.025-1.901,0.021c-0.314-0.002-0.48,0.115-0.537,0.422
			c-0.033,0.183-0.063,0.373-0.203,0.516c-1.265,0.51-2.555,0.951-3.83,1.432c-0.147,0.056-0.318,0.129-0.444-0.057
			c0.133-0.378,0.484-0.61,0.646-0.969c0.253-0.467,0.676-0.77,1.076-1.085c0.82-0.647,1.75-1.085,2.762-1.345
			C54.778,26.559,54.917,26.479,55.049,26.598z"/>
		<path fill-rule="evenodd" clip-rule="evenodd" fill="#B5B6B9" d="M63.98,32.209c-1.79,0.667-3.582,1.33-5.371,2.002
			c-0.407,0.152-0.834,0.261-1.211,0.49c-0.164-0.283,0.044-0.416,0.237-0.521c0.248-0.134,0.518-0.231,0.788-0.308
			c0.287-0.079,0.432-0.256,0.495-0.532c0.077-0.332,0.165-0.662,0.25-0.992c0.038-0.148,0.081-0.297,0.21-0.398
			c1.14-0.455,2.299-0.858,3.448-1.289c0.19-0.071,0.396-0.195,0.594-0.002C63.643,31.163,63.872,31.664,63.98,32.209z"/>
		<path fill-rule="evenodd" clip-rule="evenodd" fill="#B5B6B9" d="M49.003,33.709c0.031-0.521,0.026-1.048,0.23-1.543
			c0.281-0.295,0.673-0.369,1.031-0.502c1.013-0.379,2.024-0.762,3.043-1.126c0.179-0.064,0.368-0.188,0.566-0.034
			c0.068,0.093,0.066,0.198,0.044,0.303c-0.12,0.549-0.276,1.088-0.431,1.627c-0.023,0.08-0.072,0.146-0.139,0.198
			c-1.293,0.565-2.632,1.011-3.956,1.496c-0.12,0.044-0.25,0.08-0.37-0.013v0.014C48.948,33.992,48.975,33.851,49.003,33.709z"/>
		<path fill-rule="evenodd" clip-rule="evenodd" fill="#FEFEFE" d="M53.833,30.505c-1.396,0.519-2.793,1.036-4.19,1.552
			c-0.132,0.049-0.272,0.073-0.409,0.109c0.186-0.778,0.504-1.5,0.929-2.176c0.611-0.096,1.156-0.387,1.733-0.584
			c0.714-0.244,1.415-0.525,2.124-0.782c0.099-0.035,0.206-0.144,0.323-0.026c0.098,0.076,0.106,0.184,0.081,0.289
			c-0.114,0.47-0.214,0.943-0.378,1.4C54.008,30.391,53.95,30.477,53.833,30.505z"/>
		<path fill-rule="evenodd" clip-rule="evenodd" fill="#FEFEFE" d="M54.755,39.299c1.109,0.008,2.219,0.018,3.329,0.024
			c0.421,0.003,0.842,0,1.276,0.06c-0.624,0.232-1.246,0.469-1.872,0.695c-0.998,0.363-1.998,0.722-2.996,1.082
			c-0.205,0.154-0.406,0.098-0.623,0.012c-0.461-0.183-0.897-0.408-1.318-0.667c-0.118-0.071-0.253-0.136-0.278-0.298
			c0.028-0.225,0.224-0.255,0.382-0.317c0.622-0.247,1.265-0.438,1.894-0.673C54.628,39.215,54.702,39.232,54.755,39.299z"/>
		<path fill-rule="evenodd" clip-rule="evenodd" fill="#FEFEFE" d="M63.42,30.659c-0.698,0.131-1.328,0.461-1.995,0.685
			c-0.557,0.187-1.104,0.406-1.656,0.605c-0.104,0.038-0.207,0.128-0.329,0.042c-0.211-0.275,0.029-0.538,0.026-0.831
			c-0.294,0.068-0.552,0.214-0.828,0.3c-0.378,0.118-0.523-0.015-0.431-0.4c0.048-0.204,0.084-0.421,0.272-0.562
			c0.911-0.438,1.885-0.717,2.822-1.086c0.219-0.086,0.437-0.174,0.66-0.246c0.149-0.047,0.297-0.072,0.447-0.011
			C62.9,29.554,63.233,30.058,63.42,30.659z"/>
		<path fill-rule="evenodd" clip-rule="evenodd" fill="#FEFEFE" d="M49.023,34.115c1.419-0.516,2.819-1.083,4.257-1.547
			c0.176,0.368,0.021,0.83-0.341,1.008c-0.158,0.078-0.326,0.144-0.495,0.182c-0.402,0.092-0.574,0.359-0.649,0.735
			c-0.043,0.217-0.075,0.443-0.249,0.609c-0.556,0.304-1.165,0.474-1.754,0.694c-0.163,0.063-0.334,0.135-0.484-0.032
			c-0.313-0.251-0.21-0.633-0.28-0.955C48.978,34.588,49.021,34.348,49.023,34.115z"/>
		<path fill-rule="evenodd" clip-rule="evenodd" fill="#B5B6B9" d="M57.101,35.903c0.507,0.001,1.014-0.005,1.52,0.007
			c0.318,0.008,0.598-0.113,0.884-0.221c1.545-0.573,3.09-1.146,4.635-1.72c0.188,0.089,0.082,0.238,0.077,0.367
			c-0.041,0.523-0.114,1.042-0.244,1.553c-0.029,0.114-0.119,0.172-0.218,0.213c-0.392,0.161-0.785,0.316-1.188,0.446
			c-0.122,0.04-0.254,0.087-0.346-0.063c-0.021-0.315-0.228-0.358-0.492-0.357c-1.381,0.005-2.762,0.005-4.143,0
			c-0.151-0.001-0.311,0.022-0.449-0.062C57.083,36.032,56.981,35.986,57.101,35.903z"/>
		<path fill-rule="evenodd" clip-rule="evenodd" fill="#B5B6B9" d="M62.41,29.155c-1.294,0.481-2.578,0.991-3.893,1.419
			c-0.085-0.063-0.119-0.157-0.099-0.25c0.134-0.604,0.229-1.221,0.518-1.779c0.535-0.35,1.149-0.506,1.741-0.718
			c0.11-0.04,0.23-0.038,0.332,0.046C61.552,28.217,62.006,28.658,62.41,29.155z"/>
		<path fill-rule="evenodd" clip-rule="evenodd" fill="#B5B6B9" d="M49.307,35.765c0.576-0.093,1.087-0.382,1.638-0.55
			c0.18-0.055,0.357-0.113,0.536-0.171c0.16,0.12,0.088,0.272,0.055,0.417c-0.074,0.328-0.175,0.652-0.241,1.022
			c0.271-0.031,0.478-0.154,0.702-0.202c0.118-0.025,0.244-0.047,0.32,0.074c0.081,0.129,0.047,0.247-0.077,0.338
			c-0.619,0.283-1.266,0.497-1.9,0.738c-0.174,0.066-0.357,0.136-0.538,0.009c-0.262-0.413-0.363-0.892-0.539-1.339
			C49.215,35.982,49.241,35.87,49.307,35.765z"/>
		<path fill-rule="evenodd" clip-rule="evenodd" fill="#FEFEFE" d="M49.801,37.44c0.658-0.235,1.316-0.473,1.975-0.707
			c0.142-0.051,0.276-0.128,0.435-0.12c0.085,0.063,0.116,0.157,0.093,0.248c-0.155,0.593-0.227,1.211-0.51,1.767
			c-0.304,0.195-0.613,0.381-0.999,0.327C50.384,38.502,50.007,38.027,49.801,37.44z"/>
		<path fill-rule="evenodd" clip-rule="evenodd" fill="#FEFEFE" d="M62.295,36.547c0.526-0.301,1.107-0.465,1.677-0.657
			c0.127,0.188,0,0.363-0.047,0.532c-0.149,0.533-0.413,1.019-0.669,1.506c-0.045,0.085-0.119,0.144-0.214,0.172
			c-0.306-0.051-0.536,0.168-0.812,0.227c-0.146,0.032-0.288,0.085-0.432,0.128c-0.128-0.099-0.102-0.237-0.073-0.358
			c0.101-0.436,0.226-0.865,0.349-1.296C62.108,36.682,62.166,36.582,62.295,36.547z"/>
		<path fill-rule="evenodd" clip-rule="evenodd" fill="#FEFEFE" d="M61.009,27.873c-0.659,0.238-1.318,0.477-1.978,0.716
			c-0.195-0.169-0.082-0.368-0.046-0.555c0.061-0.315,0.049-0.343-0.279-0.351c-0.398-0.008-0.797,0.004-1.195-0.006
			c-0.15-0.004-0.312,0.01-0.399-0.157c0.416-0.239,0.884-0.348,1.323-0.527c0.129-0.052,0.252-0.116,0.378-0.174
			C59.668,26.912,60.4,27.266,61.009,27.873z"/>
		<path fill-rule="evenodd" clip-rule="evenodd" fill="#B5B6B9" d="M50.794,38.955c0.27-0.195,0.598-0.249,0.9-0.363
			c0.04,0.028,0.067,0.065,0.077,0.113c0.095,0.447,0.095,0.448,0.545,0.449c0.6,0.003,1.198-0.004,1.798,0.005
			c0.16,0.003,0.337-0.022,0.439,0.154c-0.62,0.307-1.286,0.493-1.926,0.747c-0.119,0.047-0.236,0.098-0.354,0.146
			c-0.31,0-0.463-0.266-0.666-0.424C51.305,39.547,51.029,39.268,50.794,38.955z"/>
		<path fill-rule="evenodd" clip-rule="evenodd" fill="#FCFCFD" d="M55.049,26.598c-1.684,0.336-3.072,1.186-4.239,2.424
			c-0.077,0.047-0.155,0.093-0.232,0.14c0.334-0.548,0.835-0.929,1.316-1.333c0.323-0.271,0.733-0.414,1.025-0.725
			c0.563-0.127,1.048-0.469,1.618-0.578c0.218-0.041,0.426-0.135,0.653-0.133C55.143,26.461,55.096,26.529,55.049,26.598z"/>
		<path fill-rule="evenodd" clip-rule="evenodd" fill="#FCFCFD" d="M57.031,26.453c-0.28,0-0.561,0-0.841-0.001
			C56.47,26.359,56.75,26.359,57.031,26.453z"/>
		<path fill-rule="evenodd" clip-rule="evenodd" fill="#FCFCFD" d="M55.687,26.322c0.201-0.133,0.427-0.045,0.639-0.071
			C56.125,26.385,55.9,26.297,55.687,26.322z"/>
		<path fill-rule="evenodd" clip-rule="evenodd" fill="#FCFCFD" d="M56.326,26.251c0.213-0.108,0.427-0.108,0.64,0
			C56.752,26.251,56.539,26.251,56.326,26.251z"/>
		<path fill-rule="evenodd" clip-rule="evenodd" fill="#FCFCFD" d="M57.036,26.251c0.189,0.022,0.392-0.056,0.568,0.071
			C57.415,26.301,57.212,26.378,57.036,26.251z"/>
		<path fill-rule="evenodd" clip-rule="evenodd" fill="#FCFCFD" d="M64.216,34.337c-0.027-0.122,0.028-0.261-0.077-0.367
			c0.046-0.018,0.091-0.036,0.136-0.054C64.264,34.058,64.309,34.207,64.216,34.337z"/>
		<path fill-rule="evenodd" clip-rule="evenodd" fill="#FCFCFD" d="M49.003,33.709c0.007,0.14,0.014,0.279,0.02,0.42
			C48.911,33.994,48.922,33.853,49.003,33.709z"/>
		<path fill-rule="evenodd" clip-rule="evenodd" fill="#FCFCFD" d="M55.261,26.393c0.104-0.097,0.233-0.063,0.355-0.07
			C55.513,26.42,55.383,26.386,55.261,26.393z"/>
		<path fill-rule="evenodd" clip-rule="evenodd" fill="#3E3F3D" d="M54.554,39.313c-0.851-0.007-1.701-0.017-2.552-0.022
			c-0.476-0.003-0.476-0.001-0.362-0.457c0.02-0.08,0.036-0.162,0.055-0.242c0.172-0.659,0.344-1.318,0.516-1.979
			c0.056-0.068,0.092-0.164,0.049-0.228c-0.061-0.089-0.15,0.001-0.219,0.024c-0.31,0.107-0.614,0.227-0.993,0.367
			c0.153-0.614,0.294-1.174,0.434-1.733c0.097-0.337,0.205-0.672,0.285-1.013c0.037-0.16,0.112-0.242,0.264-0.284
			c0.146-0.042,0.281-0.132,0.429-0.151c0.607-0.084,0.78-0.5,0.821-1.027c0.185-0.688,0.369-1.375,0.554-2.063
			c0.17-0.636,0.34-1.271,0.51-1.907c0.07-0.259,0.157-0.516,0.208-0.778c0.044-0.224,0.14-0.302,0.376-0.297
			c0.728,0.015,1.456,0.001,2.185-0.002c0.705,0,1.41,0,2.158,0c-0.084,0.376-0.161,0.722-0.238,1.068
			c-0.204,0.653-0.392,1.311-0.515,1.985c-0.123,0.253-0.17,0.527-0.235,0.852c0.479-0.178,0.921-0.34,1.394-0.514
			c-0.017,0.396-0.191,0.725-0.235,1.079c-0.141,0.521-0.291,1.04-0.417,1.563c-0.053,0.22-0.158,0.342-0.375,0.407
			c-0.305,0.091-0.596,0.225-0.897,0.321c-0.216,0.068-0.346,0.186-0.353,0.418c-0.099,0.4-0.198,0.801-0.297,1.202
			c0.086,0.144,0.225,0.069,0.335,0.069c1.519,0.001,3.037-0.008,4.556-0.014c0.469-0.001,0.469,0.001,0.335,0.453
			c-0.013,0.043-0.021,0.09-0.031,0.135c-0.166,0.635-0.331,1.271-0.496,1.907c-0.005,0.011-0.011,0.021-0.015,0.032
			c-0.251,0.805-0.251,0.807-1.088,0.804c-1.841-0.008-3.682-0.02-5.522-0.027c-0.141-0.001-0.284-0.025-0.419,0.036
			C54.688,39.305,54.621,39.309,54.554,39.313z"/>
		<path fill-rule="evenodd" clip-rule="evenodd" fill="#FEFEFE" d="M52.361,38.668c0.188-0.984,0.5-1.938,0.736-2.908
			c0.033-0.135,0.065-0.268,0.109-0.448c-0.427,0.155-0.81,0.295-1.254,0.457c0.133-0.494,0.25-0.945,0.375-1.394
			c0.038-0.137,0.182-0.154,0.288-0.172c0.803-0.133,1.121-0.631,1.289-1.406c0.316-1.461,0.755-2.895,1.124-4.346
			c0.06-0.23,0.146-0.3,0.377-0.297c0.874,0.012,1.749,0.003,2.623,0.002c0.454,0,0.453,0,0.333,0.451
			c-0.311,1.174-0.62,2.348-0.93,3.521c-0.022,0.088-0.033,0.178-0.057,0.307c0.485-0.18,0.931-0.344,1.43-0.527
			c-0.126,0.482-0.241,0.909-0.349,1.339c-0.026,0.106-0.084,0.161-0.186,0.187c-0.046,0.01-0.088,0.034-0.132,0.052
			c-0.391,0.16-0.902,0.181-1.151,0.489c-0.237,0.294-0.25,0.771-0.358,1.168c-0.097,0.354-0.165,0.715-0.287,1.058
			c-0.121,0.338-0.001,0.38,0.308,0.376c1.524-0.014,3.049-0.006,4.573-0.006c0.415,0,0.415,0,0.303,0.42
			c-0.149,0.559-0.298,1.116-0.446,1.674c-0.083,0.069-0.182,0.041-0.272,0.041c-2.725,0.002-5.448,0.002-8.173,0.001
			C52.542,38.706,52.445,38.731,52.361,38.668z"/>
		<path fill-rule="evenodd" clip-rule="evenodd" fill="#3B3D3D" d="M52.361,38.668c2.906-0.002,5.813-0.002,8.719-0.004
			c-0.107,0.105-0.243,0.078-0.37,0.078c-2.693,0-5.387,0.001-8.08-0.004C52.542,38.738,52.417,38.813,52.361,38.668z"/>
	</g>
</g>
<g>
	<g>
		<path fill="#666666" d="M-11.636,80.581c0,7.194,0,12.897,0,12.897h-42.797c0,0,0-5.702,0-12.897V63.216
			c0-7.192,6.107-14.063,13.299-14.063h17.367c7.195,0,12.131,6.87,12.131,14.063V80.581L-11.636,80.581z"/>
		<circle fill="#666666" cx="-32.63" cy="31.56" r="15.014"/>
	</g>
	<rect x="-52.873" y="65.462" fill="none" width="40.482" height="28.254"/>
	<text transform="matrix(1 0 0 1 -49.8945 76.543)" fill="#FFFFFF" font-family="'Raleway'" font-size="15.1811">Alice</text>
</g>
</svg>
